<?xml version="1.0" encoding="utf-8"?>
<!-- Generator: Adobe Illustrator 16.0.0, SVG Export Plug-In . SVG Version: 6.00 Build 0)  -->
<!DOCTYPE svg PUBLIC "-//W3C//DTD SVG 1.1//EN" "http://www.w3.org/Graphics/SVG/1.1/DTD/svg11.dtd">
<svg version="1.1" id="Layer_1" xmlns="http://www.w3.org/2000/svg" xmlns:xlink="http://www.w3.org/1999/xlink" x="0px" y="0px"
	 width="82.9px" height="82.9px" viewBox="0 0 82.9 82.9" enable-background="new 0 0 82.9 82.9" xml:space="preserve">
<g>
	<g>
		<path fill="#FBB040" d="M25.6,63.798c0,0-1.601,5,0.199,5.5c0.9,0.3,8.4,2.1,15.9,2.399c7.3,0.301,14.5-0.699,15.7-1.399
			c2.399-1.4-0.3-6.601-0.3-6.601s-10,6.5-16.601,4.9C33.8,67.197,25.6,63.798,25.6,63.798z"/>
	</g>
	<ellipse fill="#7A6752" cx="41.1" cy="37.797" rx="29.1" ry="31.1"/>
	<ellipse fill="#EBE5D8" cx="41.1" cy="37.797" rx="27.199" ry="29.1"/>
	<path fill="#7A6752" d="M30.1,11.097c0,0,11.399,17.5,6.899,26.6c-4.5,9.101-1.6,28.5-1.6,28.5s-21.2-3.3-21.2-27.8
		S30.1,11.097,30.1,11.097z"/>
	<ellipse fill="#0F2E35" cx="30.4" cy="31.798" rx="3.3" ry="6"/>
	<path fill="#7A6752" d="M52.8,11.798c0,0-10.8,16.899-6.199,26c4.5,9.1,0.6,28.5,0.6,28.5s21-3.3,21-27.8
		C68.2,13.897,52.8,11.798,52.8,11.798z"/>
	<path fill="#655643" d="M60.5,21.697c0,0-8.1,18.5,7.3,30.101"/>
	<path fill="#7A6752" d="M60.2,37.097c1.6,5.9,4.6,10.6,7.9,13c2.1,1.5,4.399,2.1,6.5,1.5c5.399-1.6,7.699-10.8,5.1-20.4
		c-2.6-9.6-9-16.1-14.4-14.5c-2.1,0.601-3.8,2.5-4.8,5C58.8,25.597,58.6,31.197,60.2,37.097z"/>
	
		<path fill="none" stroke="#0F2E35" stroke-width="1.8352" stroke-linecap="round" stroke-linejoin="round" stroke-miterlimit="10" d="
		M67.2,57.498"/>
	<g>
		<path fill="#7A6752" d="M80.7,39.998c0.1,2.5-0.5,7.699-1.5,9.899c-0.3-0.399-0.4-1-0.6-1.6c-0.2,1.2-0.4,2.5-1,3.5
			c-0.301-0.3-0.4-1.101-0.601-1.601c-0.3,0.601-0.399,1.4-0.7,2c-0.399-0.399-0.399-1.1-0.899-1.6L80.7,39.998z"/>
	</g>
	<g>
		<path fill="#7A6752" d="M76.1,49.498c-0.101,0.6-0.4,1.199-0.601,1.699c-0.2,0.301-0.399,0.9-0.7,1.2c-0.1-0.2-0.1-0.5-0.199-0.7
			c-0.101-0.5-0.2-1-0.4-1.5"/>
	</g>
	<path fill="#EBE5D8" d="M53,63.197c0-7-5.3-12.699-11.899-12.699c-6.601,0-11.9,5.699-11.9,12.699s5.3,5.9,11.9,5.9
		C47.6,69.097,53,70.197,53,63.197z"/>
	<path fill="#D0CBC1" d="M29,62.998c0,0-0.399,2.1,3.2,2.399s7.5,0.5,7.5,0.5s4.4-0.1,4.6,0c0.2,0.101,2.801-0.3,3.101-0.2
		c0.399,0,1.8-0.1,2.1-0.1s1.3,0,1.9-0.2c0.6-0.2,0.8,0,1.2-0.399c0.5-0.4,0.3-1.9,0.3-1.9l-7.5-1.7L29,62.998z"/>
	<path fill="#FFFFFF" d="M29.2,56.597c0,0-0.6,7.4,0.5,7.9c1.1,0.6,23.1,1.6,23.3-0.601c0.2-1.8,0.101-4-0.399-6s-23-0.399-23-0.399
		L29.2,56.597z"/>
	<path fill="none" stroke="#0F2E35" stroke-width="3.5" stroke-linecap="round" stroke-linejoin="round" stroke-miterlimit="10" d="
		M53.65,61.798h15.2c0,0,0,4.2,0,10.3s7.6,6.7,7.6,0c0-4.9,0-17.7,0-23.8c0-6.101-7.6-6.7-7.6,0c0,4.899,0,8.3,0,8.3"/>
	
		<line fill="none" stroke="#0F2E35" stroke-width="3.5" stroke-linecap="round" stroke-linejoin="round" stroke-miterlimit="10" x1="16.552" y1="61.798" x2="27.85" y2="61.798"/>
	<ellipse fill="#0F2E35" cx="52.5" cy="31.798" rx="3.3" ry="6"/>
	<g>
		<g>
			<path id="XMLID_12_" fill="#EBE5D8" d="M53,56.197c0-7-5.3-12.699-11.899-12.699c-6.601,0-11.9,5.699-11.9,12.699
				c0,0.2,0,0.301,0,0.5c0.3,6.5,5.5,5.4,11.9,5.4C47.6,62.097,53,63.197,53,56.197z"/>
		</g>
		<g>
			<defs>
				<path id="SVGID_1_" d="M53,56.197c0-7-5.3-12.699-11.899-12.699c-6.601,0-11.9,5.699-11.9,12.699c0,0.2,0,0.301,0,0.5
					c0.3,6.5,5.5,5.4,11.9,5.4C47.6,62.097,53,63.197,53,56.197z"/>
			</defs>
			<clipPath id="SVGID_2_">
				<use xlink:href="#SVGID_1_"  overflow="visible"/>
			</clipPath>
			<path clip-path="url(#SVGID_2_)" fill="#D0CBC1" d="M41.4,61.597c11-0.2,10.3-2.8,11.399-3.4c1.101-0.6-0.399,3.2-0.399,3.2
				s-4.2,1.601-4.4,1.601s-7.6,0.199-7.6,0.199H34l-6.5-2.199l1.2-4.9c0,0,1.1,3,2,3.8C31.6,60.597,33.3,61.697,41.4,61.597z"/>
		</g>
	</g>
	<path fill="#0F2E35" d="M46.2,48.697c0-1.5-0.6-3.199-1.5-4.199s-2.2-1.2-3.6-1.2c-1.7,0-3,0.399-4,1.8c-0.601,0.9-1.2,2.5-1.2,3.7
		c0,3,2.3,5.5,5.1,5.5S46.2,51.798,46.2,48.697z"/>
	<path fill="#655643" d="M14.1,47.798c0,0,3.6-22.4,8.399-26.101c0,0,7.601,17.301-7.8,29C13.3,49.498,14.1,47.798,14.1,47.798z"/>
	<path fill="#7A6752" d="M22.7,37.097c-1.6,5.9-4.6,10.6-7.9,13c-2.1,1.5-4.399,2.1-6.5,1.5c-5.3-1.6-7.6-10.8-5-20.4
		c2.601-9.6,9-16.1,14.4-14.5c2.1,0.601,3.8,2.5,4.8,5C24,25.597,24.3,31.197,22.7,37.097z"/>
	<path fill="#655643" d="M49.7,24.897c0.6-0.5,1.9-1.6,3.1-1.6c1.301,0,2.4,1.2,3.101,1.8c0,0-1.101-2.9-3.3-2.6
		C50.2,22.697,49.7,24.897,49.7,24.897z"/>
	<path fill="#655643" d="M27.3,24.897c0.601-0.5,1.9-1.6,3.101-1.6c1.3,0,2.399,1.2,3.1,1.8c0,0-1-2.9-3.3-2.6
		C27.8,22.697,27.3,24.897,27.3,24.897z"/>
	<g>
		<path fill="#7A6752" d="M2.2,39.998c-0.1,2.5,0.5,7.699,1.5,9.899c0.3-0.399,0.4-1,0.6-1.6c0.2,1.2,0.4,2.5,1,3.5
			c0.301-0.3,0.4-1.101,0.601-1.601c0.3,0.601,0.399,1.4,0.7,2C7,51.798,7,51.097,7.5,50.597L2.2,39.998z"/>
	</g>
	<g>
		<path fill="#7A6752" d="M6.8,49.498c0.101,0.6,0.4,1.199,0.601,1.699c0.2,0.301,0.399,0.9,0.7,1.2c0.1-0.2,0.1-0.5,0.199-0.7
			c0.101-0.5,0.2-1,0.4-1.5"/>
	</g>
	<path fill="none" stroke="#EBE5D8" stroke-width="0.1668" stroke-miterlimit="10" d="M30.1,62.197c3.699,1.2,8.3,1.801,12.1,1.601
		c3.4-0.2,7.7-1.101,8.9-1.5"/>
</g>
</svg>
