<svg xmlns="http://www.w3.org/2000/svg" xmlns:xlink="http://www.w3.org/1999/xlink" version="1.0" x="0px" y="0px" viewBox="0 0 24 24" enable-background="new 0 0 24 24" xml:space="preserve"><path d="M12.2,6.6c0.3,0.2,0.6,0.9,0.2,1.6c0.9-0.8,1.3-1.8,1.3-3.1c0-1.7-1.4-3.1-3.1-3.1H5.1C3.4,2,2,3.4,2,5.1  c0,1.7,1.3,4.1,2.8,5.1c1.1,0.7,1.9,0.7,2.5,0.4c0.7-0.3,0.8-0.5,0.6-0.9C7.8,9.6,7.7,9.3,7.6,9.2C7.5,9,7.3,8.7,6.6,9  c-0.1,0-0.1,0-0.1,0c0,0.2,0.2,0.7,0.4,1C6.5,9.7,6.2,9.2,6.1,8.9C6,8.9,5.9,8.8,5.8,8.8c-1-0.7-2.1-2.5-2.1-3.6  c0-0.7,0.7-1.5,1.5-1.5h5.4c0.7,0,1.4,0.8,1.4,1.5c0,0.4-0.2,0.8-0.3,1.1C11.6,6.3,11.9,6.4,12.2,6.6z"></path><path d="M6.7,6.3C5.9,6.6,5.9,6.7,6.1,7.5C6.3,7.9,6.3,8.3,7.3,8c0,0,2-0.6,3.6,0.5c0.4,0.3,1,0.2,1.3-0.2c0.1-0.1,0.1-0.3,0.2-0.4  c0-0.3-0.1-0.7-0.4-0.9C9.5,5.4,6.8,6.3,6.7,6.3z M11.9,7.9c0,0.3-0.3,0.4-0.5,0.4c-0.3,0-0.4-0.3-0.4-0.5c0-0.3,0.3-0.4,0.5-0.4  C11.8,7.4,11.9,7.6,11.9,7.9z"></path><path d="M17.4,11.8c-0.2-0.3-0.9-0.6-1.6-0.2c0.8-0.9,1.8-1.3,3.1-1.3c1.7,0,3.1,1.4,3.1,3.1v5.4c0,1.7-1.4,3.1-3.1,3.1  c-1.7,0-4.1-1.3-5.1-2.8c-0.7-1.1-0.7-1.9-0.4-2.5c0.3-0.7,0.5-0.8,0.9-0.6c0.2,0.1,0.4,0.2,0.6,0.3c0.2,0.1,0.4,0.3,0.1,1  c0,0.1,0,0.1,0,0.1c-0.2,0-0.7-0.2-1-0.4c0.4,0.4,0.8,0.7,1.1,0.9c0,0.1,0.1,0.2,0.2,0.3c0.7,1,2.5,2.1,3.6,2.1  c0.7,0,1.5-0.8,1.5-1.5v-5.4c0-0.7-0.8-1.4-1.5-1.4c-0.4,0-0.8,0.1-1.1,0.3C17.7,12.4,17.6,12.1,17.4,11.8z"></path><path d="M16.9,12.1c-0.2-0.3-0.5-0.4-0.9-0.4c-0.1,0-0.3,0.1-0.4,0.2c-0.4,0.3-0.5,0.8-0.2,1.3c1.2,1.7,0.6,3.6,0.5,3.6  c-0.3,0.9,0.1,1,0.6,1.1c0.7,0.2,0.9,0.3,1.1-0.6C17.7,17.2,18.6,14.5,16.9,12.1z M16.6,12.5c0,0.3-0.1,0.5-0.4,0.5  c-0.3,0-0.5-0.1-0.5-0.4c0-0.3,0.1-0.5,0.4-0.5C16.4,12.1,16.6,12.2,16.6,12.5z"></path><path fill="none" stroke="#000000" stroke-width="2" stroke-miterlimit="10" d="M20,9V8c0-2.2-1.8-4-4-4h-1"></path></svg>