<svg xmlns="http://www.w3.org/2000/svg" xmlns:xlink="http://www.w3.org/1999/xlink" version="1.0" x="0px" y="0px" viewBox="0 0 24 24" enable-background="new 0 0 24 24" xml:space="preserve"><ellipse fill="none" stroke="#000000" stroke-width="2" stroke-miterlimit="10" cx="12" cy="5.5" rx="6" ry="2.5"></ellipse><path d="M18.2,4.3c-0.6,0-0.5,0.8-0.5,0.8c-0.1,0.5-0.5,2.3-5.7,2.3S6.4,5.5,6.3,5.1c0-0.4-0.1-0.8-0.5-0.8C5.3,4.3,5,5,5,5.4v2.4  c0,1.5,1.9,2.5,4.3,2.9C9.8,10.8,10,8.7,10,8.7s1.5,2.1,2,2.1s2-2.1,2-2.1s0.2,2,0.8,1.9c2.4-0.4,4.2-1.4,4.2-2.9V5.4  C19,5,18.7,4.3,18.2,4.3z"></path><ellipse transform="matrix(-0.8372 0.547 -0.547 -0.8372 41.339 23.0957)" fill="none" stroke="#000000" stroke-width="2" stroke-miterlimit="10" cx="17.2" cy="17.7" rx="3.5" ry="1.3"></ellipse><path d="M13.6,19.5c0.3-0.2,0.5,0.2,0.5,0.2c0.2,0.2,1.4,0.5,3.7-1c2.3-1.5,2.5-2.7,2.4-3c-0.2-0.2-0.2-0.5,0-0.6  c0.2-0.2,0.5-0.1,0.7,0.1l0.8,1.3c0.7,1.1-0.8,2.9-2.7,4.1s-4.2,1.9-4.9,0.8l-0.8-1.3C13.3,19.9,13.3,19.6,13.6,19.5z"></path><path fill="none" stroke="#000000" stroke-width="2" stroke-miterlimit="10" d="M16.2,16.3c0,0-0.3-3.3-3.2-3.3"></path><ellipse transform="matrix(0.8372 0.547 -0.547 0.8372 10.7841 -0.8196)" fill="none" stroke="#000000" stroke-width="2" stroke-miterlimit="10" cx="6.8" cy="17.7" rx="3.5" ry="1.3"></ellipse><path d="M10.4,19.5c-0.3-0.2-0.5,0.2-0.5,0.2c-0.2,0.2-1.4,0.5-3.7-1c-2.3-1.5-2.5-2.7-2.4-3c0.2-0.2,0.2-0.5,0-0.6  C3.5,14.9,3.2,15,3,15.2l-0.8,1.3c-0.7,1.1,0.8,2.9,2.7,4.1s4.2,1.9,4.9,0.8l0.8-1.3C10.7,19.9,10.7,19.6,10.4,19.5z"></path><path fill="none" stroke="#000000" stroke-width="2" stroke-miterlimit="10" d="M7.8,16.3c0,0,0.3-3.3,3.2-3.3"></path><rect x="10" y="7.5" width="4" height="7.5"></rect></svg>