<?xml version="1.0" encoding="utf-8"?>
<!-- Generator: Adobe Illustrator 16.0.0, SVG Export Plug-In . SVG Version: 6.00 Build 0)  -->
<!DOCTYPE svg PUBLIC "-//W3C//DTD SVG 1.1//EN" "http://www.w3.org/Graphics/SVG/1.1/DTD/svg11.dtd">
<svg version="1.1" id="Layer_1" xmlns="http://www.w3.org/2000/svg" xmlns:xlink="http://www.w3.org/1999/xlink" x="0px" y="0px"
	 width="14.4px" height="14.4px" viewBox="0 0 14.4 14.4" enable-background="new 0 0 14.4 14.4" xml:space="preserve">
<g>
	<g>
		<path fill="#292B2B" d="M8.8,8.2C9.2,8,9.6,7.8,10,7.7c0.5-0.2,0.9-0.1,1.1,0.5c0.2,0.8,0.4,1.6,0.6,2.4c0.1,0.4-0.1,0.8-0.5,0.9
			c-0.4,0.1-0.7-0.1-0.9-0.6c-0.1-0.5-0.2-1-0.4-1.5C9.4,9.5,9,9.7,8.6,10c-0.4,0.2-0.8,0.4-1.3,0.2c-0.2,0.5-0.4,1-0.7,1.5
			c-0.3,0.7-0.6,1.4-0.9,2.1c-0.2,0.4-0.5,0.6-0.8,0.5c-0.4-0.1-0.6-0.5-0.5-0.9c0-0.1,0.1-0.2,0.1-0.3c0.6-1.4,1.2-2.8,1.8-4.2
			c0.1-0.2,0.2-0.2,0.4-0.2c0.7,0,1.5,0,2.3,0C8.8,8.5,8.8,8.4,8.8,8.2c-0.9,0-1.7,0-2.6,0c0-0.7,0-1.4,0-2.1C5.8,6.3,5.4,6.5,5,6.7
			C4.5,6.9,4.3,6.8,4,6.3C3.6,5.8,3.3,5.2,2.9,4.6C2.8,4.5,2.8,4.3,2.8,4.1c0-0.2,0.2-0.4,0.4-0.5c0.3-0.1,0.5,0,0.6,0.3
			c0.3,0.4,0.5,0.8,0.8,1.2c0.1,0.1,0.2,0.3,0.3,0.4C5.3,5.3,5.7,5.2,6.1,5c0.6-0.3,1.2-0.4,1.8-0.3c0.3,0,0.4-0.1,0.5-0.3
			C9,3.4,9.6,2.5,10.1,1.6c0.1-0.2,0.3-0.4,0.6-0.3c0.3,0,0.4,0.2,0.5,0.5c0,0.2-0.1,0.4-0.2,0.6C10.4,3.4,9.7,4.5,9,5.6
			C8.9,5.7,8.9,5.9,8.9,6C8.8,6.7,8.8,7.4,8.8,8.2z"/>
		<path fill="#292B2B" d="M7.4,2.4c0.5,0,1,0.5,1,1c0,0.5-0.5,1-1,1c-0.5,0-1-0.5-1-1C6.4,2.9,6.8,2.4,7.4,2.4z"/>
		<path fill="#ED6D56" d="M5.5,0.3v4.1c0,0.3,0.5,0.3,0.5,0V0.3C6,0,5.5,0,5.5,0.3z"/>
	</g>
</g>
</svg>
