<?xml version="1.0" encoding="utf-8"?>
<!-- Generator: Adobe Illustrator 16.0.0, SVG Export Plug-In . SVG Version: 6.00 Build 0)  -->
<!DOCTYPE svg PUBLIC "-//W3C//DTD SVG 1.1//EN" "http://www.w3.org/Graphics/SVG/1.1/DTD/svg11.dtd">
<svg version="1.1" id="Layer_1" xmlns="http://www.w3.org/2000/svg" xmlns:xlink="http://www.w3.org/1999/xlink" x="0px" y="0px"
	 width="432px" height="432px" viewBox="21.2 -276.2 432 432" enable-background="new 21.2 -276.2 432 432" xml:space="preserve">
<g>
	<g>
		<path fill="#191919" stroke="#191919" stroke-width="0.25" d="M184-48.6c-0.1,0.2-0.2,0.5-0.3,0.7h130v-0.7H184z"/>
		<polygon fill="#191919" stroke="#191919" stroke-width="0.25" points="150.8,-48.6 81.6,-48.6 81.6,-47.9 151.4,-47.9 		"/>
	</g>
	<circle fill="#ED0A4B" stroke="#202020" stroke-width="0.25" cx="358.8" cy="-48.8" r="44.8"/>
	<path fill="#191919" stroke="#191919" stroke-width="0.25" d="M358.2-94.7c-25.6,0-46.4,20.8-46.4,46.4c0,25.7,20.8,46.4,46.4,46.4
		c25.7,0,46.4-20.8,46.4-46.4C404.7-74,383.9-94.7,358.2-94.7z M389.4-17.1C381.1-8.7,370-4.1,358.2-4.1c-11.8,0-22.9-4.6-31.2-12.9
		c-8.3-8.3-12.9-19.4-12.9-31.2s4.6-22.9,12.9-31.2c8.3-8.3,19.4-12.9,31.2-12.9c11.8,0,22.9,4.6,31.2,12.9
		c8.3,8.3,12.9,19.4,12.9,31.2C402.4-36.5,397.8-25.4,389.4-17.1z"/>
	<path fill="#191919" stroke="#191919" stroke-width="0.25" d="M313.7-39.7c2.4,0,5.9,0.3,7.4-0.6c1.5-0.9,2.2-2.5,2.6-3.1
		c0.5-0.6,0.9-0.8,1.1-0.8c0.2,0,0.9-0.8,1.1-1c0.2-0.2,1.2-1.5,1.8-2c0.6-0.4,2.5-1.8,3-1.8c0.6,0,3.2-0.1,3.9,0
		c0.7,0.1,1.7,0.3,2.6,0.4c0.8,0.1,1.5,0.2,2,0.1c0.6-0.1,1-0.1,1.3-0.6c0.2-0.5,0.2-2.1,0.5-2.6c0.2-0.4,0.9-1.8,1.5-3
		c0.6-1.1,1.3-2.7,1.4-3.4c0.1-0.7,0.2-1,0.3-1c0.2,0,0.4-0.8,0.4-1.2s0.4-0.4,0.4-0.4s-0.1-1.6-0.1-1.8c0-0.2,0.3-0.2,0.3-0.2
		s0.3-1.3,0.7-2c0.3-0.7,0.3-0.9,0.3-1.8c0.1-0.9,0.1-4,0.1-5.5c-0.1-1.5,0-4.8,0.1-5.1c0.1-0.3,0.6-1.7,0.9-2.2
		c0.3-0.4,1-0.9,1-0.9s0.6-0.4,0.7-1c0.1-0.5-0.3-2.5-0.2-2.6c0-0.2,0.2-2,0.2-2.8c0-0.8,0.1-2.9,0.1-3.8c0-0.8,0.6-6.2,0.8-7.8
		c0.2-1.6,0.3-2.4,0.5-3.8c0.2-1.4,0.8-5.9,0.7-7.4c-0.1-1.5-0.5-7.9-0.5-9.2c0-1.3-0.1-1.5,0.3-1.5c0.3,0,1.9,0,2.2,0
		c0.3,0,0.9-0.5,1.2-0.7c0.4-0.3,3.7-2.9,3.9-3.2c0.2-0.3,0.4-0.8,1.1-0.8c0.7,0,1,0,1.5-0.1c0.5-0.1,0.4-0.2,1-0.5
		c0.6-0.2,0.8-0.4,1.4-0.4c0.5,0,1.9,0,1.9,0s0,3.2,0.1,4.5c0,1.3,0,5.8-0.1,7.2c-0.1,1.4-0.5,5.2-0.6,6.2c-0.1,1.1-0.1,4.3-0.1,4.9
		c0.1,0.6,0.4,0.9,0.4,0.9s0,3.1,0,4.6s0.1,5.3,0.2,6.5c0.1,1.2,0.6,4.1,0.8,5.1c0.2,1,0.5,5.3,0.6,5.7c0.1,0.4,1.6,3.3,1.7,3.9
		c0.1,0.6,0.2,2-0.6,4.2c-0.8,2.2-1.6,4.6-1.9,5.8c-0.3,1.2-0.2,1-0.1,1.5c0.2,0.5,1.6,3.4,1.8,3.6c0.3,0.2,0.5,0.6,0.9,0.2
		c0.4-0.4,1-1,1.4-1.4c0.4-0.3,0.4-0.8,0.4-1c0-0.2,0.7-0.5,1.2-0.4c0.4,0,0.9-0.1,1.1-0.3c0.2-0.2,0.5-0.9,1.1-0.7
		c0.6,0.3,0.8,0.6,1,0.7c0.2,0.1,0.2,0.1,0.7,0.2c0.5,0.1,1.3,0.1,1.6,0c0.3-0.1,0.9-0.1,1.1-0.3c0.2-0.2,0.5-0.5,0.7-0.3
		c0.2,0.2,0.6,0.5,0.9,0.8c0.3,0.3,0.5,1.1,0.6,1.5c0,0.3,0.2,3,0.2,3.8c0,0.8,0.3,11.3,0.3,12.4c0,1.1,0.2,3,0.3,3.4
		c0.1,0.4,1.6,2.8,1.7,3.4c0.1,0.5,0.5,1.3,0.7,1.5c0.2,0.2,1.2,2.1,1.4,2.9c0.2,0.8,0.5,1.3,0.8,1.3c0.3,0,2.3-0.2,2.5-0.1
		c0.3,0.1,0.5,0.1,0.5,0.4c0,0.3,0,0.7,0.5,1.2c0.5,0.4,1.9,1.4,2.4,1.5c0.5,0.1,1.6,0.1,2.1,0.3c0.5,0.1,1.5,0.7,1.8,1.3
		c0.3,0.7,0.9,2.3,1.1,2.7c0.1,0.4,0.5,1.8,0.5,1.8l-3.4,5.1l-7.5,7.1l-3.4,2.8l-8.4,3.8l-8.5,2l-11.6,0.3L344-5.3l-7.5-3.4
		l-6.9-4.9l-6.4-6.2l-5.2-7.7l-3.2-7.5L313.7-39.7z"/>
	
		<path fill="#A9E22E" stroke="#191919" stroke-width="0.25" stroke-linecap="round" stroke-linejoin="round" stroke-miterlimit="20" d="
		M295,15.4c4.2-2.4,8.1-2.8,18.4-0.7c6.2,1.3,16.8,2.7,20.8,2.6c13.4-0.4,19.9-4.9,20.6-14.5c0.6-7.6,0.4-22.7,0.4-24
		c0-1.3-0.2-3.3-0.5-3.5c-0.3-0.2-0.4-2.4-0.8-2.9c-0.4-0.5-1.5-2.2-1.9-3.5c-0.5-1.3-1.6-4.5-1.9-6c-0.4-1.5-1-4.2-1-4.2
		s-0.3-0.5-0.6-0.5c-0.3,0-9.7-0.1-10.2,0c-0.5,0.1-0.8,0.2-0.9,0.4c0,0.3-1.2,3.2-1.5,3.6c-0.3,0.4-1.2,1.1-1-0.2
		c0.2-1.3,0.5-3,0.5-3.5c0-0.5-0.1-0.5-0.3-0.7c-0.3-0.2-0.3-1.1-0.4-1.4c-0.1-0.3-0.4-1.1-0.6-1.6c-0.2-0.5-3-4.7-4.3-6.2
		c-1.3-1.5-3.8-5.9-4-7.4c-0.1-1.8,0-2.4,0-2.4l0.9,3.2c0,0,1.9,3.4,3,4.7c1.2,1.3,2.9,3.8,3.2,4.1c0.3,0.3,1,1.3,0.6,0.4
		c-0.4-1-1.9-3.8-2.2-5.5c-0.2-1.2-0.2-2-0.2-2s0.3,0.4,0.7,1.4c0.8,2,2.1,4,2.6,5.1c0.8,1.7,0.5,0.5,0.3-0.5c-0.1-1-0.1-4.5,0-5.7
		c0.2-1.5,0.4-2.4,0.4-2.4s0.1,0.4,0.2,1.5c0.2,2.1,0.4,2.7,0.7,3.8c0.3,1.1,0.3,4.3,0.4,5c0.1,0.7,0.4,1.5,0.5,0.3
		c0-1.7,0.4-2.6,0.9-3.3c0.2-0.4,0.5-0.8,0.5-0.8s0.1,0.1,0,0.9c-0.3,1.5-0.4,1.9-0.4,3.2c0,1.3,0,3,0,3s10.5-0.1,11.4-0.1
		c0.9,0,1.6,0,2,0.8c0.4,0.9,1.7,2.2,2,2.9c0.3,0.7,1.4,3,2.3,4.9c0.9,1.9,1.2,1.3,0.2-1.4c-1.4-3.8-1.2-8.2-1-9.3s0.8-4.1,1.1-5.7
		c0.4-1.6,1.2-3.8,1.5-4.7c0.3-0.9,0.6-1.3,0.9-2.2c0.3-0.9-0.7-0.1-0.9,0.7c-0.2,0.8-0.4,1.7-0.5,2c-0.2,0.3-0.7,1-0.7,1.6
		c0,0.6-0.6,2.3-0.7,3c-0.1,0.7-1,3.4-1.1,4c0,0.6-0.6,1.4-0.9,0.8c-0.4-0.6-1.4-2.4-2-3.6c-0.6-1.3-1.1-3.3-1.2-3.5
		c-0.1-0.2-0.6-1-1.3-1c-0.8-0.1-1.5-0.1-2.6-0.1c-1.4-0.2-1.4-1.1,0.1-1.2c0.9-0.1,1.9,0,2.3,0c0.4-0.1,0.4-0.2,0.3-1
		c-0.1-0.8-0.4-2.4-0.6-3.4c-0.4-2,0.4-2.1,0.9-0.6c0.3,0.9,0.4,1.1,0.6,2.3c0.2,1.2,0.5,1.3,1,0.3c0.5-1,0.6-1.6,0.7-2.3
		c0.3-1.2,1.2-1.5,1,0.5c-0.1,0.9-0.3,1.6-0.5,2.2c-0.7,1.6-0.2,1.3,0.7,0.6c2.2-1.3,2.2-0.5,0.7,1.1c-0.3,0.2-1.5,1.3-0.8,2.4
		c0.7,1.2,0.6,2.8,1,1.9c0.4-0.9,1.2-2.8,1.2-3.3c0-0.5,0-2.8,0-3.4c0-0.7,0.2-1.8,0.6-2.2c0.5-0.4,1-0.7,1.6-0.8
		c0.6-0.1,0.8-0.6,0.1-0.5c-0.4,0-0.4-1,1-2.5c0.9-1.3,1.3-2.1,0.1-0.7c-1.2,1.4-2.2,2.4-2.7,2.6c-0.5,0.2-1.1-0.4-0.8-0.7
		c0.3-0.4,0.4-0.9,0.4-1.3c-0.1-0.5,0-0.9-0.1-1.2c-0.1-0.3-0.1-0.9-0.3-1.2c-0.3-0.3-0.8-0.8-0.9-1.2c-0.2-0.4-0.6-1.1-0.8-1.6
		c-0.1-0.5-0.3-1.5-0.3-1.8c0-0.3-0.4-1.6-1.4-1.9c-1.1-0.5-1.2-1.2-1.2-2c0-0.8-0.2-1.2-0.6-1.9c-0.4-0.7-0.8-0.4-1.6-3.1
		c-0.8-2.7-0.7-7.8,3.6-5.8c4.3,2,4.5,2.2,5.3,2.5c0.9,0.2,2.2,0.7,3.1,1.1c1,0.4,2.8,1.2,2.9,2.4c0.2,1.1,0.5,2.2,0.5,3.1
		c0,1,0.2,1.9,0.6,2.3c0.4,0.4,0.9,0.6,0.9,1.3c0.1,0.7,0.2,2.8,0.1,3.2c-0.1,0.4-0.2,1.8-0.2,2.1s0,0.5-0.2,0.6
		c-0.3,0.1-0.1,2.8,0.1,2.9c0.2,0.1,0.7,2.9,1,3.6c0.4,0.7,4.8,6.1,5.2,6.5c0.4,0.4,0.6,0.9,1,0.4c0.4-0.5,1.3-1.5,1.8-2.5
		c0.8-1.1,0.3-2.5-0.3-2.7c-0.6-0.2-1.1-1.3-2.9-1.8c-1.8-0.5-0.6-2.2,1.1-1.1c1.6,1.1,2.1,1.4,0.8-0.5c-0.7-0.9,0.5-1.3,1.1-0.4
		c1.2,2,1.5,1.2,1.5-0.2c0-0.9,1.1-1,1.1,0c-0.1,1.7,0.3,1.6,1.2,0.4c0.5-0.6,1.4,0.1,0.9,0.8c-0.5,0.8-2.3,3.5-2.5,3.8
		c-0.2,0.3-0.6,2.2-0.8,3c-0.1,0.8-2.9,5.6-3.3,6.2c-0.4,0.6-0.7,1.6-1.4-0.2c-0.8-1.7-2.7-5.7-3.6-7.5c-0.9-1.8-2.1-1.9-1.9,0.6
		c0.1,1.6,1.2,9.2,1.3,14c0.1,4.7-3.2,8.8-3.8,9.8c-0.6,1-1.2,2.3-1.7,4c-0.5,1.7-0.9,3,4.3,1.5c5.2-1.5,6.6-0.7,6.7,1.3
		c0,2,0.2,10.3,0.1,11.2c0.1,0.6,0.1,0.8,0.6,0.7c0.6,0,3.3,0,4.2,0c1-0.1,2.6,0,2.8-0.3c0.3-0.3,0.6-0.6,1-0.9
		c0.5-0.3,0.9-0.4,0.9,0.2c0,0.7-0.1,1.1,0.3,0.9c0.4-0.2,0.7-1,1.1-1.4c0.4-0.4,1-1.1,1.4-1.6c0.4-0.5,1.3-0.8,0.8,0.4
		c-0.4,1.2-0.9,1.5-1.2,1.8c-0.4,0.3-0.1,0.7,0.7,0.3c0.9-0.4,8.2-3.1,9.5-2.2c-0.9,0.3-2.8,1.4-3.8,1.5c-1,0.1-3.4,0.9-3.9,1
		c-1.1,0.4-2.1,0.8-0.9,0.8c1.2,0,8.9,2.2,9,2.3c-0.2,0-7-0.9-8.6-1.1c-1.6-0.2-4.8,0.3-6.3,0.7c-1.4,0.4-2.4,0.5-2.5,0.7
		c-0.2,0.3,0,0.8,0.3,1.2c0.3,0.5,0.2,5.1,0.1,5.2c-0.1-0.1-0.9-4.4-1.4-5.3c-1-1.8-2.7-2.6-3.8-2.2c-1.1,0.4-1.4,0.4-2.1,0.3
		c-0.7-0.1-1.2-1-1.3-2.1c-0.2-1.1-0.6-4.9-0.7-6c-0.1-1.1-0.3-5.1-0.3-5.5c0-0.4-0.1-0.7-0.6-0.5c-0.6,0.2-2,0.5-3,0.8
		c-0.9,0.3-2.7,0.7-3.4,1c-0.7,0.2-2.1,0.7-1.7,2.1c0.3,1.4,0.8,3.3,0.8,4.7s-1.3,4.8-1.4,6.5c-0.2,2.6,0,8.2-0.6,16.6
		c-1.3,10.7-8,14.8-22.6,15.4c-7.3,0.1-12.4,0.1-19.1-2.7c-2.8-1.2-4.8-1.5-7.3-1.9c-2.5-0.5-9.2-1.6-13.1,0.3
		c-3.9,1.9-7,3.8-7.4,3.9C288.8,19.9,290.8,17.8,295,15.4z"/>
	<path fill="#191919" stroke="#191919" stroke-width="0.25" d="M97.3-29.3c0.9,1.3,2,2.8,3.3,4.4l2.6,3.4c0.5,0.6,0.8,0.9,0.9,1
		c0.2,0.1,0.3,0.1,0.5,0.1h0.4v0.9c-0.7-0.1-1.4-0.1-2-0.1c-0.5,0-1.1,0-1.6,0.1L96.5-26c-0.9-1.2-1.9-2.4-2.9-3.5l0.1-0.5
		c0.5,0,0.9,0.1,1.2,0.1c1.5,0,2.7-0.4,3.5-1.2c0.9-0.8,1.3-1.8,1.3-3.1c0-1.2-0.4-2.1-1.1-2.7c-0.7-0.7-1.8-1-3.1-1
		c-0.9,0-1.9,0.2-2.9,0.5c-0.1,1.4-0.2,3-0.2,4.6v6.5c0,3.2,0.1,5,0.2,5.3c0.2,0.4,0.7,0.5,1.5,0.5h1.1v0.9
		c-1.5-0.1-2.7-0.1-3.7-0.1c-0.8,0-2.2,0-4.2,0.1v-0.9h1c0.8,0,1.2-0.2,1.4-0.5c0.1-0.3,0.2-2.1,0.2-5.3v-6.5c0-2.8-0.1-4.4-0.2-4.7
		C89.6-37.8,89-38,88.1-38h-0.7v-0.9c1.7,0.1,3,0.1,3.9,0.1c0.6,0,1.5,0,2.6-0.1c1.3,0,2.2-0.1,2.8-0.1c1.6,0,2.8,0.2,3.6,0.5
		c0.8,0.3,1.4,0.8,1.8,1.4c0.4,0.6,0.6,1.4,0.6,2.2c0,1.3-0.5,2.4-1.4,3.4C100.3-30.4,99-29.7,97.3-29.3z"/>
	<path fill="#191919" stroke="#191919" stroke-width="0.25" d="M112-29.7c0.3-0.6,0.7-1.1,1.3-1.5c0.6-0.4,1.2-0.5,1.9-0.5
		c0.8,0,1.5,0.2,2.2,0.7c0.6,0.5,1.2,1.2,1.6,2.2c0.4,1,0.6,2.2,0.6,3.6c0,1.7-0.3,3-1,3.8c-0.7,0.8-1.5,1.3-2.6,1.3
		c-1.4,0-2.5-0.7-3.3-2c-0.8-1.3-1.1-2.9-1.1-4.8C111.4-28,111.6-28.9,112-29.7z M110.6-21.1c1.1,1.2,2.6,1.8,4.4,1.8
		c1.9,0,3.5-0.6,4.8-1.8c1.5-1.3,2.3-3.1,2.3-5.3c0-1.9-0.6-3.4-1.7-4.6c-1.2-1.1-2.7-1.7-4.6-1.7c-1.3,0-2.5,0.3-3.6,0.9
		c-1,0.6-1.9,1.4-2.4,2.4c-0.6,1-0.9,2.1-0.9,3.4C108.9-24,109.4-22.3,110.6-21.1z"/>
	<path fill="#191919" stroke="#191919" stroke-width="0.25" d="M136.8-21.5l0.4,0.3l-0.6,0.9c-0.6,0.3-1.2,0.6-1.9,0.8
		c-0.6,0.2-1.3,0.3-2,0.3c-1.3,0-2.5-0.3-3.4-0.8c-0.9-0.5-1.6-1.2-2.1-2.2c-0.5-1-0.8-2.1-0.8-3.4c0-1.2,0.2-2.2,0.6-3
		c0.4-0.9,0.9-1.5,1.6-2c0.7-0.5,1.6-1,2.6-1.4c0.7-0.3,1.6-0.5,2.5-0.5c0.7,0,1.3,0.1,1.8,0.2c0.5,0.1,1,0.3,1.6,0.6
		c-0.2,1.2-0.4,2.4-0.4,3.6H136V-29c0-0.6-0.1-1-0.2-1.2c-0.2-0.2-0.5-0.5-1.1-0.7c-0.6-0.2-1.2-0.4-2-0.4c-1.2,0-2.2,0.4-2.8,1.1
		c-0.7,0.7-1,1.9-1,3.3c0,1.9,0.5,3.4,1.5,4.6c0.9,1,2,1.6,3.4,1.6c0.5,0,1.1-0.1,1.6-0.2C135.8-21,136.3-21.2,136.8-21.5z"/>
	<path fill="#191919" stroke="#191919" stroke-width="0.25" d="M146.1-26.3v1.7c0,2.3,0.1,3.6,0.2,3.8c0.1,0.3,0.6,0.4,1.4,0.4h0.8
		v0.8l-0.7,0c-1.3,0-2.2-0.1-2.6-0.1l-3.6,0.1v-0.8h0.8c0.7,0,1.1-0.1,1.2-0.4c0.1-0.3,0.2-1.6,0.2-3.9v-8.1c0-3-0.1-4.7-0.2-5
		c-0.1-0.2-0.4-0.3-1-0.3h-1.1v-0.8c0.8,0,1.8-0.2,3.3-0.6l1.4-0.4c0.1,0,0.2,0.1,0.2,0.3l-0.1,1.4c0,0.3-0.1,2.2-0.1,5.7v5.4
		l0.2,0.1c0.8-0.6,1.5-1.2,2.1-1.7c0.3-0.3,1-0.9,2-1.9l2-1.8h2.7v0.8h-0.5c-0.3,0-0.7,0.2-1.2,0.4c-1,0.6-2.6,1.8-4.9,3.7
		c1.7,1.8,2.7,2.8,3.1,3.2c1.8,1.7,2.9,2.6,3.3,2.9c0.2,0.2,0.4,0.3,0.6,0.4c0.2,0.1,0.4,0.1,0.7,0.1v0.6c-0.8,0.3-1.7,0.6-2.6,0.9
		c-0.5-0.4-1.8-1.6-3.8-3.6c-1.5-1.5-2.6-2.6-3.5-3.4H146.1L146.1-26.3z"/>
	<path fill="#191919" stroke="#191919" stroke-width="0.25" d="M186.3-33.9l-0.1-2.4c-0.8-0.5-1.6-0.9-2.5-1.2s-1.8-0.4-2.8-0.4
		c-2.4,0-4.4,0.7-5.9,2.2c-1.5,1.5-2.2,3.5-2.2,6c0,1.7,0.4,3.3,1.1,4.7c0.7,1.4,1.8,2.4,3.2,3.2c1.4,0.8,2.8,1.2,4.4,1.2
		c1.2,0,2.4-0.1,3.6-0.4c0.9-0.2,1.8-0.7,2.7-1.3l0.3,0.3c-0.2,0.4-0.4,0.8-0.5,1.3c-1.1,0.5-2.1,0.9-3.2,1.2
		c-1.1,0.3-2.1,0.4-3.2,0.4c-2.2,0-4.2-0.4-5.9-1.3c-1.7-0.9-3-2-3.9-3.6c-0.9-1.5-1.4-3.2-1.4-5.1c0-1.9,0.5-3.6,1.4-5.1
		c0.9-1.5,2.2-2.7,3.9-3.5c1.7-0.8,3.7-1.2,6.2-1.2c1.3,0,2.8,0.2,4.5,0.6c0.8,0.2,1.5,0.3,2.1,0.4c-0.4,1-0.6,2.3-0.7,4.1H186.3z"
		/>
	<path fill="#191919" stroke="#191919" stroke-width="0.25" d="M196.7-39.7c-0.1,2.6-0.2,5-0.2,7.2v7c0,2.8,0.1,4.3,0.2,4.7
		c0.1,0.2,0.4,0.3,0.9,0.4l1.1,0.1v0.8c-1-0.1-1.9-0.1-2.8-0.1c-1,0-2.3,0-3.9,0.1v-0.8l1.2-0.1c0.5,0,0.8-0.2,0.9-0.4
		c0.1-0.4,0.2-2,0.2-4.8v-6.9l0-2.6l0-1.8c0-0.4-0.1-0.7-0.1-0.8c-0.1-0.1-0.4-0.2-0.9-0.2H192v-0.8c1.9-0.2,3.3-0.5,4.5-1
		L196.7-39.7z"/>
	<path fill="#191919" stroke="#191919" stroke-width="0.25" d="M206.2-38.7c0.4,0,0.8,0.1,1.1,0.4c0.3,0.3,0.4,0.7,0.4,1.1
		c0,0.4-0.1,0.8-0.4,1.1c-0.3,0.3-0.7,0.4-1.1,0.4c-0.4,0-0.8-0.1-1.1-0.4c-0.3-0.3-0.4-0.7-0.4-1.1c0-0.4,0.1-0.8,0.4-1.1
		C205.4-38.5,205.8-38.7,206.2-38.7z M207.3-32.7l0.3,0.2c-0.1,0.7-0.1,1.4-0.1,2.2c-0.1,2.6-0.1,4.6-0.1,5.8c0,1.2,0,2.2,0.1,3
		c0,0.3,0.1,0.6,0.3,0.7c0.1,0.1,0.5,0.2,1,0.3l0.9,0.1v0.8c-1.3-0.1-2.5-0.1-3.6-0.1c-1.1,0-2.1,0-3.2,0.1v-0.8l1.1-0.1
		c0.4,0,0.7-0.1,0.8-0.2c0.1-0.1,0.2-0.6,0.2-1.3c0-1.1,0.1-2.7,0.1-4.7c0-1.4,0-2.5-0.1-3.2c0-0.3-0.1-0.5-0.2-0.6
		c-0.1-0.1-0.4-0.2-0.9-0.2h-1v-0.8c1.1-0.2,1.9-0.3,2.4-0.4C205.8-32.2,206.5-32.4,207.3-32.7z"/>
	<path fill="#191919" stroke="#191919" stroke-width="0.25" d="M218.2-30.2l1.8-1.6c0.3-0.3,0.6-0.4,0.9-0.6
		c0.5-0.2,0.9-0.2,1.4-0.2c1,0,1.8,0.2,2.5,0.6c0.6,0.4,1.2,1,1.7,2l1.8-1.6c0.3-0.3,0.7-0.5,1.1-0.6c0.6-0.2,1.1-0.3,1.7-0.3
		c0.8,0,1.6,0.2,2.2,0.6c0.7,0.4,1.2,0.9,1.5,1.5c0.3,0.6,0.5,1.4,0.5,2.5l-0.1,5.3c0,1.2,0.1,1.9,0.2,2.1c0.1,0.2,0.5,0.3,1.1,0.4
		l1,0v0.8l-0.7,0c-1.1,0-1.8-0.1-2.1-0.1c-0.6,0-1.2,0-2,0.1c0.1-1.7,0.2-3.6,0.2-5.9c0-1.9-0.1-3.1-0.2-3.7
		c-0.2-0.6-0.5-1.1-0.9-1.4c-0.5-0.3-1-0.5-1.7-0.5c-0.8,0-1.5,0.2-2,0.6c-0.6,0.4-0.9,0.9-1,1.5c-0.1,0.4-0.1,2-0.1,4.8
		c0,1.7,0,2.6,0,2.9c0,0.2,0.1,0.4,0.2,0.5c0.1,0.1,0.5,0.2,1.2,0.3l0.9,0.1v0.8c-1.6-0.1-2.7-0.1-3.5-0.1c-0.6,0-1.7,0-3.4,0.1
		v-0.8h0.9c0.5,0,0.9-0.1,1-0.2c0.2-0.2,0.3-0.5,0.3-1.1c0.1-1.5,0.1-3,0.1-4.6c0-1.4-0.1-2.4-0.3-3c-0.2-0.5-0.5-1-1-1.3
		c-0.5-0.3-1-0.5-1.7-0.5c-0.7,0-1.3,0.2-1.9,0.6c-0.6,0.4-1,0.9-1.2,1.4c-0.1,0.4-0.2,1.5-0.2,3.2c0,1.9,0,3.4,0.1,4.3
		c0,0.4,0.1,0.7,0.2,0.8c0.1,0.1,0.5,0.2,1.1,0.3l0.9,0.1v0.8c-1.1-0.1-2.2-0.1-3.1-0.1c-1.1,0-2.3,0-3.7,0.1v-0.8h1
		c0.6,0,0.9-0.2,1-0.5c0.1-0.3,0.2-2,0.2-5.1c0-2.2,0-3.6,0-4c0-0.4-0.1-0.7-0.2-0.8c-0.1-0.1-0.5-0.2-1.1-0.2h-0.8v-0.8
		c1.3-0.2,2.4-0.4,3.4-0.8l1-0.4c0.2,0,0.2,0.1,0.2,0.3l0,0.5C218.2-31.4,218.2-30.9,218.2-30.2z"/>
	<path fill="#191919" stroke="#191919" stroke-width="0.25" d="M245.1-27.1c0-0.9,0-1.4,0.1-1.6c0.2-0.6,0.7-1.1,1.3-1.6
		c0.7-0.5,1.4-0.7,2.2-0.7c1.2,0,2.1,0.4,2.8,1.2c0.7,0.8,1.1,2,1.1,3.6c0,1.5-0.4,2.8-1.1,3.9c-0.7,1.1-1.7,1.6-3.1,1.6
		c-0.8,0-1.5-0.2-2.1-0.6c-0.6-0.4-1-0.7-1.2-1c-0.1-0.1-0.1-0.7-0.1-1.7V-27.1L245.1-27.1z M241.7-38c0.4,0,0.7,0.1,0.8,0.2
		c0.1,0.1,0.2,0.5,0.2,1.1c0.1,1.4,0.1,2.8,0.1,4.1v8.6c0,1.5-0.1,3-0.2,4.4l0.4,0.2l1.1-1c0.6,0.4,1.1,0.8,1.7,0.9
		c0.5,0.2,1.1,0.3,1.8,0.3c0.8,0,1.4-0.1,1.9-0.4c0.3-0.1,0.9-0.6,1.9-1.3c1-0.7,1.6-1.2,1.8-1.5c0.5-0.5,0.9-1.2,1.2-2.1
		c0.3-0.9,0.5-1.8,0.5-2.7c0-1.7-0.5-3-1.4-4c-0.9-1-2.1-1.5-3.6-1.5c-0.7,0-1.3,0.1-1.8,0.3c-0.6,0.2-1,0.5-1.4,0.8l-1.6,1.7v-2.9
		c0-2,0-3.6,0-4.8c0-0.3,0-0.6,0.1-1.1l0.1-0.7c0-0.3-0.1-0.5-0.3-0.5c-0.1,0-0.2,0-0.3,0.1c-0.6,0.2-1.3,0.4-1.8,0.5
		c-0.8,0.2-1.6,0.3-2.4,0.4v0.8H241.7z"/>
	<path fill="#191919" stroke="#191919" stroke-width="0.25" d="M262.5-38.7c0.4,0,0.8,0.1,1.1,0.4c0.3,0.3,0.4,0.7,0.4,1.1
		c0,0.4-0.1,0.8-0.4,1.1c-0.3,0.3-0.7,0.4-1.1,0.4c-0.4,0-0.8-0.1-1.1-0.4c-0.3-0.3-0.5-0.7-0.5-1.1c0-0.4,0.1-0.8,0.5-1.1
		C261.7-38.5,262.1-38.7,262.5-38.7z M263.5-32.7l0.3,0.2c-0.1,0.7-0.1,1.4-0.1,2.2c-0.1,2.6-0.1,4.6-0.1,5.8c0,1.2,0,2.2,0.1,3
		c0,0.3,0.1,0.6,0.3,0.7c0.1,0.1,0.5,0.2,1,0.3l0.9,0.1v0.8c-1.3-0.1-2.5-0.1-3.6-0.1c-1.1,0-2.1,0-3.2,0.1v-0.8l1.1-0.1
		c0.4,0,0.7-0.1,0.8-0.2c0.1-0.1,0.2-0.6,0.2-1.3c0-1.1,0.1-2.7,0.1-4.7c0-1.4,0-2.5-0.1-3.2c0-0.3-0.1-0.5-0.2-0.6
		c-0.1-0.1-0.4-0.2-0.9-0.2h-1v-0.8c1.1-0.2,1.9-0.3,2.4-0.4C262.1-32.2,262.7-32.4,263.5-32.7z"/>
	<path fill="#191919" stroke="#191919" stroke-width="0.25" d="M274.2-30.1l2.1-1.8c0.2-0.2,0.5-0.4,0.8-0.5
		c0.6-0.2,1.2-0.3,1.8-0.3c1,0,1.8,0.2,2.5,0.6c0.7,0.4,1.2,0.9,1.5,1.5c0.3,0.6,0.5,1.6,0.5,2.9l-0.1,4.3c0,1.5,0.1,2.3,0.2,2.5
		c0.2,0.3,0.5,0.4,1,0.4h1v0.8c-1-0.1-1.8-0.1-2.5-0.1c-0.7,0-1.4,0-2.2,0.1c0.2-1.8,0.2-4.2,0.2-7.2c0-1.2-0.1-2.1-0.3-2.6
		c-0.2-0.5-0.6-0.9-1.1-1.2c-0.5-0.3-1.1-0.5-1.8-0.5c-0.9,0-1.6,0.2-2.2,0.7c-0.6,0.4-1,0.9-1.1,1.5c-0.1,0.4-0.1,1.3-0.1,2.8
		c0,1.7,0,3.2,0,4.6c0,0.4,0.1,0.7,0.2,0.8c0.2,0.2,0.6,0.3,1.1,0.3h1v0.8c-1.5-0.1-2.7-0.1-3.6-0.1c-1,0-2,0-3.3,0.1v-0.8h1
		c0.7,0,1.1-0.2,1.2-0.5c0.1-0.3,0.2-2.2,0.2-5.6c0-1.5,0-2.7-0.1-3.6c0-0.3-0.1-0.5-0.2-0.6s-0.5-0.2-1.1-0.2h-1v-0.8
		c0.8-0.1,1.5-0.2,2.1-0.4c0.6-0.2,1.3-0.4,2.1-0.7c0.1,0,0.2-0.1,0.2-0.1c0.1,0,0.2,0.1,0.2,0.3l0,0.5L274.2-30.1z"/>
	<path fill="#191919" stroke="#191919" stroke-width="0.25" d="M297.5-25.5c-0.5,0.6-1.2,0.9-2.1,0.9c-0.9,0-1.6-0.3-2.2-1
		c-0.6-0.7-0.9-1.6-0.9-2.8c0-1,0.3-1.8,0.8-2.4c0.5-0.6,1.2-0.8,2.1-0.8c0.9,0,1.6,0.3,2.2,1c0.6,0.7,0.9,1.6,0.9,2.7
		C298.3-26.9,298.1-26.1,297.5-25.5z M302.9-30.2c0.2-0.4,0.4-0.8,0.7-1.2l-0.1-0.3c-0.7,0.1-1.6,0.1-2.7,0.1h-1.1
		c-0.5-0.4-1.1-0.7-1.6-0.9c-0.5-0.2-1.1-0.3-1.8-0.3c-1.1,0-2.2,0.3-3.4,0.8c-0.9,0.4-1.6,1-2.1,1.8c-0.5,0.8-0.7,1.6-0.7,2.5
		c0,1,0.3,1.9,0.9,2.6c0.5,0.5,1.3,0.9,2.3,1.2L292-23c-0.5,0.3-0.8,0.6-0.9,0.8c-0.2,0.4-0.3,0.7-0.3,1.1c0,0.3,0.1,0.6,0.3,0.8
		c0.2,0.2,0.7,0.4,1.4,0.7c-0.6,0.5-1.4,0.9-2.4,1.3c-0.5,0.8-0.8,1.5-0.8,2.2c0,1.2,0.5,2.2,1.5,3c1,0.8,2.4,1.2,4.3,1.2
		c1.5,0,2.9-0.3,4.1-0.8c1.2-0.6,2.1-1.3,2.7-2.2c0.6-0.9,0.9-1.9,0.9-2.9c0-0.7-0.1-1.4-0.4-1.9c-0.3-0.6-0.6-1-1-1.2
		c-0.4-0.2-0.9-0.3-1.6-0.3c-0.5,0-1.3,0-2.4,0.1c-0.8,0-1.4,0-1.8,0c-1.1,0-1.8-0.1-2.2-0.3c-0.3-0.2-0.5-0.5-0.5-0.8
		c0-0.2,0.1-0.4,0.2-0.6c0.2-0.2,0.5-0.5,1.1-1h0.6c1,0,2-0.2,2.9-0.7c0.9-0.5,1.6-1.1,2.1-1.8c0.5-0.8,0.7-1.5,0.7-2.3
		c0-0.4-0.1-0.9-0.3-1.4L302.9-30.2L302.9-30.2z M297.8-19.4c0.7,0,1.2,0,1.4,0.1c0.4,0.1,0.8,0.4,1.1,0.9c0.3,0.4,0.4,1,0.4,1.6
		c0,0.7-0.2,1.4-0.6,2c-0.4,0.6-1,1.2-1.8,1.5c-0.8,0.4-1.6,0.6-2.6,0.6c-1.3,0-2.3-0.3-3-1c-0.7-0.6-1.1-1.5-1.1-2.5
		c0-0.7,0.1-1.3,0.4-1.8c0.2-0.3,0.6-0.7,1.4-1.2c0.2-0.1,0.7-0.2,1.3-0.2H297.8z"/>
	<path fill="#191919" stroke="#191919" stroke-width="0.25" d="M164.4-7.8l-0.1-2.4c-0.8-0.5-1.6-0.9-2.5-1.2
		c-0.9-0.3-1.8-0.4-2.8-0.4c-2.4,0-4.4,0.7-5.9,2.2c-1.5,1.5-2.2,3.5-2.2,6c0,1.7,0.4,3.3,1.1,4.7c0.7,1.4,1.8,2.4,3.2,3.2
		c1.4,0.8,2.8,1.2,4.4,1.2c1.2,0,2.4-0.1,3.6-0.4c0.9-0.2,1.8-0.7,2.7-1.3l0.3,0.3c-0.2,0.4-0.4,0.8-0.5,1.3
		c-1.1,0.5-2.1,0.9-3.2,1.2c-1.1,0.3-2.1,0.4-3.2,0.4c-2.2,0-4.2-0.4-5.9-1.3c-1.7-0.9-3-2-3.9-3.6c-0.9-1.5-1.4-3.2-1.4-5.1
		s0.5-3.6,1.4-5.1c0.9-1.5,2.2-2.7,3.9-3.5c1.7-0.8,3.7-1.2,6.2-1.2c1.3,0,2.8,0.2,4.5,0.6c0.9,0.2,1.5,0.4,2.1,0.4
		c-0.4,1-0.6,2.3-0.7,4.1H164.4L164.4-7.8z"/>
	<path fill="#191919" stroke="#191919" stroke-width="0.25" d="M173.7-4.5c0.6-0.7,1.4-1.1,2.4-1.1c0.7,0,1.2,0.1,1.7,0.4
		c0.5,0.3,0.8,0.7,1,1.1c0.3,0.7,0.5,1.5,0.5,2.3V-1c-0.6,0.1-1.3,0.1-2,0.1c-1.7,0-3.2,0-4.6-0.1C172.8-2.6,173.1-3.7,173.7-4.5z
		 M176.2,0c1.7,0,3.1,0,4-0.1c0.5,0,1.1-0.1,1.7-0.3l0-0.8c0-1.7-0.5-3-1.4-3.9c-0.9-0.9-2.2-1.4-3.8-1.4c-1.1,0-2.1,0.3-3.3,0.9
		c-1.1,0.6-1.9,1.3-2.3,2c-0.6,1.1-0.9,2.4-0.9,3.9c0,2,0.6,3.6,1.7,4.7c1.1,1.2,2.6,1.7,4.4,1.7c0.8,0,1.7-0.1,2.5-0.3
		c0.8-0.2,1.6-0.5,2.3-1l0.4-1.1l-0.2-0.2c-0.6,0.4-1.2,0.7-1.9,0.9c-0.6,0.2-1.2,0.3-1.9,0.3c-1.4,0-2.5-0.5-3.4-1.4
		c-0.9-0.9-1.3-2.3-1.4-4.1L176.2,0L176.2,0z"/>
	<path fill="#191919" stroke="#191919" stroke-width="0.25" d="M190.3-3.9l2.1-1.8c0.2-0.2,0.5-0.4,0.8-0.5c0.6-0.2,1.2-0.3,1.8-0.3
		c1,0,1.8,0.2,2.5,0.6c0.7,0.4,1.2,0.9,1.5,1.5c0.3,0.6,0.5,1.6,0.5,2.9l-0.1,4.3c0,1.5,0.1,2.3,0.2,2.5c0.2,0.3,0.5,0.4,1,0.4h1
		v0.8c-1-0.1-1.8-0.1-2.5-0.1c-0.7,0-1.4,0-2.2,0.1c0.2-1.8,0.2-4.2,0.2-7.2c0-1.2-0.1-2.1-0.3-2.6c-0.2-0.5-0.6-0.9-1.1-1.2
		c-0.5-0.3-1.1-0.5-1.8-0.5c-0.9,0-1.6,0.2-2.2,0.7c-0.6,0.4-1,0.9-1.1,1.5c-0.1,0.4-0.1,1.3-0.1,2.8c0,1.7,0,3.2,0,4.6
		c0,0.4,0.1,0.7,0.2,0.8c0.2,0.2,0.6,0.3,1.1,0.3h1v0.8c-1.5-0.1-2.7-0.1-3.6-0.1c-1,0-2,0-3.3,0.1V5.8h1c0.7,0,1.1-0.2,1.2-0.5
		c0.1-0.3,0.2-2.2,0.2-5.6c0-1.5,0-2.7-0.1-3.6c0-0.3-0.1-0.5-0.2-0.6c-0.1-0.1-0.5-0.2-1.1-0.2h-1v-0.8c0.8-0.1,1.5-0.2,2.1-0.4
		c0.6-0.2,1.3-0.4,2.1-0.7c0.1,0,0.2-0.1,0.2-0.1c0.1,0,0.2,0.1,0.2,0.3l0,0.5L190.3-3.9z"/>
	<path fill="#191919" stroke="#191919" stroke-width="0.25" d="M209.4-4.1v5.3c0,1.4,0,2.3,0.1,2.7c0.1,0.4,0.3,0.7,0.5,0.9
		c0.3,0.2,0.6,0.3,1,0.3c0.3,0,0.5-0.1,0.8-0.2c0.2-0.1,0.5-0.3,0.7-0.5L213,5l-1.3,1.5c-0.3,0.1-0.6,0.2-0.8,0.2
		c-0.3,0.1-0.5,0.1-0.8,0.1c-0.7,0-1.2-0.1-1.7-0.4c-0.5-0.2-0.8-0.6-1-0.9c-0.2-0.4-0.3-1-0.3-1.7l0.1-2.6v-5.2
		c-0.7,0-1.4,0-2.2,0.1v-0.6c0.8-0.3,1.5-0.6,2.2-0.9c0-1.3,0-2.7-0.1-4.2c1-0.4,1.8-0.8,2.2-1.1l0.3,0.3c-0.1,0.7-0.1,2.4-0.2,5
		c1.1,0,2,0,2.7,0l1.1-0.1L213-4.1l-0.5,0l-2.6,0H209.4L209.4-4.1z"/>
	<path fill="#191919" stroke="#191919" stroke-width="0.25" d="M220.6-4.5c0.6-0.7,1.4-1.1,2.4-1.1c0.7,0,1.2,0.1,1.7,0.4
		c0.5,0.3,0.8,0.7,1,1.1c0.3,0.7,0.5,1.5,0.5,2.3V-1c-0.6,0.1-1.3,0.1-2,0.1c-1.7,0-3.2,0-4.6-0.1C219.7-2.6,220-3.7,220.6-4.5z
		 M223,0c1.7,0,3.1,0,4-0.1c0.5,0,1.1-0.1,1.7-0.3l0-0.8c0-1.7-0.5-3-1.4-3.9c-0.9-0.9-2.2-1.4-3.8-1.4c-1.1,0-2.1,0.3-3.3,0.9
		c-1.1,0.6-1.9,1.3-2.3,2c-0.6,1.1-0.9,2.4-0.9,3.9c0,2,0.6,3.6,1.7,4.7c1.1,1.2,2.6,1.7,4.4,1.7c0.8,0,1.7-0.1,2.5-0.3
		c0.8-0.2,1.6-0.5,2.3-1l0.4-1.1l-0.2-0.2c-0.6,0.4-1.2,0.7-1.9,0.9c-0.6,0.2-1.2,0.3-1.9,0.3c-1.4,0-2.5-0.5-3.4-1.4
		c-0.9-0.9-1.3-2.3-1.4-4.1L223,0L223,0z"/>
	<path fill="#191919" stroke="#191919" stroke-width="0.25" d="M237.5-3.4c0.4-0.3,0.8-0.8,1.2-1.4c0.5-0.7,1-1.1,1.4-1.4
		c0.4-0.2,0.9-0.4,1.4-0.4c0.5,0,0.9,0.1,1.1,0.2c0.1,0.1,0.2,0.1,0.2,0.3l0,0.1c-0.1,0.7-0.2,1.8-0.2,3.1h-0.6
		c-0.2-0.4-0.5-0.8-0.7-1c-0.3-0.2-0.6-0.3-1-0.3c-0.5,0-1,0.2-1.5,0.5c-0.5,0.4-0.8,0.9-0.9,1.5c-0.2,0.6-0.2,1.9-0.2,3.8
		c0,1.3,0,2.3,0.1,3.2c0,0.3,0.1,0.5,0.3,0.6c0.3,0.2,0.8,0.3,1.5,0.3h0.8v0.8c-1.4-0.1-2.7-0.1-3.9-0.1c-1.2,0-2.4,0-3.6,0.1V5.8
		l1.3-0.1c0.5,0,0.7-0.1,0.9-0.3c0.1-0.1,0.2-0.6,0.2-1.3c0.1-1.3,0.1-2.8,0.1-4.6c0-2.2-0.1-3.4-0.3-3.8c-0.1-0.2-0.5-0.4-1.1-0.4
		h-1.1v-0.8c0.9-0.1,1.7-0.2,2.3-0.4c0.7-0.2,1.3-0.4,1.8-0.6c0.1-0.1,0.2-0.1,0.3-0.1c0.1,0,0.2,0,0.2,0.1s0.1,0.2,0.1,0.4
		L237.5-3.4z"/>
	<path fill="#191919" stroke="#202020" stroke-width="0.5" d="M111.3-74.8c-1.9,0.3-3.7,0.5-5.2,0.7c0.8-3.5,1.8-6.7,2.7-9.3
		C109.6-81,110.5-78,111.3-74.8z M129.1-58.5c0,0-9.5-20.6-13.2-41.1c0,0-4.4,0.7-7.1,0.7s-7.1-0.7-7.1-0.7
		c-3.7,20.5-13.2,41.1-13.2,41.1c7.2,0.2,14.4,2.6,14.4,2.6c0.4-3.4,0.9-7.3,1.7-11.2c3.1,0,6.2,0.4,8.6,0.7
		c0.7,3.6,1.2,7.3,1.6,10.5C114.7-55.9,121.9-58.3,129.1-58.5z"/>
	<path fill="#191919" stroke="#202020" stroke-width="0.5" d="M138-87.1c-3.4,0-6.1-2.8-6.1-6.3c0-3.6,2.8-6.6,6.4-6.6
		c3.3,0,6.3,2.5,6.3,5.8C144.6-90.5,141.7-87.1,138-87.1z M131.5-56.6c0,0,1.9-14.6,0-29.5c0,0,6.1,1,13.1-0.2
		c0,0-3.2,15.1,0.1,29.2C144.7-57.1,137.9-57.5,131.5-56.6z"/>
	<path fill="#191919" stroke="#202020" stroke-width="0.5" d="M170.8-68.4c-1.1,0.9-3.4,2.1-4.8,2.1c-2.4,0-4.2-1-4.2-3.4
		c0-5.4,5.8-7.8,8.6-7.7C170.7-74.5,170.8-71.4,170.8-68.4z M181.1-85.4c-2.8-0.8-6.7-1.1-10.7-1C163-86.3,151-80.1,151-68.7
		c0,7.9,5.1,12.1,11.2,12.1c3.2,0,6.4-1.2,8.9-3.2c-0.2,6.6-8.5,10.4-13.3,10.7l7,10.5c8.9-3.1,16.3-9.9,16.3-23
		C181-68.9,180.4-75.2,181.1-85.4z"/>
	<path fill="#191919" stroke="#202020" stroke-width="0.5" d="M203.9-56.6l-0.2-4.5c-2.9,4.1-7.6,4.6-9.6,4.6
		c-6.5,0-8.8-6.8-8.8-13.6c0-6.3-0.2-9.1-0.8-16.3c4.7,0.4,8.5,0.4,12.4-0.2c0,0-0.9,13.3-0.9,16.1c0,1.4-0.2,3.4,2.2,3.4
		c1.4,0,4-2.1,4.8-4.8c0.1-5.1,0-7.5-0.6-14.7c4.7,0.4,8.5,0.4,12.4-0.2c0,0-1.6,7.8,0.3,29C215.1-57.8,209.8-58.2,203.9-56.6z"/>
	<path fill="#191919" stroke="#202020" stroke-width="0.5" d="M226.6-87.1c-3.4,0-6.1-2.8-6.1-6.3c0-3.6,2.8-6.6,6.4-6.6
		c3.3,0,6.3,2.5,6.3,5.8C233.2-90.5,230.3-87.1,226.6-87.1z M220.2-56.6c0,0,1.9-14.6,0-29.5c0,0,6.1,1,13.1-0.2
		c0,0-3.2,15.1,0.1,29.2C233.3-57.1,226.5-57.5,220.2-56.6z"/>
	<path fill="#191919" stroke="#202020" stroke-width="0.5" d="M239.6-56.1c0,0,1.9-22.6,0-43.9c0,0,6.1,1.4,13.1-0.4
		c0,0-3.2,23.3,0.1,43.5C252.7-56.8,245.9-57.5,239.6-56.1z"/>
	<path fill="#191919" stroke="#202020" stroke-width="0.5" d="M259-56.1c0,0,1.9-22.6,0-43.9c0,0,6.1,1.4,13.1-0.4
		c0,0-3.2,23.3,0.1,43.5C272.1-56.8,265.3-57.5,259-56.1z"/>
	<path fill="#191919" stroke="#202020" stroke-width="0.5" d="M294.3-75.3l-6.8,3c-0.2-0.7-0.4-1.4-0.4-2.1c0-2,1.1-4,3.6-4
		C292.5-78.4,293.6-77.2,294.3-75.3z M304.4-73.5c0.3-7.6-6.1-14.3-14-14.2c-4.7,0.1-13.8,3.9-13.8,14.8c0,13.5,15.4,16.5,21.3,17.4
		c1.1-4.2,4-9.9,4-9.9c-4.5,0.4-8-0.6-10.5-2.3L304.4-73.5z"/>
	<path fill="#191919" d="M370,6.8h5.8v0.9h-2.4V14h-1V7.7H370V6.8z"/>
	<path fill="#191919" d="M382.6,14V9.8c0-0.2,0-1.1,0-1.8h0l-2,6h-1l-2-6h0c0,0.7,0,1.6,0,1.8V14h-0.9V6.8h1.4l2,6h0l2-6h1.4V14
		H382.6z"/>
</g>
</svg>
