<svg xmlns="http://www.w3.org/2000/svg" xmlns:xlink="http://www.w3.org/1999/xlink" version="1.0" x="0px" y="0px" viewBox="0 0 24 24" enable-background="new 0 0 24 24" xml:space="preserve"><ellipse fill="none" stroke="#000000" stroke-width="2" stroke-miterlimit="10" cx="10" cy="7.5" rx="6" ry="2.5"></ellipse><path d="M18,16.8c0,1.6-0.5,5.2-5,5.2c-2.3,0-5.1,0-6.4,0c-3,0-4.5-3.2-4.5-5.6s1.3-3.9,1-8.9c3.2,3.4,13.4,3.3,14,0l0,3  c-3.4,1.5-6.9,2-11.9,0.7c3.7,3.2,9.8,1.5,12.3,0.6C17.5,13.3,18,14.2,18,16.8z"></path><path fill="none" stroke="#000000" stroke-width="2" stroke-linejoin="round" stroke-miterlimit="10" d="M18,9c6.5,0-0.5,12,4,12"></path><path fill="none" stroke="#000000" stroke-width="2" stroke-linecap="round" stroke-linejoin="round" stroke-miterlimit="10" d="  M15,5.6c0,0,0-1.7,0-2.1C15,2.7,14.3,2,13.5,2S12,2.7,12,3.5c0,0.4,0,0.9,0,1.3"></path><path fill="none" stroke="#000000" stroke-width="2" stroke-linecap="round" stroke-linejoin="round" stroke-miterlimit="10" d="  M5,5.6c0,0,0-1.7,0-2.1C5,2.7,5.7,2,6.5,2S8,2.7,8,3.5c0,0.4,0,0.9,0,1.3"></path></svg>