<?xml version="1.0" encoding="utf-8"?>
<!-- Generator: Adobe Illustrator 16.0.0, SVG Export Plug-In . SVG Version: 6.00 Build 0)  -->
<!DOCTYPE svg PUBLIC "-//W3C//DTD SVG 1.1//EN" "http://www.w3.org/Graphics/SVG/1.1/DTD/svg11.dtd">
<svg version="1.1" id="Layer_1" xmlns="http://www.w3.org/2000/svg" xmlns:xlink="http://www.w3.org/1999/xlink" x="0px" y="0px"
	 width="45.9px" height="46.1px" viewBox="0 0 45.9 46.1" enable-background="new 0 0 45.9 46.1" xml:space="preserve">
<path fill="#F1F2F2" d="M21.9,36.6v4.6c0,0,0,0.1,0,0.1c0,0,0,0.1,0,0.1c0,1.5,1.2,2.7,2.7,2.7h18.6c0.2,0,0.4-0.1,0.6-0.3
	c1.2-0.3,2.1-1.3,2.1-2.6v-4.6c0-0.4-0.3-0.8-0.8-0.8H22.7C22.3,35.9,21.9,36.2,21.9,36.6z"/>
<path fill="#F1F2F2" d="M16.6,4.1V10c0,0.2,0.1,0.5,0.3,0.6l5.3,4.1c0.1,0.1,0.3,0.2,0.4,0.2l3.9,0.1v0.4l-1,0.2
	c-0.4,0.1-0.6,0.5-0.6,0.9l1.3,6.3c0,0.2,0.2,0.4,0.4,0.5l1.7,0.8l0.7,5.7l-6.5,1.2c-0.4,0.1-0.6,0.4-0.6,0.7v2
	c0,0.4,0.3,0.8,0.8,0.8h22.5c0.4,0,0.8-0.3,0.8-0.8v-1.6c0-0.3-0.2-0.6-0.5-0.7l-3-1.2l-3.2-14.9h5.9c0.4,0,0.8-0.3,0.8-0.8V2.4
	c0-0.4-0.3-0.8-0.8-0.8H22.7c-0.1,0-0.2,0-0.2,0l-5.3,1.8C16.8,3.5,16.6,3.8,16.6,4.1z"/>
<path fill="#F1F2F2" d="M11.1,4.1v5.5c0,0.4,0.3,0.8,0.8,0.8h2.9c0.4,0,0.8-0.3,0.8-0.8V4.1c0-0.4-0.3-0.8-0.8-0.8h-2.9
	C11.5,3.4,11.1,3.7,11.1,4.1z"/>
<path fill="#F1F2F2" d="M0.1,6.9c0,0.4,0.3,0.8,0.7,0.8l8,0v0.5C8.9,8.6,9.2,9,9.6,9c0.4,0,0.8-0.3,0.8-0.8V5.6
	c0-0.4-0.3-0.8-0.8-0.8c-0.4,0-0.8,0.3-0.8,0.8v0.5l-8,0c0,0,0,0,0,0C0.4,6.1,0.1,6.5,0.1,6.9z"/>
</svg>
