<?xml version="1.0" encoding="utf-8"?>
<!-- Generator: Adobe Illustrator 16.0.0, SVG Export Plug-In . SVG Version: 6.00 Build 0)  -->
<!DOCTYPE svg PUBLIC "-//W3C//DTD SVG 1.1//EN" "http://www.w3.org/Graphics/SVG/1.1/DTD/svg11.dtd">
<svg version="1.1" id="Layer_1" xmlns="http://www.w3.org/2000/svg" xmlns:xlink="http://www.w3.org/1999/xlink" x="0px" y="0px"
	 width="6.741px" height="6.878px" viewBox="0 0 6.741 6.878" enable-background="new 0 0 6.741 6.878" xml:space="preserve">
<g id="wrench">
	<path  fill="#FFF" d="M3.169,6.633c0,0,0.026,0.069,0.147,0.069S3.49,6.629,3.49,6.629l0.017-3.717c0,0-0.07,0.041-0.169,0.041
		s-0.16-0.039-0.16-0.039L3.169,6.633z"/>
	<path fill="#FFF" d="M3.535,2.844V1.857c0,0,0-0.328-0.197-0.546C3.117,1.068,2.733,1.067,2.733,1.067L0.938,1.069
		c0,0-0.199-0.042-0.225-0.207C0.688,0.698,0.938,0.646,0.938,0.646h4.933c0,0,0.172,0.043,0.173,0.165
		c0,0.208-0.165,0.225-0.165,0.225L3.925,1.044c0,0-0.122,0-0.122,0.217c0,0.199,0.122,0.207,0.122,0.207h1.92
		c0,0,0.623,0.009,0.623-0.64c0-0.71-0.589-0.649-0.589-0.649L1.068,0.177c0,0-0.809-0.034-0.796,0.66
		c0.012,0.648,0.649,0.7,0.649,0.7h1.541c0,0,0.398-0.009,0.519,0.113c0.121,0.12,0.156,0.177,0.156,0.336
		c0,0.162,0.008,0.857,0.008,0.857s0.046,0.068,0.193,0.068C3.485,2.912,3.535,2.844,3.535,2.844z"/>
</g>
</svg>
