<?xml version="1.0" encoding="utf-8"?>
<!-- Generator: Adobe Illustrator 16.0.0, SVG Export Plug-In . SVG Version: 6.00 Build 0)  -->
<!DOCTYPE svg PUBLIC "-//W3C//DTD SVG 1.1//EN" "http://www.w3.org/Graphics/SVG/1.1/DTD/svg11.dtd">
<svg version="1.1" id="Layer_1" xmlns="http://www.w3.org/2000/svg" xmlns:xlink="http://www.w3.org/1999/xlink" x="0px" y="0px"
	 width="14.4px" height="14.4px" viewBox="0 0 14.4 14.4" enable-background="new 0 0 14.4 14.4" xml:space="preserve">
<path fill="#ED6D56" d="M3.201,2.674c0.531-0.011,1.014,0.464,1.023,1.01c0.012,0.536-0.458,1.019-1.002,1.031
	c-0.531,0.012-1.015-0.464-1.024-1.01C2.188,3.171,2.662,2.684,3.201,2.674z"/>
<path fill="#ED6D56" d="M11.401,10.136c0.531-0.011,1.014,0.464,1.023,1.01c0.012,0.536-0.458,1.019-1.002,1.031
	c-0.531,0.012-1.015-0.464-1.024-1.01C10.388,10.634,10.862,10.147,11.401,10.136z"/>
<g>
	<g>
		<path fill="#292B2B" d="M8.848,8.145c0.401-0.187,0.76-0.353,1.116-0.519c0.507-0.232,0.908-0.055,1.052,0.491
			c0.207,0.795,0.401,1.59,0.592,2.387c0.104,0.433-0.086,0.783-0.453,0.884c-0.396,0.104-0.736-0.115-0.857-0.574
			c-0.131-0.494-0.25-0.994-0.381-1.521c-0.47,0.221-0.923,0.417-1.359,0.641c-0.42,0.217-0.842,0.371-1.331,0.229
			C7,10.682,6.786,11.178,6.571,11.672c-0.305,0.701-0.605,1.404-0.912,2.105c-0.188,0.434-0.468,0.58-0.844,0.457
			c-0.396-0.131-0.626-0.541-0.529-0.941c0.022-0.098,0.056-0.19,0.094-0.28c0.604-1.396,1.213-2.794,1.81-4.191
			c0.08-0.187,0.176-0.25,0.379-0.246C7.313,8.586,8.059,8.578,8.82,8.578c0-0.139,0-0.248,0-0.397c-0.833,0-1.665,0-2.523,0
			c0-0.7,0-1.362,0-2.063C5.843,6.296,5.427,6.46,5.01,6.623C4.507,6.82,4.319,6.759,4.017,6.3C3.646,5.736,3.266,5.177,2.909,4.603
			C2.817,4.451,2.757,4.249,2.765,4.075C2.779,3.833,2.957,3.669,3.2,3.617C3.456,3.56,3.663,3.663,3.806,3.873
			c0.26,0.379,0.508,0.767,0.761,1.15c0.089,0.134,0.179,0.269,0.271,0.414c0.415-0.164,0.825-0.303,1.216-0.484
			C6.638,4.679,7.242,4.538,7.884,4.61C8.141,4.639,8.285,4.541,8.42,4.317c0.558-0.927,1.136-1.84,1.703-2.758
			c0.142-0.227,0.328-0.368,0.603-0.321c0.256,0.045,0.448,0.209,0.465,0.461c0.012,0.182-0.06,0.393-0.154,0.553
			c-0.678,1.116-1.377,2.221-2.059,3.333C8.902,5.708,8.857,5.869,8.855,6.01C8.842,6.705,8.848,7.399,8.848,8.145z"/>
		<path fill="#292B2B" d="M7.388,2.361C7.92,2.35,8.402,2.825,8.412,3.371C8.424,3.907,7.954,4.389,7.41,4.402
			c-0.531,0.012-1.015-0.464-1.024-1.01C6.376,2.858,6.849,2.372,7.388,2.361z"/>
	</g>
</g>
</svg>
