<svg xmlns="http://www.w3.org/2000/svg" xmlns:xlink="http://www.w3.org/1999/xlink" version="1.0" x="0px" y="0px" viewBox="0 0 24 24" enable-background="new 0 0 24 24" xml:space="preserve"><path d="M4.9,16.5c0.5,0.7,2.6,5.5,6,5.5c3.2,0,2.4-6.2,3.4-8.3C16.2,9.6,22,8.3,22,3.8c0-1-0.8-1.8-2.5-1.8c-0.7,0-1.7,0.3-1.7,0.3  c2.6,2.5-5.9,5.3-4.9,9.2c-4.1-3.7,7.8-8.5,2.9-8.6C10.2,4.6,6,9,6,9s0.3,1.3,2.5,1.3c2.4,0,1.4,1.9,0.4,4.1  C8,16.2,6.8,17.2,4.9,16.5z"></path><path fill="none" stroke="#000000" stroke-width="2" stroke-linejoin="round" stroke-miterlimit="10" d="M3,14  c0,3.6,2.9,3.1,4.9,5.3"></path></svg>