<?xml version="1.0" encoding="utf-8"?>
<!-- Generator: Adobe Illustrator 16.0.0, SVG Export Plug-In . SVG Version: 6.00 Build 0)  -->
<!DOCTYPE svg PUBLIC "-//W3C//DTD SVG 1.1//EN" "http://www.w3.org/Graphics/SVG/1.1/DTD/svg11.dtd">
<svg version="1.1" id="Layer_1" xmlns="http://www.w3.org/2000/svg" xmlns:xlink="http://www.w3.org/1999/xlink" x="0px" y="0px"
	 width="21.5px" height="21.5px" viewBox="0 0 21.5 21.5" enable-background="new 0 0 21.5 21.5" xml:space="preserve">
<g>
	<path fill="#F57F20" d="M3.062,5.6c0.7,0,1.4,0.2,2,0.5c0.601,0.1,1.101,0.3,1.5,0.7c0.101,0,0.101,0.1,0.2,0.2
		c0.3,0.1,0.6,0.3,0.8,0.6c0.3,0.4,0.4,0.9,0.4,1.4c0.399,0.8,0.7,1.6,1.2,2.4c0.1,0.3,0.199,0.6,0.1,0.899c0.1,0,0.3-0.1,0.4-0.1
		l0,0l0,0l0,0c0,0,0.1,0,0.199,0c0.101-0.101,0.2-0.2,0.3-0.3c0.1,0,0.1-0.101,0.1-0.101c0.1,0,0.2,0,0.2-0.1h0.1c0.1,0,0.1,0,0.1,0
		c0.1-0.101,0.1-0.101,0.1-0.101l0,0c0-0.1,0.1-0.1,0.1-0.1l0.1-0.1c0.3-0.3,0.399-0.601,0.6-0.9c0.101-0.1,0.101-0.2,0.2-0.3
		c0.2-0.7,0.2-1.4,0.2-2.1V8c0-0.5-0.101-1-0.3-1.5c-0.101,0-0.101-0.1-0.101-0.1c-0.3-0.6-0.7-1.1-1.1-1.6c-0.1,0-0.1,0-0.2,0
		c-0.2-0.2-0.4-0.4-0.7-0.6C9.361,4.1,9.262,4,9.162,4c-0.101-0.1-0.301-0.1-0.4-0.2c-0.1-0.1-0.3-0.2-0.5-0.2h-0.1
		c-0.101,0-0.101,0-0.101,0c-0.2,0.1-0.5,0.1-0.7,0.1c-0.1,0.1-0.1,0.1-0.199,0.1l0,0c-0.101,0-0.101,0-0.101,0l0,0l-0.1,0.1
		c-0.2,0-0.3,0.1-0.4,0.1l0,0c-0.1,0.1-0.1,0.1-0.2,0.1c0,0-0.1,0-0.199,0l0,0l0,0c-0.101,0.1-0.2,0.1-0.301,0.1
		c-0.1,0-0.1,0.1-0.199,0.1c-0.301,0.2-0.601,0.2-0.9,0.4c-0.4,0.2-0.8,0.4-1.2,0.6h-0.1C3.361,5.4,3.262,5.5,3.062,5.6z"/>
	<path fill="#F57F20" d="M13.361,5c0,0.2,0,0.3,0,0.5c0,0.3,0.101,0.5,0.2,0.8c0,0.1,0,0.1,0,0.1c0.2,0.3,0.3,0.6,0.5,0.9
		c0.2,0.2,0.3,0.4,0.4,0.6c0.1,0,0.2,0.1,0.3,0.2c-0.1,0-0.1-0.1-0.1-0.1s0,0,0.1,0.1l0.1,0.1l0.101,0.1c0.2,0.1,0.3,0.2,0.5,0.3
		c0.1,0,0.1,0.1,0.2,0.1c0.1,0,0.1,0.1,0.199,0.1l0,0c-0.199-0.8-0.6-1.5-0.899-2.2c-0.2-0.3-0.4-0.9-0.7-1.3l0,0
		c-0.3-0.2-0.5-0.4-0.7-0.6v0.1C13.462,4.9,13.462,5,13.361,5z"/>
	<path fill="#F15B4F" d="M0.361,9.9c-0.1-0.1,0-0.2,0.101-0.2c0.1,0,0.2,0.1,0.2,0.2s0,0.2-0.101,0.2c0,0,0,0.1-0.1,0.2
		c0,0.1-0.101,0.1-0.101,0.2s0,0.1,0,0.2c0,0.1,0,0.1,0,0.2V11l0,0v0.1v0.1l0,0c0.101,0,0.101,0.1,0.101,0.1l0,0h0.1
		c0.4,0.2,0.7,0.5,1.101,0.7c0.399,0.1,0.6,0.3,0.8,0.5c0,0,0.1,0.1,0.1,0.2c0.101,0,0.101,0.1,0.2,0.2c0.1,0.199,0.3,0.199,0.4,0.1
		c0.1,0.2,0.3,0.4,0.5,0.4h0.1c0.3,0,0.4-0.2,0.5-0.4c0.2,0.2,0.5,0.1,0.7-0.2c0.2,0.4,0.6,0.101,0.8-0.2
		c0.1-0.199,0.2-0.399,0.3-0.6h0.101l0,0c0.1,0,0.1,0,0.199,0l0,0c0,0.1,0,0.3,0,0.4c0,0.1,0,0.199,0,0.199
		C6.462,12.7,6.462,12.7,6.562,12.7c0.101,0,0.101,0,0.2,0c0.1-0.101,0.3,0,0.5,0c0.1,0,0.1,0,0.1,0h0.101c0.1,0,0.3,0,0.399,0
		c0.2,0,0.301,0,0.5,0c0.4-0.2,0.801-0.4,1.301-0.5c0,0,0.1,0,0.199,0c0.4-0.2,0.601-0.5,1-0.7l0.1-0.1c0.3-0.3,0.399-0.601,0.6-0.9
		c0.101-0.2,0.2-0.3,0.3-0.5c0.101-0.2,0.101-0.5,0.2-0.7c0-0.1,0-0.1,0-0.1c0.101-0.4,0.2-0.9,0.101-1.4
		c-0.101-0.4-0.301-0.8-0.301-1.2c-0.1,0-0.199-0.1-0.199-0.2c-0.4-0.8-1-1.4-1.7-1.9l0,0c-0.2-0.1-0.4-0.2-0.601-0.3
		c0-0.1,0-0.1-0.1-0.1c-0.2-0.1-0.4-0.2-0.6-0.3c-0.2,0-0.5-0.1-0.7-0.1c-0.101,0-0.101,0-0.101,0c-0.3,0.1-0.6,0.1-0.899,0.1
		c0,0,0,0.1-0.101,0.1C6.662,3.9,6.562,4,6.462,4l0,0c-0.101,0.1-0.101,0.1-0.2,0.1c0,0-0.1,0-0.2,0l0,0l0,0
		c-0.1,0.1-0.2,0.1-0.3,0.1s-0.1,0.1-0.2,0.1c-0.3,0.2-0.6,0.2-0.899,0.4c-0.4,0.2-0.801,0.4-1.2,0.6H3.361
		c-0.1,0.1-0.199,0.2-0.3,0.3c0.7,0,1.4,0.2,2,0.5c0.601,0.1,1.101,0.3,1.5,0.7c0.101,0,0.101,0.1,0.2,0.2c0.2,0,0.3,0.1,0.4,0.2
		c-0.2,0.2-0.2,0.4-0.301,0.6c0,0-0.199,0-0.3,0.1c-0.1,0.1-0.3,0.3-0.7,0.6c-0.1-0.5-0.5-1-0.8-0.3l0,0c-0.2-0.4-0.7-0.8-0.899-0.1
		c-0.101,0.2-0.2,0.4-0.2,0.6c-0.3-0.2-0.601-0.2-0.7,0.1h-0.1c0-0.1-0.101-0.2-0.101-0.3c-0.1-0.3-0.3-0.4-0.5-0.4
		c-0.2-0.4-0.5-0.5-0.8,0c-0.1-0.5-0.6-0.8-1-0.3c0,0.1-0.1,0.2-0.1,0.3l0,0l0,0c0-0.1,0-0.1,0-0.1l0.1-0.1l0.1-0.1h0.101
		c0.1,0,0.1,0,0.1,0h0.101c0-0.1,0.1-0.1,0.1-0.1c0.2-0.1,0.4,0.2,0.2,0.3c-0.101,0-0.2,0.1-0.3,0.2c0.1,0.1,0,0.2-0.101,0.2l0,0
		l0,0l0,0l0,0c0,0.1-0.1,0.3-0.2,0.3h-0.1l0,0c-0.1,0.2-0.2,0.3-0.3,0.5c0,0.2,0,0.3,0,0.4c-0.101,0,0,0,0,0
		C0.462,9.5,0.562,9.5,0.361,9.9z M5.262,9.9V9.8c0,0.1,0,0.2,0,0.3s0,0.1,0,0.1c0,0.1,0,0.1,0,0.2C5.162,10.2,5.162,10,5.262,9.9z"
		/>
	<path fill="#F15B4F" d="M13.462,5.5c0.1,0.1,0.1,0.2,0.2,0.3c0,0.1,0,0.2,0,0.3s0.1,0.2,0.1,0.3c0,0,0,0.1,0,0.2
		c0.1,0.1,0.2,0.3,0.3,0.5v0.1c0.101,0.3,0.3,0.5,0.5,0.7c0,0,0.101,0.1,0.2,0.2c-0.1,0-0.1-0.1-0.1-0.1s0,0,0.1,0
		c0,0.1,0.1,0.1,0.1,0.1c0-0.1,0-0.1,0-0.1c0.101,0.2,0.2,0.3,0.4,0.4c0.2,0.2,0.4,0.3,0.6,0.4c-0.199-0.8-0.6-1.5-0.899-2.2
		c-0.2-0.3-0.4-0.9-0.7-1.3l0,0c-0.3-0.2-0.5-0.4-0.7-0.5v0.1c0,0.1-0.1,0.1-0.1,0.2S13.361,5.3,13.462,5.5z"/>
	<g>
		<path fill="#EE2C48" d="M1.562,12.2c-0.5,0.1-0.399,1.399-0.1,1.1c0.899-0.1,0.899-1.399,0.8-2.1c0-0.1-0.2-0.4-0.4-0.2
			c-0.1,0.2-0.1,0.5-0.1,0.7c0.1,1,0.5,2.3,1.7,2.2c1,0,1.399-0.9,0.899-1.801c-0.1-0.199-0.3-0.3-0.399,0
			c-0.5,1.4,0.2,2.4,1.2,3.301c0.199,0.3,0.399-0.9,0.1-1.2c-0.2-0.101-1.1-0.8-1-1.101c-0.1,0-0.3,0-0.4,0
			c-0.399-0.699,0.4-0.5-0.1-0.399c0,0-0.1,0-0.2,0c-0.2,0-0.3,0-0.5,0c-0.5-0.101-0.6-0.7-0.7-1.2c-0.199,0.2-0.3,0.3-0.5,0.5
			C1.861,12.1,1.662,12.2,1.562,12.2L1.562,12.2z"/>
	</g>
	<g>
		<path fill="#EE2C48" d="M0.861,11.4c-0.1-0.2-0.3-0.5-0.5-0.2c-0.199,0.2-0.199,0.6-0.1,0.899c0.1,0.4,0.2,0.7,0.4,1
			C0.861,13.4,1.062,13,1.062,12.9c0.101-0.301,0.101-0.7-0.1-0.9c0-0.1-0.101-0.2-0.101-0.3V11.6c0,0.101,0,0.101,0,0
			C0.861,11.5,0.861,11.4,0.861,11.4L0.861,11.4z"/>
	</g>
	<g>
		<path fill="#EE2C48" d="M0.262,12.4c0,0.199,0,0.6,0.2,0.8c0.2,0.1,0.3-0.4,0.3-0.5c0-0.4,0-0.7,0-1.101c0-0.199-0.1-0.6-0.3-0.5
			s-0.2,0.6-0.2,0.8c0,0.1,0,0.199,0,0.1c0,0.1,0,0.1,0,0.2c0,0.2,0-0.101,0,0.1V12.4L0.262,12.4z"/>
	</g>
	<g>
		<path fill="#EE2C48" d="M1.162,13.1c0,0.101,0.1,0.2,0.199,0.2c0.101,0,0.2-0.1,0.2-0.2c0.101-0.3,0.101-0.6,0-0.899
			c-0.1-0.3-0.2-0.5-0.399-0.8c-0.101-0.101-0.2-0.101-0.301,0c0,0.1-0.1,0.3-0.1,0.399c-0.1,0.2-0.1,0.5-0.1,0.7
			c0,0.1,0.1,0.6,0.3,0.6c0.3,0,0.3-0.399,0.3-0.6s0,0.1,0-0.1V12.3c0-0.1,0-0.1,0-0.2c-0.1,0.101-0.3,0.301-0.4,0.4
			C0.962,12.7,1.062,12.9,1.162,13.1L1.162,13.1z"/>
	</g>
	<g>
		<path fill="#EE2C48" d="M5.662,14.8c0.3-0.2,0.1-1.5-0.4-1.1c-0.7,0.7-1.6-1.101-1.9-1.601c-0.199-0.3-0.399,0.101-0.399,0.2
			c-0.101,0.3-0.101,0.601,0,0.8c0.1,0.301,0.3,0.601,0.5,0.801c0.3,0.399,0.399-0.801,0.3-1c-0.1-0.301-0.2-0.5-0.4-0.7
			c-0.3-0.3-0.399,0.399-0.399,0.6c0,0.7,0.5,2.5,1.6,1.8c0.9-0.6,1-1.899,0.601-2.8c-0.301-0.6-0.5,0.4-0.5,0.601
			c0.1,0.399,0.3,1-0.101,1.199c-0.399,0.2-0.899,0.2-1.1-0.199c-0.101,0.3-0.2,0.699-0.3,1c0.199,0.199,0.399,0.5,0.6,0.699
			c0-0.399,0.1-0.8,0.1-1.199c-0.8,0-1.199-0.7-1.399-1.4c-0.101-0.7-0.5-0.1-0.5,0.3c0,0.601,0.1,1.2,0.399,1.7
			c0.4,0.7,0.5-0.6,0.4-0.9c-0.2-0.399-0.3-0.899-0.2-1.3c-0.2,0-0.3,0-0.5,0c0.101,0.101,0.101,0.2,0.101,0.3
			c0,0.101,0,0.101,0.1-0.1c-0.1,0-0.1,0-0.2,0c-0.3-0.2-0.3-0.7-0.399-1c-0.2-0.8-0.5,0.1-0.5,0.5c0.1,0.9,0.199,1.8,0.6,2.6
			c0.1-0.3,0.3-0.6,0.4-0.899c-0.2-0.4-0.301-0.8-0.5-1.2c-0.101-0.2-0.301-0.2-0.4,0c-0.1,0.3-0.1,0.6,0,0.9
			c0.2,0.399,0.3,0.8,0.5,1.199c0.1,0.2,0.3,0.2,0.4,0c0.1-0.3,0.1-0.6,0-0.899c-0.301-0.7-0.4-1.4-0.5-2.101
			c-0.2,0.2-0.301,0.301-0.5,0.5c0.1,0.4,0.6,2.301,1.3,1.601c0.5-0.4,0.2-1.4,0.1-2c-0.1-0.4-0.399-0.4-0.5,0
			c-0.2,0.899-0.1,1.899,0.3,2.8c0.101-0.3,0.301-0.6,0.4-0.9c-0.1-0.199-0.2-0.399-0.2-0.699c-0.1,0.1-0.3,0.199-0.5,0.3
			c0.2,0.899,0.8,2,1.9,2c0.399,0,0.3-1,0.1-1.2s-0.399-0.5-0.6-0.7c-0.4-0.399-0.4,0.8-0.3,1c0.3,0.7,1.199,1,1.8,0.4
			c0.6-0.7,0.399-1.7,0.3-2.601c-0.2,0.2-0.3,0.4-0.5,0.601c0.3,0.6-1.1,1-1.1,0c-0.101,0.2-0.301,0.399-0.4,0.6
			c0.1,0.2,0.2,0.3,0.3,0.5c0.101-0.3,0.2-0.7,0.3-1c-0.199-0.2-0.3-0.399-0.399-0.6c-0.101,0.3-0.2,0.7-0.3,1
			C3.662,14,4.562,15.8,5.662,14.8L5.662,14.8z"/>
	</g>
	<g>
		<path fill="#EE2C48" d="M5.662,13.2c0-0.2,0-0.7-0.2-0.9c-0.2-0.1-0.3,0.4-0.3,0.5c-0.101,0.601-0.4,1.3-0.5,2
			c0.1,0,0.3-0.1,0.399-0.1c-0.2-0.3-0.1-0.7-0.2-1.101c-0.1-0.3-0.199-0.699-0.399-1c-0.2-0.3-0.4,0.301-0.4,0.4
			c-0.1,0.5-0.1,0.9-0.2,1.4c0.2-0.101,0.301-0.101,0.5-0.2c-0.1-0.601-0.1-1.2-0.3-1.9c-0.1-0.5-0.5-0.2-0.5,0.2
			c-0.1,0.6-0.1,1.1-0.2,1.7c0.101,0,0.301-0.101,0.4-0.101c0-0.1-0.1-0.199-0.1-0.3c-0.101,0.4-0.2,0.7-0.301,1.101
			c0.5,0.199,1.101,0.5,1.7,0.199c0.5-0.3,0.601-0.6,0.601-1.1c0-0.1-0.101-0.6-0.301-0.6c-0.3,0-0.6,0-0.8,0.199
			c-0.2,0.2-0.2,0.9,0,1.101s0.601,0.2,0.8,0.2c0.4,0,0.4-1.101,0.101-1.301l0,0c-0.101,0-0.2,0-0.2,0l0,0
			c-0.3,0.2-0.3,1.2,0.1,1.301c0.101,0,0.101,0,0.101,0c0.3,0.1,0.3-0.7,0.3-0.801c0-0.1,0-0.1,0-0.199c0-0.2-0.1-0.601-0.3-0.5
			c-0.2,0.1-0.2,0.6-0.2,0.8c0,0.1,0,0.1,0,0.2c0.1-0.301,0.2-0.5,0.3-0.801c-0.1,0-0.1,0-0.1,0c0.1,0.5,0.1,0.9,0.1,1.301h-0.1
			c0.1-0.5,0.1-0.9,0.1-1.301c-0.1,0-0.5-0.1-0.5,0c0,0.4,0,0.7,0,1.101c-0.1,0,0.4,0,0.5,0c-0.1-0.2-0.2-0.4-0.3-0.601
			c0-0.5,0.1-0.3-0.2-0.199c-0.2,0.1-0.3,0.1-0.5,0.1c-0.3,0-0.6-0.2-0.7-0.4c-0.399-0.199-0.399,0.9-0.3,1.101
			c0,0.1,0.101,0.2,0.101,0.3c0.1,0.3,0.3,0.2,0.399-0.1c0.101-0.7,0.101-1.301,0.2-2c-0.2,0.1-0.3,0.1-0.5,0.199
			c0.1,0.601,0,1.2,0.2,1.801c0.1,0.5,0.399,0.199,0.5-0.2c0.1-0.5,0.1-0.9,0.2-1.4c-0.101,0.101-0.301,0.3-0.4,0.4
			c0.2,0.3,0.2,0.7,0.2,1c0,0.399,0.1,0.7,0.2,1c0.1,0.399,0.3,0.2,0.399-0.101C5.262,14.8,5.562,14,5.662,13.2L5.662,13.2z"/>
	</g>
	<path fill="#96150B" d="M1.062,14.3c0.101,0.3,0.3,0.601,0.601,0.4c0,0,0-0.101,0-0.2c0-0.2,0.3-0.1,0.3,0s0.1,0.3,0.2,0.4V14.8
		c0-0.2,0.3-0.2,0.3,0s0,0.4,0.1,0.5c0.101,0,0.101,0,0.101,0l0,0l0,0l0,0l0,0c0.1-0.2,0.3-0.1,0.3,0.101
		c0,0.199,0.3,0.5,0.399,0.699c0.2,0.2,0.4,0.4,0.5,0.601l0,0l0,0l0,0l0,0c0.101,0.1,0.2,0.3,0.301,0.399c0,0.101,0.1,0.2,0.1,0.301
		c0,0.1,0,0.1,0,0.1c0.2,0.5,0.3,0.9,0.5,1.4c0.1-0.101,0.1-0.2,0.1-0.301c0-0.1,0.101-0.3,0.101-0.399c0-0.3,0-0.601,0.1-0.8l0,0
		c0-0.101,0-0.301,0.101-0.4l0,0c0-0.1,0.1-0.3,0.1-0.4v-0.1l0.1-0.1C5.462,16.3,5.462,16.3,5.462,16.2
		c0.1-0.101,0.1-0.101,0.2-0.101V16l0,0l0,0v-0.1l0,0l0,0c0-0.101,0-0.101,0-0.2l0,0c0-0.101-0.101-0.2-0.101-0.3
		c-0.1-0.101-0.1-0.101-0.1-0.2V15.1l0,0c-0.2-0.1-0.4,0-0.601,0.101c-0.1,0-0.1-0.101-0.199-0.2c-0.301-0.3-0.601-0.1-0.801,0.1
		l0,0c-0.3-0.3-0.6-0.6-1-0.899c-0.3-0.2-0.5-0.101-0.699,0.1c-0.101-0.1-0.101-0.1-0.101-0.1c-0.2-0.101-0.3-0.2-0.5-0.3
		c-0.1,0-0.3,0-0.399,0l0,0c0,0.1,0,0.1,0,0.1C1.162,14.1,1.062,14.2,1.062,14.3L1.062,14.3C1.062,14.3,1.062,14.4,1.062,14.3z"/>
	<path fill="#FFCB66" d="M0.861,8L0.861,8L0.861,8l0.101-0.1l0.1-0.1h0.101c0.1,0,0.1,0,0.1,0h0.1c0-0.1,0.101-0.1,0.101-0.1
		c0.2-0.1,0.399,0.2,0.2,0.3c-0.101,0-0.2,0.1-0.301,0.2v0.1c0.101,0,0.101,0,0.2-0.1c0,0.1,0.101,0.2,0.101,0.3
		c0.1,0.4,0.6,0.6,0.899,0.2c0-0.1,0.101-0.1,0.101-0.2c0.1,0.5,0.6,0.7,0.899,0.2c0.2,0.2,0.5,0.3,0.7-0.1c0.1-0.2,0.2-0.3,0.3-0.5
		c0.2,0.4,0.601,0.5,0.9,0.1c0-0.1,0-0.1,0-0.1c0.2,0.3,0.6,0.7,0.899,0.3c0.4-0.4,0.601-1,1.101-1.2c0.399-0.1,0.399-0.8,0.2-1.1
		c-0.4-0.6-0.801-0.5-1.101-0.3c-0.1-0.4-0.5-0.8-0.899-0.5c-0.101,0.2-0.301,0.3-0.4,0.5c-0.1-0.2-0.3-0.3-0.5-0.3
		c-0.1-0.4-0.4-0.6-0.8-0.2c-0.101-0.1-0.2-0.2-0.3-0.2c0,0.1-0.101,0.1-0.101,0.1h-0.1c-0.2,0.2-0.4,0.5-0.7,0.7
		c-0.4,0.3-0.8,0.6-1,1c-0.1,0.2-0.2,0.3-0.4,0.3c-0.1,0-0.1,0.1-0.199,0.1C1.062,7.6,0.962,7.8,0.861,8z"/>
	<g>
		<path fill="#F15B4F" d="M7.262,7.9c0.1-0.2,0-0.8-0.3-0.5c-0.3,0.3-0.601,0.6-0.9,1c0.2,0.2,0.3,0.3,0.4,0.5
			c0-0.3,0.3-0.4,0.5-0.6c0.2-0.2,0.3-0.4,0.3-0.7c0-0.2-0.2-0.5-0.5-0.5c-0.3,0.2-0.4,0.5-0.6,0.8C5.861,8.3,5.562,8.6,5.462,9
			c-0.101,0.3,0.2,0.7,0.399,0.4c0.2-0.3,0.4-0.6,0.601-0.9c0.2-0.2,0.3-0.5,0.5-0.7c-0.101-0.1-0.2-0.2-0.3-0.3
			c0,0.2-0.301,0.4-0.4,0.5c-0.1,0.2-0.2,0.3-0.3,0.5C5.861,8.8,6.062,9.3,6.361,9C6.662,8.6,7.062,8.4,7.262,7.9L7.262,7.9z"/>
	</g>
	<g>
		<path fill="#F15B4F" d="M5.162,9.4C5.062,9.4,5.062,9.4,5.162,9.4c0,0.3,0.1,0.6,0.1,0.9c0-0.1,0.1-0.1,0.1-0.1
			c-0.1-0.2-0.1-0.3-0.199-0.5c0,0-0.101,0-0.101,0.1c0,0.2,0,0.4,0.101,0.6c0,0.1,0.1,0.1,0.1,0c0-0.2,0-0.4-0.1-0.5
			c0-0.1-0.101,0-0.101,0.1s0.101,0.2,0.101,0.3c0,0.1,0.1,0.1,0.1,0c0-0.1,0-0.3,0-0.4c0-0.2-0.1-0.1-0.1,0s0,0.2,0,0.3
			c0,0.1,0.1,0.1,0.1,0c0-0.1,0-0.2,0-0.3h-0.1c0,0.1,0,0.2,0,0.3h0.1c-0.1-0.1-0.1-0.2-0.1-0.3H5.062c0,0.1,0.101,0.3,0.101,0.4
			h0.1c-0.1-0.1-0.1-0.3-0.1-0.5H5.062c0.101,0.2,0.101,0.3,0.2,0.5c0,0.1,0.1,0,0.1-0.1C5.361,9.9,5.262,9.7,5.162,9.4L5.162,9.4z"
			/>
	</g>
	<g>
		<path fill="#F15B4F" d="M5.562,9.5c0.101,0,0.101-0.1,0-0.1C5.462,9.4,5.462,9.5,5.562,9.5L5.562,9.5z"/>
	</g>
	<g>
		<path fill="#F15B4F" d="M5.462,9.6C5.462,9.6,5.462,9.5,5.462,9.6c-0.2,0.2-0.3,0.5-0.4,0.7c0,0,0,0.1,0.101,0.1
			c0.199-0.1,0.3-0.2,0.399-0.4c0,0,0-0.1-0.1-0.1c-0.101,0.1-0.2,0.1-0.4,0.1c0,0.1,0.101,0.1,0.101,0.2c0.1,0,0.1-0.1,0.1-0.1
			c0.1-0.1,0-0.2-0.1-0.2C5.062,10,5.062,10,5.062,10c0.101,0.1,0.101,0.1,0.101,0.2c0.1-0.1,0.1-0.1,0.1-0.2c0,0,0-0.1-0.1-0.1
			c0,0,0,0-0.101,0c0.101,0,0.101,0.1,0.101,0.1c0-0.1,0-0.1,0-0.2L5.062,9.7l0,0c0,0,0,0.1,0.101,0.1l0,0c0-0.1,0-0.1,0-0.2
			L5.062,9.7c0,0.1,0,0.1,0,0.1c0,0.1,0,0,0-0.1c0,0,0,0.2,0.101,0.1c0.1-0.1,0.1-0.1,0.1-0.1c0.1-0.1,0.1-0.2,0-0.2l0,0
			c0.1,0,0.1,0.1,0.1,0.1l0,0c0.101-0.1,0-0.2-0.1-0.1s-0.1,0.1-0.1,0.2c0,0,0,0.1,0.1,0.1h0.1c-0.1,0-0.1-0.1-0.1-0.1
			c-0.1,0.1-0.1,0.2-0.1,0.2c0,0.1,0,0.3,0.1,0.2l0.1-0.1l-0.1-0.1c-0.1,0-0.1,0.1-0.1,0.1c0,0.1,0,0.3,0.1,0.2c0,0,0.1-0.1,0.2-0.1
			c-0.101,0-0.101-0.1-0.101-0.1c0,0.1-0.199,0.2-0.3,0.3l0.101,0.1C5.162,10.1,5.262,9.8,5.462,9.6L5.462,9.6z"/>
	</g>
	<path fill="#F15B4F" d="M5.062,10.3C5.062,10.2,5.062,10.2,5.062,10.3c0-0.1,0,0,0.2,0.1c0,0,0,0.2,0.1,0.1l0,0v0.1
		c-0.199,0.2-0.1,0.6,0,0.9l0,0c-0.1-0.1-0.1,0-0.1,0.1c0,0.2,0.1,0.301,0.2,0.5V12.2c0,0.1,0.1,0.1,0.1,0.2
		c0.101,0.1,0.101,0,0.101-0.101v-0.1V12.1c0-0.199-0.101-0.5-0.2-0.699c0-0.2-0.101-0.3-0.101-0.5v-0.1
		c0.101,0.2,0.2,0.3,0.301,0.4l0.1-0.1c0-0.1-0.1-0.5-0.2-0.6v-0.1c-0.1-0.1-0.1-0.1-0.1-0.2v-0.1c0.1-0.2,0.2-0.3,0.2-0.4l0,0
		c0,0,0-0.2-0.101-0.1l0,0l0,0c0,0.1-0.1,0.1-0.2,0.2c-0.1-0.1-0.1-0.2-0.199-0.2l0,0c-0.101,0-0.101,0.1-0.101,0.1
		c-0.1,0.2,0,0.3,0,0.4C5.062,10.1,4.962,10.2,5.062,10.3C4.962,10.2,4.962,10.3,5.062,10.3C5.062,10.2,5.062,10.2,5.062,10.3z"/>
	<path fill="#F15B4F" d="M5.262,8.8c0.1,0,0.1-0.1,0.2-0.2c0,0.1,0,0.2,0.1,0.1c0,0,0.101-0.1,0.101-0.2l0,0v0.1
		c0,0.1,0.1,0.1,0.1,0s0-0.2,0-0.3c0.1-0.1,0.1-0.2,0.1-0.3c0,0-0.1-0.1-0.1,0v0.1l0,0c-0.1,0-0.1,0.1-0.1,0.1l0,0
		c-0.101,0.1-0.2,0.2-0.2,0.3l0,0c-0.101,0-0.101,0-0.101,0.1l0,0C5.361,8.7,5.262,8.7,5.262,8.8C5.262,8.8,5.262,8.9,5.262,8.8z"/>
	<path fill="#F15B4F" d="M4.162,9.1c0,0,0.1,0.1,0.1,0l0,0c0-0.1,0-0.2,0-0.3c0.1,0,0.2-0.1,0.2-0.2l0,0l0,0l0,0l0,0
		c0-0.1,0.1-0.1,0.1-0.2l0,0c0,0.1,0,0.2,0.101,0.1l0,0l0,0c0,0,0,0.1,0.1,0.1l0,0c0.1,0,0.1,0,0.1,0l0,0l0,0l0,0
		c0.101,0,0.101-0.1,0.101-0.1c0,0.1,0,0.1,0,0.2c0,0.1,0.1,0.1,0.1,0c0-0.3,0-0.5,0-0.8l0,0l0,0c0,0,0-0.1-0.1-0.1
		c-0.2,0-0.4,0.3-0.5,0.5c-0.2,0.2-0.3,0.5-0.4,0.7C4.062,9.1,4.062,9.2,4.162,9.1z"/>
	<path fill="#F15B4F" d="M3.662,9.1c0,0.1,0.1,0.2,0.1,0.1c0.1,0,0.1-0.1,0.1-0.1l0,0l0,0l0,0l0,0l0,0l0,0c0-0.1,0-0.2,0-0.2
		c0-0.1,0-0.1,0-0.1l0,0l0,0l0,0V8.7l0,0c0,0-0.1-0.1-0.1,0l0,0c-0.1,0-0.1,0-0.1,0s-0.101,0-0.101,0.1v0.1
		C3.562,9,3.562,9,3.662,9.1z"/>
	<path fill="#F15B4F" d="M1.462,8.8c0,0,0,0.2,0.1,0.1c0-0.1,0.101-0.1,0.101-0.2c0.1,0,0.1,0,0.1,0l0,0c0.1,0.1,0.1,0.2,0.2,0.2
		l0,0c0,0,0,0.1,0.1,0.1l0,0v0.1h0.101l0,0V9l0,0h0.1l0,0c0,0,0,0,0.2,0.2l0.1-0.1l0,0l0,0c0.101,0,0.101,0,0.101,0l0,0h0.1l0,0h0.1
		c0.101,0,0.101,0,0.101,0c0.1,0,0.2,0,0.2,0c0,0.1,0,0.1,0,0.1l0,0c0,0.1,0.1,0.2,0.1,0.1c0-0.1,0.1-0.1,0.1-0.1
		c0.101-0.1,0.101-0.2,0-0.2c0-0.1,0-0.1,0-0.1l-0.1-0.1l0,0c0-0.1,0-0.1,0-0.1l0,0V8.6c0-0.1,0-0.1-0.1-0.1H3.062
		c0,0.1-0.1,0.2-0.2,0.3l0,0h-0.1c0-0.1,0-0.1,0-0.1c0.1-0.2,0.1-0.3,0.1-0.5V8.1c0-0.1-0.1-0.2-0.1-0.1c-0.1,0-0.1,0.1-0.1,0.1
		c-0.101,0-0.101,0-0.101,0l0,0l0,0c0,0,0-0.1-0.1,0c-0.101,0.1-0.2,0.2-0.2,0.3c-0.1,0-0.1,0-0.1,0c-0.101,0.1-0.101,0.2-0.2,0.3
		l0,0l0,0c-0.2,0-0.2-0.1-0.2-0.2c0.1-0.2,0.1-0.3,0.1-0.4s0-0.2-0.1-0.2L1.662,8l0,0c0,0-0.101,0-0.101,0.1l0,0
		C1.462,8.2,1.361,8.3,1.462,8.8z"/>
	<g>
		<path fill="#F15B4F" d="M5.562,12C5.462,12,5.462,12.1,5.562,12c0,0.2,0,0.4,0.101,0.4l0,0C5.662,12.3,5.562,12.1,5.562,12
			c-0.1-0.1-0.2,0-0.1-0.1c0,0.3,0.1,0.5,0.2,0.699c0,0.2,0.1,0.101,0.1,0C5.662,12.4,5.662,12.2,5.562,12c-0.1,0-0.2,0,0,0.1
			c0,0.2,0,0.4,0.101,0.601c0,0.1,0.1,0,0.1-0.101c-0.1-0.199-0.2-0.399-0.3-0.6c-0.101-0.1-0.101,0.1-0.101,0.1
			c0.101,0.2,0.101,0.4,0.2,0.601L5.662,12.6C5.662,12.4,5.562,12.3,5.562,12c-0.1,0.1-0.1,0.2-0.1,0.2c0.1,0.1,0.2,0.3,0.2,0.5
			c0-0.101,0.1-0.101,0.1-0.101C5.662,12.4,5.562,12.2,5.562,12c-0.1,0-0.1,0.1-0.1,0c0.1,0.1,0.1,0.3,0.2,0.4c0,0.1,0,0,0,0
			C5.762,12.3,5.662,12.1,5.562,12L5.562,12z"/>
	</g>
	<g>
		<path fill="#F15B4F" d="M5.162,10.2c0.1,0.2,0.3,0.1,0.5-0.2V9.9l0,0c0.1-0.2,0.1-0.6-0.2-0.7c-0.2-0.1-0.4,0.3-0.4,0.5
			c0,0.4-0.1,0.9,0.2,1.2c0.1,0.1,0.2,0,0.3-0.1c0.2-0.3,0.101-0.7,0.101-1.1c-0.2,0.1-0.4,0.2-0.601,0.3
			C5.062,10.1,5.162,10.2,5.162,10.2L5.162,10.2z"/>
	</g>
	<g>
		<path fill="#F15B4F" d="M5.262,9.3c-0.2-0.1-0.3,0-0.2,0.2c-0.1,0.2-0.1,0.4,0,0.5c0,0,0-0.1,0,0v0.1v0.1c0-0.1,0-0.1,0,0
			c0,0.1,0,0.2,0,0.3s0.2,0.4,0.4,0.3c0.2-0.1,0.2-0.4,0.2-0.6C5.562,9.9,5.462,9.5,5.262,9.3L5.262,9.3z"/>
	</g>
	<g>
		<path fill="#F15B4F" d="M5.462,11.5C5.462,11.4,5.361,11.4,5.462,11.5c-0.101,0.2-0.101,0.4-0.3,0.5c0.1,0,0.1-0.1,0.199-0.1
			c0-0.101,0-0.101,0-0.2c0-0.101-0.1-0.101-0.1-0.101c0.1,0.2,0.1,0.4,0.2,0.601c0.1,0.1,0.2,0.1,0.2,0c0-0.101,0-0.101,0-0.2
			c0,0,0-0.1-0.101-0.1c-0.1,0-0.1,0.1-0.1,0.199V12.2c0.1,0,0.1,0.1,0.2,0.1c0-0.1,0-0.2,0-0.3s-0.101-0.1-0.101,0
			c-0.1,0.1-0.1,0.2-0.1,0.3c0,0.101,0.1,0.3,0.2,0.101c0,0,0-0.101,0-0.2c-0.101,0-0.101,0-0.2,0v0.1c0-0.1,0.1-0.1,0.1-0.2
			c-0.1-0.1-0.1-0.3-0.1-0.399c0-0.101,0-0.2-0.101-0.101c-0.199,0.2-0.199,0.5,0,0.7c0.101,0.101,0.2,0,0.2-0.1
			C5.562,12,5.562,11.7,5.462,11.5L5.462,11.5z"/>
	</g>
	<g>
		<path fill="#F15B4F" d="M5.662,12.2C5.562,12.2,5.562,12.2,5.662,12.2c-0.101,0.2-0.101,0.3,0,0.399c0,0.2,0.199,0.2,0.199,0
			c0-0.1,0-0.3,0-0.399C5.861,12,5.562,12,5.662,12.2c-0.101,0.1-0.101,0.1-0.101,0.2c0.101,0,0.101,0,0.2,0
			C5.762,12.3,5.762,12.2,5.662,12.2c0-0.2-0.101-0.2,0-0.3c-0.101,0.3-0.101,0.5-0.101,0.699c0,0.2,0.2,0.2,0.2,0
			c0-0.5-0.3-0.899-0.5-1.3c-0.1-0.1-0.3,0.101-0.2,0.2c0,0.1,0.101,0.2,0.101,0.3c0.1-0.1,0.1-0.1,0.199-0.2
			c-0.1-0.1-0.199-0.3-0.3-0.399c-0.1-0.1-0.2,0-0.2,0.1c0,0.5-0.199,0.9-0.199,1.4c0.1,0,0.199,0,0.3,0c0-0.2,0-0.4-0.101-0.601
			c-0.1-0.199-0.199-0.3-0.199-0.5c-0.101,0.101-0.101,0.101-0.2,0.2c0.3,0.2,0.399,0,0.5-0.2c-0.101-0.1-0.101-0.1-0.2-0.1
			c0,0.1,0,0.1,0,0.2c0.1,0.1,0.1,0.1,0.2,0.2V11.8c-0.101,0-0.101,0-0.2,0c0,0.101,0,0.101,0,0.2c-0.1,0.1,0,0.4,0.1,0.2
			c0.101-0.2,0.101-0.3,0.101-0.5c0-0.101-0.2-0.101-0.2,0v0.1c0,0.101,0.1,0.3,0.2,0.2c0.1-0.2,0.1-0.3,0.1-0.5
			c0-0.1-0.1-0.2-0.2-0.1c0,0.1-0.1,0.3-0.199,0.199c-0.101-0.1-0.2,0.101-0.2,0.2c0,0.2,0,0.3,0.1,0.4
			c0.101,0.2,0.101,0.5,0.101,0.7c0.1,0.3,0.3,0.199,0.3,0c0-0.301,0-0.5,0.1-0.801c0.101-0.3,0.101-0.5,0.101-0.699
			c-0.101,0-0.2,0.1-0.2,0.1c0.1,0.1,0.1,0.3,0.2,0.4c0.1,0.1,0.199-0.101,0.199-0.2c0-0.101-0.1-0.2-0.1-0.3
			c-0.1,0.1-0.1,0.1-0.2,0.199c0.101,0.4,0.4,0.801,0.4,1.2c0,0,0.1,0,0.2,0C5.662,12.6,5.662,12.4,5.662,12.2
			c0,0.1-0.101,0-0.101,0s0,0.1,0,0.2c0,0.1,0.101,0.3,0.2,0.1c0.1-0.1,0.1-0.2,0.1-0.3C5.762,12.2,5.662,12.2,5.662,12.2
			c-0.101,0.2-0.101,0.3,0,0.399c0.1,0,0.1-0.1,0.199-0.1C5.762,12.4,5.762,12.3,5.662,12.2L5.662,12.2z"/>
	</g>
	<g>
		<path fill="#F15B4F" d="M4.361,11.9c0,0,0-0.101,0-0.2h-0.1c-0.1,0-0.1,0.1-0.2,0.2c0.101,0,0.101,0,0.2,0l0,0c0,0.1,0,0.1,0,0.1
			v-0.1c0,0,0,0.1,0,0c0-0.101,0-0.2-0.1-0.2c0,0-0.101,0-0.101,0.1c0,0.101,0,0.2,0,0.3V12l0,0c0,0,0,0.1,0,0.2h0.101
			C4.262,12.1,4.262,12,4.361,11.9L4.361,11.9z"/>
	</g>
	<g>
		<path fill="#F15B4F" d="M5.462,11.9C5.462,11.9,5.562,11.9,5.462,11.9C5.462,11.8,5.462,11.8,5.462,11.9
			C5.462,11.8,5.462,11.8,5.462,11.9L5.462,11.9L5.462,11.9z"/>
	</g>
	<g>
		<path fill="#F15B4F" d="M5.462,11.9L5.462,11.9c0,0.1,0,0.1,0,0.199h0.1C5.562,12,5.562,12,5.462,11.9c0,0,0,0.1-0.101,0.199
			c0.101,0,0.101,0,0.101,0c0.1,0.101,0.1,0,0.1-0.1s0-0.1,0-0.2C5.562,11.8,5.462,11.8,5.462,11.9L5.462,11.9c0,0,0,0.1,0,0.199
			C5.462,12,5.462,12,5.462,11.9c0,0,0,0.1,0.1,0.199c0.101,0,0.101,0,0.101-0.1s0-0.1,0-0.2c-0.101-0.1-0.2-0.1-0.2,0
			C5.361,11.8,5.361,11.9,5.462,11.9C5.462,11.9,5.462,11.8,5.462,11.9C5.462,11.8,5.462,11.8,5.462,11.9
			C5.361,11.8,5.361,11.8,5.462,11.9c-0.101,0-0.101,0.1,0,0.199c0,0,0,0.101,0.1,0.101c0.101,0,0.101-0.2,0-0.2
			C5.462,12,5.462,11.9,5.462,11.9L5.462,11.9z"/>
	</g>
	<g>
		<path fill="#F15B4F" d="M4.062,11.8c0-0.1-0.1-0.1-0.3,0.101c-0.1,0.399-0.4,0.8-0.3,1.199c0.1,0.2,0.3,0,0.3-0.199
			c0-0.301-0.1-0.7-0.3-1c-0.101-0.2-0.2,0.1-0.2,0.199c0.1,0.301,0.3,0.5,0.3,0.7c0.101-0.1,0.101-0.1,0.2-0.2
			c-0.1-0.1,0-0.199,0.1-0.3c-0.1,0-0.1-0.1-0.1-0.1l0,0h0.1c0-0.101-0.1-0.101-0.1-0.2c-0.1,0.1-0.1,0.1-0.1,0.2l0,0
			c0-0.101,0-0.101,0-0.101V12.2c0,0.1,0.1,0.1,0.1,0c0-0.101,0-0.101,0-0.2s-0.1-0.1-0.1,0s0,0.2,0.1,0.3c0,0.101,0.1,0.101,0.1,0
			c0-0.1,0-0.1,0-0.2c0-0.1,0-0.1,0-0.1c-0.199,0-0.3,0-0.399,0.4c0,0.199,0.1,0.399,0.2,0.5c0.1,0.1,0.199-0.101,0.199-0.2
			c-0.1-0.2-0.199-0.4-0.3-0.7c-0.1,0.1-0.1,0.1-0.2,0.2c0.2,0.3,0.2,0.6,0.2,0.899c0.101-0.1,0.2-0.1,0.3-0.199
			c0-0.101,0.101-0.2,0.101-0.301c0-0.1,0.1-0.199,0.1-0.3C4.162,12.1,4.162,11.9,4.062,11.8L4.062,11.8z"/>
	</g>
	<g>
		<path fill="#F15B4F" d="M3.861,12.2c0.101,0,0.101-0.2,0-0.3C3.762,11.9,3.762,12.2,3.861,12.2L3.861,12.2z"/>
	</g>
	<g>
		<path fill="#F15B4F" d="M3.861,12.1C3.861,12.2,3.861,12.1,3.861,12.1c0-0.199-0.3-0.699-0.399-0.699c-0.3,0.3-0.3,0.699-0.3,1.1
			c0.1,0,0.1-0.1,0.199-0.1c-0.199-0.5-0.399-0.9-0.5-1.4c-0.1,0.1-0.1,0.1-0.199,0.2c0.199,0.399,0.399,0.7,0.5,1.1
			c0.1-0.1,0.1-0.1,0.199-0.2c-0.3-0.5-0.399-1-0.699-1.399c-0.101-0.1-0.2,0.1-0.2,0.2c0.1,0.2,0.1,0.4,0,0.6c0,0,0.1,0,0.2,0
			c0-0.3,0-1-0.4-1c-0.4-0.1-0.6,0.3-0.7,0.7c0,0.2,0.3,0.399,0.3,0.1c0-0.1,0.101-0.1,0.101-0.2c-0.101-0.1-0.101-0.2-0.2-0.3
			c-0.1,0.1-0.1,0.2-0.2,0.3c0.101,0,0.101,0,0.2,0c0-0.1,0-0.1,0-0.1c-0.1-0.2-0.2,0.1-0.2,0.2c0,0.1,0,0.1,0,0.2
			c0.101-0.101,0.2-0.101,0.3-0.2c0-0.3-0.1-0.6-0.399-0.7c-0.2,0-0.2,0.3-0.101,0.4c0.101,0,0.2,0.1,0.301,0.1
			c0-0.1-0.101-0.1-0.101-0.2c0,0.1,0,0.1,0,0.1c0.101,0,0.101-0.1,0.2-0.1c-0.1-0.1-0.2-0.2-0.4-0.2c-0.1,0-0.399,0.2-0.3-0.2
			c0-0.2-0.3-0.4-0.3-0.1c-0.1,0.4,0,0.7,0.3,0.9c0.101,0.1,0.2,0.1,0.2,0c0.1,0,0.2,0,0.3,0c0.101,0.2,0.2,0,0.2-0.1s0-0.1,0-0.1
			c0-0.1,0-0.2-0.1-0.2c-0.101,0-0.2,0-0.301-0.1c0,0.2-0.1,0.3-0.1,0.4c0.3,0.1,0.3,0.3,0.3,0.5c0.101,0.301,0.3,0.101,0.3-0.1
			c0-0.1,0-0.1,0-0.2c0,0.101-0.1,0.101-0.199,0.2c0,0.1,0,0.1,0,0.1c0.1,0.101,0.199,0.101,0.199,0c0,0,0.101-0.1,0.101-0.199
			c0.1-0.101,0-0.5-0.2-0.3c-0.1,0.1-0.2,0.2-0.2,0.4c0.101,0,0.2,0.1,0.3,0.1c0-0.3,0.101-0.399,0.5-0.199c0,0.1,0,0.199,0,0.3
			c0,0.2,0.101,0.3,0.2,0.1c0.101-0.3,0-0.6-0.1-0.9c-0.101,0.1-0.101,0.1-0.2,0.2c0.3,0.4,0.4,1,0.7,1.4c0.1,0.2,0.2-0.1,0.2-0.2
			c-0.101-0.399-0.301-0.8-0.5-1.2c-0.101-0.2-0.2,0.1-0.2,0.2c0.1,0.2,0.2,0.5,0.3,0.8c0.1,0.101,0.2,0.5,0.2,0.5
			c0,0.2,0.2,0.2,0.2,0c0-0.1,0-1,0.3-0.8C3.662,11.9,3.762,12,3.861,12.1L3.861,12.1z"/>
	</g>
	<g>
		<path fill="#F15B4F" d="M0.861,10.5c-0.1,0-0.1,0.1,0.101,0.1v0.1c0,0.1,0,0.2,0.1,0.1c0,0,0-0.1,0-0.2v-0.1l0,0
			c-0.1,0-0.1,0.1-0.2,0.1c0,0.1,0.101,0.1,0.101,0.2c0.1,0.1,0.2,0.1,0.2,0c0.1,0,0.1-0.1,0-0.2l-0.101-0.1
			c-0.1-0.1-0.2,0.1-0.2,0.2l0,0l0,0c0,0.1,0,0.1,0,0.1c0-0.1,0.101-0.1,0.101-0.2S0.861,10.5,0.861,10.5L0.861,10.5z"/>
	</g>
	<g>
		<path fill="#EE2C48" d="M5.361,15c-0.1-0.1-0.199,0-0.3-0.1c0,0,0,0.1,0,0.199l0,0c0,0.101,0,0.101,0,0.101
			c-0.1,0.1-0.1,0.2,0,0.3c0.101,0,0.101,0.1,0.101,0.1c0.1,0.101,0.199-0.1,0.199-0.199c-0.1-0.2,0-0.601-0.3-0.7
			c-0.1,0-0.1,0.1-0.1,0.2c0,0.1,0.1,0.199,0.1,0.3C5.162,15.1,5.162,15.1,5.262,15c0,0-0.1-0.2-0.2-0.2c-0.1,0-0.1,0.101-0.1,0.101
			c-0.101,0.199,0,0.3,0.1,0.399c0.2,0.2,0.3-0.1,0.2-0.2c-0.1,0-0.1-0.1-0.1-0.199c0,0.1-0.101,0.1-0.101,0.199
			c0.101,0,0.101,0.301,0.101,0.4c0.1,0,0.1-0.1,0.199-0.1V15.3c0,0.101,0,0.2,0,0.3C5.462,15.5,5.562,15.2,5.361,15L5.361,15z"/>
	</g>
	<g>
		<path fill="#EE2C48" d="M4.962,14.9L4.962,14.9c-0.2,0.199-0.3,0.5-0.2,0.8c0,0,0.1,0,0.2,0c-0.2-0.3-0.4-0.601-0.601-0.9
			c-0.1,0.2-0.1,0.3-0.1,0.4c0.1,0,0.2,0.2,0.3,0.2c0,0,0.101-0.101,0.101-0.2c0-0.101,0-0.101,0-0.2c-0.101,0.1-0.101,0.1-0.2,0.1
			c0.1,0.101,0.1,0.101,0.1,0.2c0.101-0.1,0.101-0.1,0.2-0.2V15c-0.1,0.1-0.1,0.1-0.2,0.2c0,0.1,0.101,0.1,0.101,0.2
			c0,0.199,0.199,0.1,0.199,0c0.101-0.301-0.1-0.7-0.5-0.601c-0.1,0,0,0.2,0,0.2c0,0.1,0.301,0.2,0.301,0.3c0,0,0.1,0,0.199,0
			c0-0.1-0.1-0.2-0.199-0.3c-0.2-0.1-0.2,0.1-0.2,0.2c0,0.1,0.1,0.1,0.1,0.2c0.101,0.1,0.2-0.101,0.2-0.2c0-0.2,0-0.3-0.1-0.4
			c-0.101-0.1-0.2,0-0.2,0.101c0,0.1,0,0.1,0,0.199l0.1-0.1c-0.1,0-0.3-0.1-0.3-0.3c-0.1-0.2-0.3,0.2-0.2,0.3
			c0.2,0.3,0.4,0.5,0.5,0.8c0,0.101,0.101,0.101,0.2,0C4.861,15.5,5.062,15.2,4.962,14.9L4.962,14.9z"/>
	</g>
	<g>
		<path fill="#EE2C48" d="M4.262,14.8L4.262,14.8c-0.3-0.2-0.3,0-0.3,0.3c0,0,0.1,0.101,0.2,0.101c0-0.3-0.301-0.601-0.601-0.8
			c-0.1,0-0.1,0.199-0.1,0.3c0.1,0.1,0,0.3,0,0.399c0,0.101,0,0.2,0,0.301c0-0.101,0.1-0.101,0.2-0.2
			c-0.301-0.4-0.5-0.7-0.801-1.101c0,0.101-0.1,0.2-0.1,0.301c0.2,0.1,0.4,0.199,0.5,0.399c0-0.2,0.1-0.3,0.1-0.399
			C3.162,14.3,3.162,14.1,2.962,14s-0.2,0.1-0.2,0.2c0.1,0.3,0.3,0.5,0.5,0.6c0.2,0.101,0.2-0.3,0.1-0.399
			c-0.199-0.2-0.3-0.4-0.5-0.5c-0.199-0.2-0.3,0.199-0.199,0.3c0.3,0.399,0.6,0.7,0.8,1.1c0.1,0.2,0.2-0.1,0.2-0.2
			c-0.101-0.3,0-0.5-0.101-0.8c0,0.101-0.1,0.101-0.1,0.2c0.2,0.1,0.399,0.2,0.399,0.5c0,0.2,0.101,0.3,0.2,0.1
			C4.162,15,4.162,14.9,4.262,14.8L4.262,14.8z"/>
	</g>
	<g>
		<path fill="#EE2C48" d="M1.262,13.9c-0.1,0-0.1,0.3,0,0.3c0.4,0,0.4,0.6,0.8,0.6c0.101,0,0.101-0.3,0-0.3
			c-0.2,0-0.3-0.2-0.399-0.3C1.562,14,1.462,13.9,1.262,13.9L1.262,13.9z"/>
	</g>
	<g>
		<path fill="#EE2C48" d="M3.361,14.8c0.101,0.101,0.2-0.2,0-0.2c0-0.1,0-0.1-0.1-0.199c-0.1,0-0.1,0.199-0.1,0.199
			c0.1,0.101,0.1,0.2,0.1,0.301C3.361,14.9,3.361,14.8,3.361,14.8c0-0.399-0.199-0.6-0.3-1.1c-0.1-0.101-0.1,0.2-0.1,0.2
			c0.1,0.199,0.2,0.399,0.3,0.6c0-0.1,0-0.2,0-0.3c-0.2-0.101-0.4-0.3-0.6-0.5c-0.101-0.101-0.101,0.2-0.101,0.2
			c0,0.1,0.101,0.1,0.101,0.199c0.1,0,0.1-0.1,0.1-0.199c-0.2-0.2-0.4-0.4-0.7-0.4c-0.1,0-0.1,0.2-0.1,0.2c0,0.3,0.1,0.6,0.2,0.899
			c0-0.1,0.1-0.1,0.1-0.199c-0.2-0.2-0.3-0.4-0.4-0.7c-0.1,0.1-0.1,0.1-0.1,0.2c0,0.199,0,0.3,0,0.399l0.1-0.1
			c-0.1-0.3-0.3-0.5-0.5-0.7c-0.1,0-0.1,0.2-0.1,0.2c0,0.2,0.1,0.399,0.2,0.6c0,0,0.1-0.1,0.1-0.2c0-0.1-0.1-0.199-0.2-0.3
			c-0.1-0.1-0.199,0.101-0.1,0.2c0,0.1,0.1,0.2,0.2,0.3c0.1,0.101,0.1-0.1,0.1-0.2c-0.1-0.1-0.2-0.199-0.2-0.399
			c0,0.1-0.1,0.1-0.1,0.2c0.2,0.1,0.3,0.399,0.4,0.6c0.1,0.1,0.1,0,0.1-0.1c0-0.2,0-0.4-0.1-0.601l0,0l0,0
			c-0.101,0-0.101,0.2-0.101,0.2c0.101,0.3,0.3,0.6,0.5,0.8c0.101,0.101,0.101-0.2,0.101-0.2c0-0.199-0.2-0.5-0.2-0.8
			C1.861,13.9,1.861,13.9,1.861,14c0.301,0,0.5,0.2,0.7,0.4c0.101,0.1,0.101-0.2,0.101-0.2c0-0.101-0.101-0.101-0.101-0.2
			c0,0-0.1,0.1-0.1,0.2c0.2,0.2,0.399,0.399,0.6,0.6v-0.3c-0.1-0.2-0.2-0.3-0.2-0.5c0,0.1-0.1,0.1-0.1,0.2
			c0.2,0.2,0.4,0.399,0.5,0.7C3.361,15.1,3.462,14.9,3.361,14.8c0.101-0.2,0-0.2,0-0.3c0,0.1-0.1,0.1-0.1,0.2L3.361,14.8L3.361,14.8
			z"/>
	</g>
	<g>
		<path fill="#EE2C48" d="M4.062,15.2c0-0.101-0.1-0.2-0.1,0c0,0.1,0,0.2,0,0.3h0.1v-0.1C4.062,15.3,4.062,15.3,4.062,15.2
			L4.062,15.2z"/>
	</g>
	<g>
		<path fill="#EE2C48" d="M2.162,11.3c0-0.1,0-0.2,0-0.3c0,0-0.101,0-0.101,0.1c-0.1,0.1-0.1,0.3-0.1,0.4l0.1,0.1l0,0
			c0.101,0,0.101,0,0.101-0.1S2.162,11.4,2.162,11.3L2.162,11.3z"/>
	</g>
	<g>
		<path fill="#EE2C48" d="M6.462,12.3c0-0.1-0.2-0.399-0.3,0c-0.101,0.3-0.2,0.5-0.301,0.8c0,0,0.101,0.101,0.2,0.101
			c0.101-0.3,0.2-0.601,0.3-0.9c-0.1,0-0.1-0.1-0.199-0.1c0,0.2-0.101,0.5-0.2,0.7c0,0.1,0.1,0.399,0.2,0.199
			c0.1-0.199,0.199-0.3,0.3-0.5c-0.101-0.1-0.101-0.1-0.2-0.199c0,0.199-0.1,0.3-0.2,0.5C6.162,13,6.162,13,6.262,13.1
			c0.1-0.199,0.1-0.399,0.2-0.6c0.1-0.1-0.101-0.3-0.2-0.1c-0.1,0.1-0.1,0.3-0.2,0.5c0.101,0,0.101,0.1,0.2,0.1
			c0.1-0.3,0.2-0.6,0.2-0.9c0-0.1-0.101-0.199-0.2-0.1c-0.1,0.3-0.2,0.5-0.3,0.8c0.1,0,0.1,0.101,0.2,0.101
			C6.262,12.6,6.361,12.3,6.361,12c0-0.1-0.1-0.3-0.199-0.1c-0.101,0.199-0.2,0.5-0.301,0.8c0.101,0,0.101,0.1,0.2,0.1
			c0-0.3,0.101-0.5,0.2-0.8c-0.1,0-0.1-0.1-0.2-0.1c-0.2,0.5-0.3,1.1-0.3,1.6c0,0.1,0.1,0.3,0.2,0.1c0.1-0.3,0.2-0.5,0.3-0.8
			c-0.1,0-0.1-0.1-0.2-0.1c0,0.2-0.3,0.5-0.3,0.7c0,0.1,0.1,0.399,0.2,0.199c0.1-0.199,0.2-0.399,0.3-0.6l-0.1-0.1
			c-0.101,0.199-0.2,0.3-0.301,0.5c0.101,0,0.101,0.1,0.2,0.199c0.101-0.199,0.2-0.399,0.3-0.6c-0.1,0-0.199-0.1-0.199-0.2
			c-0.101,0.4-0.2,0.8-0.301,1.2c0.101,0.1,0.2,0.1,0.301,0.1c0-0.199,0-0.5,0.1-0.699c0,0-0.1-0.101-0.2-0.101
			c-0.2,0.5-0.2,1.2-0.399,1.7c0,0,0.1,0,0.199,0c-0.1-0.6,0.2-1.2,0.2-1.7c0-0.1-0.1-0.3-0.2-0.2c-0.1,0-0.1,0-0.1,0
			c0.1,0.101,0.1,0.101,0.2,0.2c0-0.2,0-0.3,0-0.399c0-0.2-0.2-0.301-0.2-0.101s-0.1,0.4-0.2,0.5c-0.2,0.101,0,0.5,0.101,0.3
			c0.199-0.199,0.3-0.399,0.3-0.699c-0.101,0-0.101-0.101-0.2-0.101c-0.1,0.101-0.1,0.3-0.1,0.4c0,0.1,0.1,0.3,0.199,0.2
			c0.101,0,0.101,0,0.101,0c-0.101-0.101-0.101-0.101-0.2-0.2c0,0.7-0.4,1.2-0.2,1.899c0,0.101,0.2,0.101,0.2,0
			c0.2-0.6,0.3-1.199,0.4-1.8c0.1-0.2-0.101-0.3-0.2-0.1c-0.101,0.3-0.101,0.5-0.101,0.8c0,0.2,0.2,0.3,0.301,0.1
			c0.1-0.399,0.199-0.8,0.3-1.199c0.1-0.2-0.101-0.4-0.2-0.2s-0.2,0.399-0.3,0.6c-0.101,0.2,0.1,0.4,0.2,0.2
			c0.1-0.2,0.199-0.4,0.3-0.6c0-0.101-0.101-0.4-0.2-0.2s-0.2,0.399-0.3,0.6c0.1,0.101,0.1,0.101,0.2,0.2c0.1-0.3,0.3-0.5,0.3-0.8
			c0-0.101-0.101-0.3-0.2-0.101c-0.1,0.2-0.2,0.4-0.3,0.7c0,0,0.1,0.101,0.2,0.101c0-0.5,0.1-1,0.199-1.5c0,0-0.1-0.2-0.199-0.101
			c-0.2,0.3-0.301,0.601-0.301,0.9c0,0.2,0.101,0.3,0.2,0.1c0.101-0.3,0.2-0.5,0.3-0.8c-0.1,0-0.1-0.1-0.199-0.1
			c-0.101,0.3-0.101,0.6-0.2,0.899c0,0.101,0.1,0.3,0.2,0.101c0.1-0.301,0.199-0.601,0.3-0.801c-0.101,0-0.101-0.1-0.2-0.1
			c0,0.3-0.1,0.5-0.2,0.8c0,0.101,0.101,0.3,0.2,0.101c0-0.101,0.1-0.301,0.2-0.5c-0.101,0-0.101,0-0.2-0.101c0,0.2,0,0.3-0.1,0.5
			c-0.101,0.2,0.1,0.4,0.199,0.2C6.462,12.8,6.462,12.6,6.462,12.3c0.1,0,0-0.2-0.2-0.2c-0.1,0.2-0.2,0.301-0.3,0.5
			c0.1,0,0.1,0.101,0.2,0.2c0.1-0.2,0.199-0.5,0.3-0.8c0-0.1-0.101-0.3-0.2-0.1c-0.1,0.399-0.2,0.699-0.3,1
			c-0.101,0.199,0.1,0.5,0.2,0.199C6.262,12.8,6.361,12.6,6.462,12.3L6.462,12.3z"/>
	</g>
	<g>
		<path fill="#EE2C48" d="M2.762,12.5C2.762,12.4,2.762,12.5,2.762,12.5c0,0.1,0,0.2,0.2,0.4c0,0.1,0,0.199,0.1,0.3
			c0-0.101,0.101-0.2,0.101-0.3c-0.101,0-0.2-0.101-0.2-0.101l-0.101-0.1c-0.1,0-0.1,0.1-0.1,0.1s0.1,0.101,0.1,0.2
			s0.101,0.1,0.101,0.2c0.1,0.2,0.2,0,0.2-0.101c0-0.1-0.101-0.3-0.2-0.399C2.962,12.6,2.861,12.5,2.762,12.5L2.762,12.5z"/>
	</g>
	<g>
		<path fill="#EE2C48" d="M2.062,11.3c0.101-0.1,0-0.4-0.1-0.2c-0.2,0.1-0.2,0.3-0.3,0.5c-0.101,0.101-0.2,0.301-0.2,0.5
			c0,0.101,0.1,0.301,0.2,0.2c0.1-0.1,0.1-0.3,0.199-0.5C1.861,11.6,1.962,11.5,2.062,11.3L2.062,11.3z"/>
	</g>
	<g>
		<path fill="#EE2C48" d="M1.962,11.9C1.962,11.8,1.962,11.7,1.962,11.9c-0.2-0.101-0.3,0-0.4,0.1c0,0-0.1,0-0.2,0.2v0.1
			C1.662,12.3,1.861,12,1.962,11.9L1.962,11.9z"/>
	</g>
	<g>
		<path fill="#EE2C48" d="M1.062,11.4c0,0.1,0,0.3,0.101,0.199l0.1-0.1C1.162,11.5,1.162,11.4,1.062,11.4
			c0.101,0.1,0.101,0.199,0.2,0.3l0.1-0.101c-0.1-0.199-0.1-0.3-0.199-0.399c-0.101,0-0.101,0-0.101,0c-0.2,0.399-0.399,0-0.5-0.3
			c0,0.1-0.1,0.1-0.1,0.2c0.1,0.1,0.2,0.3,0.3,0.4s0.1-0.2,0.1-0.2c-0.1-0.2-0.199-0.4-0.3-0.6c-0.1-0.1-0.1,0-0.1,0.1
			c0,0.7-0.101,1.4,0,2.101c0,0.199,0.1,0,0.1-0.101c-0.1-0.7,0-1.3,0-2l-0.1,0.1c0.1,0.2,0.2,0.4,0.3,0.6c0,0,0.1-0.1,0.1-0.2
			c-0.1-0.1-0.199-0.2-0.3-0.4c-0.1-0.1-0.1,0.2-0.1,0.2c0.1,0.2,0.1,0.5,0.3,0.6c0.1,0,0.1,0,0.2,0c0.2-0.101,0.2-0.3,0.3,0
			c0,0.2,0.1,0,0.1-0.101c-0.1-0.1-0.1-0.1-0.1-0.3c0-0.1-0.1-0.1-0.1-0.1C1.062,11.3,1.062,11.3,1.062,11.4L1.062,11.4z"/>
	</g>
	<g>
		<path fill="#EE2C48" d="M1.562,13.5c-0.1-0.2-0.1,0.1-0.1,0.2c0.1,0.2,0.2,0.399,0.399,0.6c0.101,0.101,0.101-0.2,0.101-0.2
			c0-0.1,0-0.199-0.101-0.3c-0.1-0.1-0.1,0.101-0.1,0.2c0,0,0.1,0.1,0.1,0.2c0-0.101,0.101-0.101,0.101-0.2
			C1.762,13.9,1.662,13.7,1.562,13.5L1.562,13.5z"/>
	</g>
	<g>
		<path fill="#EE2C48" d="M1.361,13.8c-0.1-0.2-0.1,0-0.1,0.101c0.1,0.3,0.3,0.399,0.5,0.699c0.1,0,0.1-0.1,0.1-0.199
			C1.662,14.2,1.462,14.1,1.361,13.8c-0.1-0.1-0.199,0.2-0.1,0.4c0.1,0.1,0.2,0.3,0.3,0.399c0-0.1,0-0.199,0-0.3
			c-0.1-0.1-0.3-0.2-0.3-0.3s-0.1-0.2-0.1-0.1c0,0.1,0,0.1,0,0.199c0.1,0.2,0.199,0.301,0.399,0.4c0.101,0,0.101-0.3,0-0.3
			C1.462,14.1,1.361,14,1.361,13.8c-0.1,0.101-0.1,0.2-0.199,0.3c0.199,0.2,0.399,0.4,0.6,0.601c0.1,0,0.1-0.101,0.1-0.101
			c0-0.1,0-0.1,0-0.199C1.762,14.2,1.462,14.1,1.361,13.8L1.361,13.8z"/>
	</g>
	<g>
		<path fill="#EE2C48" d="M1.462,13.7C1.462,13.7,1.361,13.6,1.462,13.7c-0.2,0-0.2,0.1-0.101,0.2c0,0.1,0.101,0.3,0.2,0.399
			c0.101,0,0.101-0.1,0.101-0.1c0-0.101,0-0.101,0-0.2C1.562,13.9,1.462,13.8,1.462,13.7c-0.101,0-0.2,0-0.101,0c0,0.1,0,0.1,0,0.2
			c0.101,0.1,0.101,0.199,0.2,0.3c0.101,0,0.101-0.101,0.101-0.2C1.562,13.9,1.462,13.8,1.462,13.7L1.462,13.7z"/>
	</g>
	<g>
		<path fill="#EE2C48" d="M1.861,13.9c0-0.101-0.1,0.1,0.101,0.199c0.1,0.2-0.101,0,0,0c-0.101,0-0.101,0.2-0.101,0.2
			c0,0.3,0.2,0.5,0.301,0.7l0.1-0.1c0-0.101,0-0.101,0-0.2c-0.2-0.3-0.5-0.7-0.7-1c-0.1-0.101-0.1,0.1-0.1,0.2
			c0.2,0.3,0.5,0.6,0.7,1c0.1,0,0.1-0.101,0.1-0.2c-0.1-0.2-0.2-0.4-0.3-0.601C1.861,14.2,1.861,14.2,1.861,14.3
			C2.062,14.4,1.962,14,1.861,13.9L1.861,13.9z"/>
	</g>
	<g>
		<path fill="#EE2C48" d="M1.861,11.9C1.861,11.8,1.861,11.9,1.861,11.9c-0.1,0.1-0.1,0.199-0.199,0.199
			c0.1,0.101,0.1,0.101,0.199,0.2c0-0.1,0-0.1,0-0.2c0,0-0.1-0.199-0.199-0.199c-0.5,0.199-0.5,0.8-0.301,1.199
			c0.101,0.2,0.301,0,0.2-0.199c0-0.101,0-0.2-0.1-0.301c-0.101-0.199-0.2,0-0.2,0.101c0,0.3,0.1,0.5,0.1,0.8
			c0.101,0,0.101-0.1,0.2-0.1c-0.1-0.2-0.1-0.4-0.2-0.601c0-0.3-0.199,0-0.199,0.101c0.1,0.699,0.399,1.199,0.8,1.8
			c0.2,0.1,0.3-0.2,0.2-0.3c-0.2-0.2-0.5-0.4-0.7-0.7c-0.101-0.101-0.101,0-0.101,0.1C1.462,13.9,1.462,14,1.462,14.1l0.1-0.1
			c-0.2-0.3-0.3-0.6-0.3-1c0-0.2-0.2-0.1-0.2,0c0,0.4,0,0.7,0.101,1c0.1,0,0.1,0,0.1,0c-0.1-0.2-0.1-0.3-0.2-0.5c0-0.1,0,0,0,0
			c0,0.2,0,0.4,0.101,0.6c0.1,0.2,0.199,0,0.199-0.1c0-0.3-0.1-0.6-0.1-0.9c-0.1,0-0.1,0-0.2,0c0,0.4,0.101,0.801,0.3,1.101
			c0.101,0.1,0.101,0,0.101-0.101C1.361,14,1.361,13.9,1.361,13.8l-0.1,0.101c0.2,0.3,0.5,0.399,0.6,0.8
			c0.101-0.101,0.101-0.101,0.2-0.2c-0.3-0.5-0.6-1-0.7-1.6c0,0-0.1,0.1-0.199,0.1c0.1,0.3,0.199,0.5,0.3,0.7
			c0.1,0.2,0.2,0,0.2-0.101c0-0.3-0.101-0.5-0.101-0.8c-0.1,0-0.1,0.101-0.2,0.101c0,0.1,0.101,0.199,0.101,0.3
			c0-0.101,0.1-0.101,0.2-0.2c-0.101-0.2-0.2-0.5,0.1-0.6c-0.1-0.101-0.1-0.101-0.2-0.2c0,0.1,0,0.1,0,0.2
			c0,0.1,0.101,0.199,0.2,0.1C1.962,12.3,1.962,12.1,1.861,11.9L1.861,11.9z"/>
	</g>
	<g>
		<path fill="#EE2C48" d="M1.162,13.5C1.162,13.5,1.062,13.5,1.162,13.5c-0.101,0.2-0.101,0.3,0,0.5c0,0.2,0.1,0.1,0.1,0
			c0-0.4-0.1-0.7-0.3-1c-0.101-0.1-0.2-0.1-0.2,0c0,0,0,0.1,0,0.2c0.1,0.2,0.1,0.399,0.2,0.6c0,0.101,0.1,0.3,0.2,0.4
			c0.199,0,0.199-0.101,0.199-0.2C1.361,13.8,1.262,13.7,1.162,13.5c0-0.1-0.101-0.3-0.101-0.3s-0.1,0.1-0.2,0.1
			c0.101,0.101,0.101,0.3,0.2,0.4c0,0.1,0,0.3,0.101,0.399c0-0.1,0.1-0.199,0.1-0.199C1.162,13.8,1.162,13.6,1.162,13.5L1.162,13.5z
			"/>
	</g>
	<g>
		<path fill="#EE2C48" d="M0.662,13L0.662,13c0-0.1-0.101,0.3,0.199,0.2l0.101,0.1c0,0-0.101,0-0.2,0h0.1c-0.1,0-0.1-0.1-0.1-0.2
			c-0.1,0.101-0.1,0.101-0.2,0.2c0,0.2,0.101,0.3,0.101,0.4c0.1,0,0.1-0.101,0.199-0.101c-0.1-0.1-0.199-0.3-0.199-0.5
			c0,0.101-0.101,0.2-0.101,0.301c0.2,0.1,0.3,0,0.4-0.2c0-0.101,0.1-0.2,0-0.2c-0.3-0.2-0.3-0.6-0.4-0.9
			c-0.1,0.101-0.1,0.101-0.1,0.2l0,0l-0.101-0.1c0,0.3,0,0.7,0.101,1c0,0.2,0.2,0.1,0.2-0.101c-0.101-0.5-0.101-0.8,0.199-1.199
			c0.101-0.101,0.101-0.2,0.101-0.2c0.1,0,0.2-0.2,0.1-0.3c-0.2-0.2-0.3-0.4-0.399-0.601c-0.101,0.1-0.101,0.1-0.2,0.2
			c0.2,0.3,0.3,0.6,0.6,0.9c0.101,0.1,0.2-0.2,0.101-0.301c-0.301-0.3-0.4-0.6-0.601-0.899c-0.1-0.2-0.3,0.2-0.2,0.3
			c0.101,0.2,0.301,0.4,0.4,0.6c0-0.1,0.1-0.199,0.1-0.3c-0.399-0.1-0.199,0.3-0.399,0.5c-0.3,0.4-0.101,0.7-0.101,1.2
			c0.101,0,0.101,0,0.2,0c0-0.3-0.1-0.6-0.1-0.9c0,0,0-0.1-0.101-0.1l0,0c-0.1-0.1-0.1,0-0.1,0.1c0,0.4,0.1,0.9,0.5,1.101
			C0.662,13.1,0.662,13,0.662,13S0.562,12.9,0.662,13c-0.2-0.2-0.2,0.1-0.2,0.2c0,0.3,0.1,0.5,0.3,0.6c0.1,0.101,0.1-0.2,0.1-0.2
			c-0.1-0.3-0.1-0.3-0.199-0.5c-0.101-0.1-0.2,0.101-0.2,0.2c0,0.101,0,0.101,0.1,0.2c0,0.1,0.101,0.1,0.101,0
			C0.762,13.3,0.762,13.2,0.662,13C0.662,12.9,0.662,12.9,0.662,13c-0.101-0.1-0.101-0.1-0.101-0.1c-0.1,0-0.1,0.1-0.1,0.1
			c0,0.5,0.399,0.5,0.3,0.1C0.762,13.1,0.762,13.1,0.662,13c0,0.1,0,0.1,0,0.2c-0.101,0.1,0,0.3,0.1,0.2l0,0c0-0.101,0-0.101,0-0.2
			C0.762,13.2,0.662,13.1,0.662,13L0.662,13z"/>
	</g>
	<g>
		<path fill="#F15B4F" d="M7.962,6.9c0.1-0.1,0-0.4-0.101-0.2c-0.199,0.1-0.3,0.3-0.3,0.5c-0.1,0.2-0.2,0.4-0.2,0.6
			c0,0.1,0.101,0.3,0.2,0.2C7.861,7.7,7.762,7.2,7.962,6.9L7.962,6.9z"/>
	</g>
	<g>
		<path fill="#F15B4F" d="M7.062,5.9C7.162,5.8,7.062,5.7,7.062,5.9c-0.1,0-0.2,0.1-0.399,0.1l0.1,0.1c0-0.2,0-0.3,0-0.4h-0.1
			c0,0.1,0.1,0.1,0.1,0.2s0.1,0.1,0.1,0V5.8c0,0-0.1-0.1-0.1,0c0,0.2,0,0.3-0.1,0.4c0,0.1,0.1,0.1,0.1,0.1
			C6.762,6.2,6.861,6.1,7.062,5.9h-0.1c0,0-0.101,0.1-0.101,0.2c-0.1,0.1,0,0.1,0,0.1C6.962,6.1,7.062,6,7.062,5.9L7.062,5.9
			C7.062,6,7.062,6,7.062,5.9C7.162,5.8,7.162,5.7,7.062,5.9C7.062,5.8,7.062,5.9,7.062,5.9c-0.1,0-0.1,0.2,0,0.1
			C7.062,6,7.062,6,7.062,5.9C7.162,5.9,7.162,5.8,7.062,5.9C7.062,5.8,7.062,5.9,7.062,5.9V6C7.062,5.9,7.062,5.9,7.062,5.9
			c0-0.1,0-0.2,0-0.3c0,0.1-0.1,0.1-0.1,0.2h0.1c0-0.1,0-0.1,0-0.2c0,0-0.1-0.1-0.1,0s0,0.1,0,0.1c0,0.1,0,0.1,0,0.1l0,0
			c0-0.1-0.101-0.1-0.101,0c0,0.1,0,0.2-0.1,0.3c0,0.1,0.1,0.1,0.1,0.1c0-0.2,0.2-0.5,0-0.7c-0.3-0.3-0.5,0.1-0.6,0.3
			c0,0.1,0,0.2,0.2,0.2c0-0.1,0.1-0.2,0.2-0.3L6.562,5.6c-0.1,0.1-0.1,0.1-0.2,0.2c0.101,0,0.101,0.1,0.101,0.1l0.1-0.1
			c-0.1-0.1-0.1-0.1-0.1-0.2c-0.101,0.1-0.2,0.3-0.3,0.4l0.1,0.1c0-0.2,0.1-0.4,0.1-0.6h-0.1c0,0.1,0,0.1,0,0.2c0,0.1,0.1,0.1,0.1,0
			c0-0.4-0.199-0.3-0.399-0.1c0,0.1,0.1,0.1,0.1,0.2c0-0.1,0.101-0.1,0.101-0.2c0.1-0.1,0.1-0.2,0.1-0.2c-0.1,0.1-0.3,0.3-0.5,0.4
			c0.1,0.1,0.1,0.1,0.1,0.2c0-0.2,0.101-0.3,0.2-0.5l-0.1-0.1c0,0.1-0.101,0.2-0.101,0.3c0,0.1,0.101,0.1,0.101,0.1
			c0-0.2,0.1-0.3,0.2-0.3c-0.101,0-0.101-0.1-0.101-0.1v0.1h0.101c-0.101,0-0.101,0-0.101,0h0.101c-0.101,0-0.101,0-0.101,0
			c0,0.1,0.101,0.1,0.101,0.1c0-0.1,0-0.1,0-0.1c0-0.1-0.101-0.1-0.101-0.1c-0.1,0.1-0.2,0.1-0.3,0.2c0,0.1,0.1,0.1,0.1,0.2
			c0.2-0.4-0.3-0.9-0.6-0.4c0,0,0,0.2,0.1-0.1c0.2,0,0.301-0.1,0.4-0.2h-0.1c0.1,0.2,0,0.4,0,0.6h0.1c0-0.2,0.1-0.4,0.1-0.6L5.762,5
			c-0.1,0-0.2,0.1-0.3,0.2c-0.101,0.2-0.3,0.3-0.5,0.4l0.1,0.1c0-0.3,0.101-0.5,0.101-0.8c0,0,0-0.1-0.101-0.1
			c-0.3,0.1-0.399,0.4-0.7,0.5c0.101,0.1,0.101,0.1,0.101,0.2c0.1-0.1,0.1-0.3,0.2-0.4V5c-0.101,0-0.2-0.1-0.301-0.1
			c-0.1,0-0.199,0.1-0.1,0.2c0,0.1,0.1,0.2,0.1,0.3h0.101c0.1,0,0.1,0,0.1-0.1c0-0.1-0.1-0.1-0.1-0.1s0,0.1-0.101,0.2h0.101
			C4.361,5.3,4.361,5.2,4.361,5.1l-0.1,0.1c0.1,0.2,0.1,0.3,0,0.4s0,0.2,0.1,0.3l0.101-0.1c0,0,0-0.2-0.101-0.1l-0.1,0.1l0.1,0.1
			c0.2-0.3,0.2-0.4,0.101-0.7c0-0.1-0.101,0-0.101,0.1c0,0.1,0.101,0.2,0.101,0.3h0.1c0-0.1,0.101-0.2,0.101-0.4
			c0-0.1-0.101-0.2-0.101-0.1c-0.1,0.1-0.2-0.1-0.2-0.1c-0.1,0-0.1,0.1-0.1,0.2c0.1,0,0.1,0,0.2,0.1c0-0.1,0-0.2,0-0.2
			c-0.101,0.1-0.2,0.3-0.2,0.4c0,0,0,0.2,0.3,0.2c0.3-0.1,0.4-0.4,0.7-0.5l-0.1-0.1c0,0.3-0.101,0.5-0.101,0.8c0,0,0,0.2,0.101,0.1
			c0.1-0.1,0.3-0.2,0.399-0.3c0.101-0.1,0.101-0.3,0.3-0.3c-0.1,0-0.1-0.1-0.1-0.1c0,0.2-0.1,0.4-0.1,0.6c0,0.1,0.1,0.1,0.1,0
			c0-0.2,0.1-0.4,0-0.7h-0.1c-0.101,0.1-0.2,0.2-0.301,0.2c0.101,0.1,0.101,0.1,0.101,0.2c0.2-0.2,0.6-0.1,0.399,0.2
			c0,0,0,0.2,0.101,0.1c0.1,0,0.2-0.1,0.3-0.2h-0.1c0,0.1,0,0.1,0,0.1h0.1c0.1-0.1,0.2-0.3,0-0.3c-0.1,0-0.1,0-0.1,0
			c-0.101,0-0.101,0-0.101,0.1c0,0,0.101,0.1,0.101,0c0,0,0.1-0.1,0-0.2l0,0c-0.101,0-0.101,0.1-0.101,0.2c0,0,0.101,0.1,0.101,0
			s0-0.1,0-0.2c0,0,0-0.1-0.101-0.1c-0.2,0.1-0.3,0.2-0.3,0.4c0,0.1,0.1,0.2,0.1,0.1c0-0.1,0.101-0.2,0.101-0.3s0-0.2-0.101-0.1
			c-0.199,0.1-0.199,0.3-0.3,0.5c0,0.1,0,0.2,0.101,0.2c0.199-0.1,0.399-0.3,0.6-0.4c0-0.1-0.1-0.1-0.1-0.2
			c0,0.1-0.101,0.1-0.101,0.2c0,0,0,0.2,0.101,0.1c0,0,0.199-0.3,0.199-0.1h0.101c0-0.1,0-0.1,0-0.2s-0.101-0.1-0.101,0
			C6.262,5.7,6.162,6,6.162,6.2c0,0,0,0.2,0.1,0.1c0.2-0.2,0.3-0.3,0.4-0.5c0-0.1,0-0.3-0.101-0.2c-0.1,0.1-0.1,0.1-0.2,0.2
			c-0.1,0,0,0.2,0.301,0.1c0.1-0.1,0.1-0.2,0.199-0.3c0,0,0-0.2-0.1-0.1s-0.2,0.2-0.3,0.3l0.1,0.1c0,0,0.101-0.1,0.101-0.2
			c0.3-0.1,0.399-0.1,0.3,0.1c0,0.1,0,0.1,0,0.1C6.861,6,6.861,6.1,6.861,6.2c0,0.1,0.101,0.2,0.101,0.1
			C6.962,6.1,7.062,6,7.062,5.9h-0.1l0,0c0,0.1,0,0.1,0,0.1l0,0l0,0V5.9H6.861c0,0.1,0,0.1,0,0.2c0,0,0.101,0.1,0.101,0
			S6.962,5.9,7.062,5.9c0-0.1,0-0.1-0.1-0.1c0,0.1,0,0.1,0,0.2s0.1,0.1,0.1,0.1C7.062,6,7.062,6,7.062,5.9
			C7.262,5.9,7.162,5.7,7.062,5.9C7.062,5.8,7.062,5.9,7.062,5.9V6V5.9C7.162,5.8,7.062,5.8,7.062,5.9c0,0,0,0,0,0.1
			c-0.1,0.1,0,0.1,0,0.1C7.062,6,7.062,6,7.062,5.9C7.162,5.9,7.162,5.8,7.062,5.9c0,0-0.1,0.1-0.2,0.2v0.1
			C6.962,6.1,6.962,6,7.062,5.9c0,0,0-0.1-0.1-0.2c-0.2,0.2-0.2,0.3-0.3,0.5c0,0.1,0.1,0.2,0.1,0.1c0-0.1,0.1-0.3,0.1-0.4h-0.1V6
			h0.1c-0.1-0.1-0.1-0.1-0.1-0.2c0-0.1-0.1-0.1-0.1,0c0,0.1,0,0.3,0,0.4c0,0.1,0,0.2,0.1,0.1C6.861,6.2,6.962,6.1,7.062,5.9
			L7.062,5.9z"/>
	</g>
	<g>
		<path fill="#F15B4F" d="M6.262,5.5c0.1,0,0.1-0.1,0-0.1h-0.1C6.162,5.4,6.162,5.5,6.262,5.5c0-0.1,0-0.1,0.1-0.1
			c0-0.1-0.1-0.1-0.1,0l0,0l0,0h-0.1c-0.101,0-0.101,0-0.101,0v0.1C6.162,5.5,6.262,5.6,6.262,5.5V5.4h-0.1l0,0l0,0
			c-0.101,0,0,0.1,0,0.1H6.262L6.262,5.5z"/>
	</g>
	<g>
		<path fill="#F15B4F" d="M4.262,5.2C4.361,5.1,4.361,5.1,4.262,5.2c-0.1-0.1-0.2-0.1-0.3,0.1c-0.101,0-0.101,0-0.2,0.1
			c0,0,0,0.2,0.1,0.1c0.101-0.1,0.101-0.1,0.101-0.2c0,0,0-0.1-0.101-0.1c-0.1,0-0.1,0.1-0.1,0.1l0.1,0.1c0.101,0,0.101-0.1,0.2-0.1
			C4.162,5.3,4.162,5.3,4.262,5.2L4.262,5.2z"/>
	</g>
	<g>
		<path fill="#FFCB66" d="M5.462,5.7c0.1,0,0-0.2-0.101,0c-0.199,0.1-0.3,0.2-0.399,0.4v0.1h0.1C5.262,6,5.361,5.9,5.462,5.7
			L5.462,5.7z"/>
	</g>
	<g>
		<path fill="#FFCB66" d="M5.361,5.9c0,0,0,0,0-0.1C5.361,5.8,5.262,5.8,5.361,5.9c-0.1,0-0.199,0.1-0.199,0.2c0,0,0.1,0.1,0.1,0
			C5.262,6.1,5.361,6,5.361,5.9C5.361,6,5.361,5.9,5.361,5.9C5.262,5.8,5.262,5.9,5.361,5.9c-0.1,0-0.1,0.1-0.1,0.2l0,0
			C5.361,6,5.361,6,5.361,5.9c-0.1,0.1-0.1,0-0.1,0c0,0.1-0.1,0.1-0.1,0.1l0.1,0.1C5.361,6,5.361,6,5.361,5.9L5.361,5.9z"/>
	</g>
	<g>
		<path fill="#FFCB66" d="M1.962,6.7c0.1,0,0-0.2-0.101-0.1c-0.199,0.2-0.3,0.4-0.5,0.6c0,0.1,0.101,0.1,0.101,0.2
			c0.1-0.2,0.2-0.3,0.2-0.5c0,0,0-0.1-0.101-0.1c-0.1,0-0.2,0.1-0.2,0.2c0,0,0,0.2,0.101,0.1c0.1-0.1,0.2-0.2,0.2-0.3
			c0,0,0-0.1-0.101-0.1c-0.1,0.1-0.1,0.1-0.2,0.2L1.462,7c0.1,0,0.1-0.1,0.2-0.1L1.562,6.8c0,0.2-0.1,0.3-0.2,0.4
			c0,0.1,0,0.3,0.101,0.2C1.662,7.2,1.762,6.9,1.962,6.7L1.962,6.7z"/>
	</g>
	<g>
		<path d="M10.762,8.9c0.5,0,0.5-1,0-1C10.362,7.9,10.362,8.9,10.762,8.9L10.762,8.9z"/>
	</g>
	<g>
		<path d="M11.162,8c-0.1,0.1-0.1,0.2,0,0.3v0.1C11.162,8.3,11.162,8.2,11.162,8C11.262,8.1,11.162,8.1,11.162,8
			c-0.1,0-0.2,0.1-0.2,0.2c-0.1,0.1-0.2,0.1-0.2,0.2c-0.1,0.2-0.2,0.4-0.1,0.6c0.1,0.1,0.2,0.3,0.4,0.2c0.1,0,0.2,0,0.3-0.1
			c-0.1-0.3-0.2-0.6-0.3-1c-0.1,0-0.1,0.1-0.1,0.1c0.1-0.1,0,0,0,0c-0.1,0,0.1,0,0,0h-0.1c0.1,0,0,0,0,0h-0.1c0,0-0.1,0,0,0h-0.1
			c-0.1,0-0.1,0-0.1,0c-0.1,0,0.1,0.1,0,0c-0.1-0.1-0.1-0.1-0.1-0.1c0.1,0.1,0,0,0,0c0.1,0.2,0.1,0.3,0,0.5c0.1-0.1-0.1,0.1,0,0
			c0,0,0.1,0,0,0c0.2-0.1,0.3-0.1,0.4-0.1s-0.1,0,0,0s-0.1-0.1,0,0l0,0c0-0.1,0-0.1,0-0.1c0,0.1,0-0.1,0,0c0-0.1,0-0.2,0-0.1V8.2
			c0,0.1-0.1,0.1,0,0c0,0-0.1,0.1,0,0c0,0.1,0,0.1,0,0.1c-0.1,0.1,0.1-0.1,0,0c-0.1,0.1-0.1,0.1-0.1,0.1c0.1-0.1,0,0,0,0l-0.1,0.1
			c-0.2,0.2-0.2,0.4-0.2,0.6c0,0.1,0.1,0.4,0.2,0.4c0.2,0.1,0.3,0,0.5-0.1c0.1-0.1,0.1-0.2,0.2-0.3c0.2-0.3,0.301-0.6,0.2-0.9
			c-0.1-0.3-0.3-0.6-0.6-0.6c-0.2-0.1-0.5,0.1-0.7,0.2c-0.5,0.3-0.5,1.2,0,1.5c0.2,0.1,0.5,0.2,0.7,0.1c0.3,0,0.5-0.3,0.6-0.5
			c0.101-0.3,0-1-0.4-0.7c-0.1,0-0.1,0.1-0.2,0.1c0.1,0.2,0.2,0.5,0.3,0.7c0-0.1,0.1-0.2,0.1-0.2s-0.1,0.1-0.2,0.2
			c0.4-0.1,0.5-0.5,0.5-0.8C11.562,8,11.262,7.8,11.162,8L11.162,8z"/>
	</g>
	<g>
		<path d="M15.162,7.7C15.162,7.6,15.062,7.6,15.162,7.7c-0.101,0-0.101,0-0.101-0.1c0,0.1,0,0.1,0,0.2
			C15.162,7.8,15.162,7.7,15.162,7.7h-0.101c-0.1,0.1-0.1,0.2,0,0.2l0,0c0.101,0,0.101-0.1,0.101-0.1c0-0.1,0-0.1,0-0.2
			c-0.101,0-0.101,0.1-0.101,0.1c0,0.1,0.101,0.1,0.101,0.1l0,0C15.162,7.9,15.162,7.8,15.162,7.7c-0.101,0.1-0.2,0.1-0.5,0.3
			c0.1,0,0.1,0,0.1,0V7.9V8c0.1,0,0.1,0,0.1,0l0,0l0,0l0,0c0,0.1,0,0,0,0c0.101,0,0.101,0,0.101,0c0-0.1-0.101-0.1-0.101-0.1l0,0
			l0,0V8c0.101,0,0.101-0.1,0.101-0.1l0,0c0,0.1,0,0.1,0,0.1l0,0c0.1,0,0.1,0,0.1,0c0-0.1,0-0.2-0.1-0.2l0,0
			c-0.101,0-0.101,0-0.101,0v0.1V8c0.101,0,0.101,0,0.101,0c0.1-0.1,0.2-0.1,0.2-0.2c0-0.1-0.101-0.2-0.2-0.2
			c-0.101,0-0.101,0.1-0.101,0.1c0,0.1,0,0.1,0,0.2c0.101-0.1,0.101-0.1,0.101-0.1l0,0c-0.101,0-0.101,0.2,0,0.2h0.1
			c0.101,0,0.101-0.1,0.101-0.1C15.162,7.8,15.162,7.8,15.162,7.7L15.162,7.7L15.162,7.7z"/>
	</g>
	<g>
		<path d="M14.962,7.7c0,0.1,0.1,0.1,0.1,0C15.062,7.7,15.062,7.8,14.962,7.7C15.062,7.8,15.062,7.8,14.962,7.7
			C14.962,7.8,14.962,7.8,14.962,7.7C14.962,7.8,15.062,7.8,14.962,7.7C15.062,7.8,14.962,7.8,14.962,7.7L14.962,7.7
			c0.1,0.1,0.1,0.1,0.1,0C15.062,7.7,15.062,7.7,14.962,7.7c0.1-0.1,0.1-0.1,0.1-0.2C14.962,7.5,14.962,7.6,14.962,7.7
			C14.861,7.7,14.962,7.8,14.962,7.7C14.962,7.8,14.962,7.8,14.962,7.7C15.062,7.8,15.062,7.8,14.962,7.7
			C15.062,7.8,15.062,7.8,14.962,7.7c0,0.1,0,0,0-0.1l0,0l0,0V7.7c0.1,0.1,0.1,0.1,0.3,0.1l0,0l0,0l0,0c0-0.1,0-0.1,0-0.2
			c-0.1,0.1-0.2,0.2-0.2,0.3l0,0l0,0l0,0l0,0c0,0.1,0,0,0,0C15.062,7.8,15.062,7.8,14.962,7.7C15.062,7.8,15.062,7.7,14.962,7.7
			c0.1,0,0.1,0,0.1,0c0.101,0,0,0,0,0l0,0c0,0-0.1,0,0,0C15.062,7.7,15.062,7.7,14.962,7.7C15.062,7.7,15.062,7.7,14.962,7.7
			C14.962,7.6,15.062,7.7,14.962,7.7C15.062,7.7,15.062,7.7,14.962,7.7C15.062,7.7,15.062,7.6,14.962,7.7
			C15.062,7.7,15.062,7.6,14.962,7.7C15.062,7.7,15.062,7.7,14.962,7.7C15.062,7.7,15.062,7.7,14.962,7.7
			C15.062,7.7,15.062,7.7,14.962,7.7C15.062,7.7,15.062,7.7,14.962,7.7c0.1-0.1,0.1-0.1,0.1-0.2c0,0-0.1,0.1-0.2,0.1
			C14.861,7.7,14.962,7.7,14.962,7.7S14.962,7.8,14.962,7.7c0.1,0.1,0.1,0.2,0.2,0.1c0.1,0,0.1,0,0.1-0.1c0,0.1,0,0,0,0V7.6V7.5
			c0-0.1,0-0.2-0.1-0.2c-0.2,0-0.4,0-0.601,0.1c-0.1,0.1-0.1,0.3,0,0.4c0.101,0.1,0.101,0.1,0.2,0.1S14.861,7.8,14.962,7.7
			C14.861,7.8,14.962,7.8,14.962,7.7C14.861,7.8,14.962,7.7,14.962,7.7s0.1,0,0.1-0.1s-0.1-0.1-0.1-0.2
			C14.962,7.5,14.962,7.6,14.962,7.7c0.1,0,0.2-0.1,0.3-0.1c-0.1-0.2-0.1-0.3-0.3-0.3c-0.101-0.1-0.2,0-0.2,0.1c0,0.2-0.1,0.4,0,0.6
			c0.1,0.1,0.2,0.2,0.3,0.2c0.101,0,0.2-0.2,0.3-0.3c0-0.2-0.1-0.3-0.1-0.5c-0.1,0-0.2,0-0.2,0c-0.1,0-0.1,0.1-0.1,0.2s0-0.1,0,0
			C14.962,7.6,14.962,7.6,14.962,7.7c-0.101,0-0.101,0.1,0.1,0.3c0,0.1,0,0.2,0.101,0.2c0,0,0.1-0.1,0.1-0.2s0-0.1,0-0.1l0,0V7.8
			c0-0.1,0-0.1,0-0.2c-0.1-0.2-0.2-0.2-0.3-0.3c-0.101,0-0.101,0.2-0.101,0.3S14.861,7.7,14.962,7.7c0,0.1,0,0.2,0,0.2h0.1
			c0.101-0.1,0.2-0.3,0-0.3C15.062,7.5,14.962,7.6,14.962,7.7C14.962,7.6,14.962,7.7,14.962,7.7L14.962,7.7L14.962,7.7L14.962,7.7z"
			/>
	</g>
	<g>
		<path d="M15.162,7.4c-0.2,0-0.2,0.3-0.101,0.5c0.101,0,0.101,0,0.101,0l0,0l0,0V7.8v0.1c0-0.1,0,0,0,0V7.8v0.1
			c-0.101,0.1-0.101,0.2,0,0.3c0.1,0.1,0.199,0,0.199-0.1s0-0.1,0-0.2V7.8c0,0.1,0,0.1,0,0c0-0.1,0-0.2-0.1-0.2c0.1,0,0.1,0,0.1,0
			C15.262,7.5,15.262,7.5,15.162,7.4L15.162,7.4z"/>
	</g>
	<g>
		<path d="M11.262,8.2c0.1,0,0.1,0.1,0.2,0c0,0,0-0.1,0-0.2V7.9c0-0.1-0.101-0.2-0.101-0.2c0,0.1-0.1,0.2-0.1,0.3s0,0.1,0,0.1
			s0,0.1,0,0l0,0C11.262,8.1,11.262,8.1,11.262,8.2C11.361,8.2,11.361,8.2,11.262,8.2c0.1,0.1,0.2,0.2,0.2,0.1
			c0.1,0,0.1-0.1,0.1-0.2s0-0.2,0-0.3c0,0.1,0,0.1,0,0.1c-0.1-0.1-0.1-0.1-0.2-0.2c0,0-0.1,0-0.1,0.1c-0.1,0.1-0.1,0.1,0,0.2
			c0,0.1,0,0.1,0,0.1V8.2L11.262,8.2z"/>
	</g>
	<g>
		<path fill="#FCD1CC" d="M14.162,15.5c-0.2-0.1-0.2,0.4,0,0.6c0.5,0.301,1.3,0.7,1.6,1.301c0-0.101,0.1-0.301,0.1-0.4
			c-0.5,0.1-0.899,0.2-1.399,0c-0.3-0.1-0.3,0.5-0.101,0.6c0.2,0.2,0.5,0.2,0.801,0.2c0.3,0,0.3-0.6,0-0.6
			c-1.7-0.101-2.801-1.4-4.101-2.2c-0.2-0.2-0.3,0.4-0.2,0.5c0,0.1,0,0.2,0.1,0.2c0.1-0.2,0.1-0.4,0.2-0.601c-0.1,0-0.1-0.1-0.2-0.1
			c-0.1,0.2-0.1,0.4-0.1,0.6c0.8-0.1,1.5-0.199,2.2,0.101c0.601,0.3,1.3,0.399,1.8,0.7c0.2,0.1,0.4,0.199,0.601,0.399
			c0.1,0,0.1,0.101,0,0.2c-0.3-0.2-0.5-0.4-0.7-0.6c-0.4-0.4-0.9-0.5-1.4-0.7c-0.3-0.101-0.399,0.5-0.199,0.6
			c0.1,0.101,0.3,0.2,0.5,0.3c0.1,0,0.199,0.101,0.3,0.2c0.2,0.101,0.399-0.3,0.1-0.3c-0.8-0.1-1.2-0.9-1.8-1.3
			c0,0.2-0.1,0.399-0.1,0.6c0.6,0.2,1.199,0.601,1.8,0.601c0.3,0,0.3-0.5,0.1-0.601c-0.8-0.3-1.7-0.3-2.399-0.7
			c-0.2-0.1-0.301,0.5-0.101,0.601c0.7,0.399,1.601,0.399,2.4,0.7c0.1-0.2,0.1-0.4,0.1-0.601c-0.6,0-1.2-0.399-1.7-0.6
			c-0.3-0.101-0.3,0.5-0.1,0.6c0.6,0.4,1,1,1.6,1.3c0.2,0.101,0.7,0.2,0.801-0.1c0.199-0.7-0.801-1-1-1.2
			c-0.101,0.2-0.101,0.4-0.2,0.601c0.2,0.1,0.5,0.199,0.8,0.3c0.3,0.1,0.5,0.399,0.7,0.6s0.5,0.4,0.8,0.4c0.5,0,0.4-0.8,0.3-1.101
			c-0.3-0.8-1.3-1.1-2-1.3c-0.5-0.1-1-0.5-1.5-0.5c-0.5-0.1-1.1,0-1.6,0.101c-0.3,0-0.3,0.5-0.1,0.6c0.1,0,0.1,0.1,0.2,0.1
			c0.3,0.101,0.4-0.5,0.2-0.6c-0.1-0.1-0.1-0.1-0.1-0.1c-0.1,0.1-0.1,0.3-0.2,0.5c1.399,0.8,2.5,2.199,4.2,2.199
			c0-0.199,0-0.399,0-0.6c-0.301,0-0.5,0-0.7-0.2c0,0.2-0.101,0.4-0.101,0.601c0.5,0.3,1,0.1,1.601,0c0.2,0,0.2-0.4,0.1-0.5
			C15.662,16.2,14.762,15.9,14.162,15.5L14.162,15.5z"/>
	</g>
	<g>
		<path fill="#FCD1CC" d="M11.062,15.5c0.1,0,0.1-0.3,0-0.5l0,0l0.1,0.1c0-0.1,0-0.199-0.1-0.199c-0.1,0-0.1,0-0.1,0
			c-0.2-0.101-0.3,0.1-0.3,0.199c-0.1,0.2,0,0.301,0.1,0.4c0,0.1,0.1,0.1,0.1,0.1S10.962,15.6,11.062,15.5
			C11.062,15.6,11.062,15.6,11.062,15.5C11.062,15.5,11.062,15.6,11.062,15.5C11.062,15.6,11.062,15.6,11.062,15.5
			c0.1,0,0.1-0.1,0.1-0.2C11.062,15.4,11.062,15.4,11.062,15.5L11.062,15.5z"/>
	</g>
	<g>
		<path fill="#FCD1CC" d="M12.562,16.3C12.462,16.3,12.462,16.4,12.562,16.3c0.601,0.601,1.2,1.4,2.2,1.101
			c0.5-0.101,0.4-0.601,0.1-0.9c0,0.2-0.1,0.3-0.1,0.5c0.4,0.1,1.2,0.8,1.5,0.1c0.2-0.399-0.3-1.1-0.8-1.1c-0.2,0-0.2,0.3-0.3,0.4
			c0.1,0.1,0.199,0.199,0.3,0.3c0.2,0.2,0.1,0.3-0.101,0.2c-0.199-0.101-0.399-0.2-0.699-0.301c-0.2,0-0.2,0.4-0.101,0.5
			c0-0.1,0.2-0.1-0.1-0.1c0,0-0.101,0-0.2,0c-0.2,0-0.3-0.1-0.5-0.1C13.361,16.8,12.962,16.5,12.562,16.3L12.562,16.3z"/>
	</g>
	<g>
		<path fill="#FCD1CC" d="M15.262,16.8C15.361,16.8,15.361,16.8,15.262,16.8s-0.2-0.1-0.5-0.2c-0.1-0.1-0.2-0.199-0.3-0.3V16.4
			c0,0.199,0.2,0.5,0.399,0.5c0.101,0,0.101-0.2,0.101-0.2c-0.101-0.2-0.2-0.3-0.4-0.4V16.4c0.101,0.1,0.3,0.199,0.4,0.3
			C15.062,16.7,15.162,16.8,15.262,16.8L15.262,16.8z"/>
	</g>
	<g>
		<path d="M18.361,12.2c0.2-0.101,0.301-0.5,0.5-0.8c0-0.101,0-0.3-0.1-0.5c0-0.1-0.1-0.2-0.2-0.2c-0.1,0-0.1,0-0.1,0
			c-0.101,0-0.2,0-0.3,0c-0.301,0.1-0.4,0.4-0.4,0.7c-0.1,0.199,0,0.399,0.1,0.6c0,0.1,0.101,0.2,0.2,0.2
			C18.162,12.3,18.262,12.2,18.361,12.2L18.361,12.2z"/>
	</g>
	<g>
		<path d="M18.062,11.4c-0.3-0.101-0.399,0.399-0.5,0.5c0,0.199,0.101,0.6,0.4,0.6c0.1,0,0.2,0,0.3-0.1
			C18.662,12.2,18.562,11.2,18.062,11.4c-0.3,0.1-0.6,0.3-1,0.5c-0.2,0.199-0.399,0.6-0.5,1c0,0.3,0,0.699,0.3,0.8
			c0.2,0.1,0.4-0.101,0.5-0.3c0.101-0.101,0.101-0.101,0.101-0.2c0,0.1,0,0.1,0,0c0-0.101,0.1-0.101,0.1-0.2v-0.1c0,0,0,0.1,0,0
			l0.101-0.101c0,0.101,0.1,0,0.1,0l0.1-0.1c0.101,0,0.2-0.101,0.301-0.2c-0.101-0.3-0.2-0.7-0.301-1l0,0
			C17.962,11.5,18.062,11.4,18.062,11.4L18.062,11.4L18.062,11.4z"/>
	</g>
	<g>
		<path d="M18.062,11.7c0.3-0.101,0.4-0.7,0-0.9c-0.3-0.3-0.8-0.2-1.2-0.1c-0.3,0.1-0.699,0.2-0.899,0.5c0.2,0.2,0.5,0.3,0.7,0.5
			c0-0.3,0-0.4-0.2-0.6c0.1,0.2,0.1,0.5,0.2,0.7c0,0.101-0.101,0,0.1,0c0.1,0,0.2,0,0.3,0c0.2,0,0.3-0.1,0.4-0.1
			c0.3-0.2,0.3-1.1-0.101-1c-0.3,0-0.6,0.2-0.899,0.2c-0.3,0.1-0.5,0.3-0.5,0.7c-0.101,0.4,0.3,0.9,0.7,0.4
			c-0.101,0.2,0.1,0,0.199,0c0.101,0,0.2-0.1,0.4-0.1C17.462,11.8,17.861,11.8,18.062,11.7L18.062,11.7z"/>
	</g>
	<g>
		<path d="M17.962,11.5c0.2-0.3,0.1-0.6-0.2-0.7c-0.2-0.2-0.4-0.3-0.7-0.3c-0.399,0-0.899,0.1-1.1,0.5c-0.2,0.5,0,0.9,0.3,1.3
			c0.1,0.101,0.2,0.2,0.3,0.3l0.101,0.101l0,0c-0.2-0.2,0.1,0.2,0.1,0.2c0.1,0.1,0.3,0.1,0.4,0c0.1-0.2,0.199-0.4,0.199-0.601
			c0-0.3-0.199-0.6-0.399-0.899c-0.101-0.101-0.101-0.101-0.2-0.2c0,0-0.1-0.1,0,0c-0.1,0-0.1-0.1-0.1-0.1
			c0.199,0.3,0.1,0.6-0.101,0.9c0.101,0,0.101,0,0,0c0-0.1,0.101-0.1,0.101-0.1c0.1-0.101,0.3-0.101,0.399-0.101
			C17.361,11.8,17.762,11.8,17.962,11.5L17.962,11.5z"/>
	</g>
	<g>
		<path d="M17.361,12.5c0.101-0.2,0.101-0.4,0.101-0.4c0,0.101-0.101-0.199-0.101-0.199c-0.1,0-0.1-0.101-0.1-0.101
			c0-0.2-0.2-0.2-0.3-0.3c0-0.1-0.101-0.1-0.101-0.1s-0.1-0.101,0,0c-0.1-0.101-0.1-0.101-0.199-0.2c-0.2-0.2-0.4-0.1-0.5,0.1
			c-0.101,0.2-0.101,0.4-0.101,0.601c0,0.399,0.2,0.699,0.601,0.8c0.3,0.1,0.699,0,0.8-0.3C17.361,12.4,17.361,12.5,17.361,12.5
			C17.262,12.5,17.262,12.5,17.361,12.5L17.361,12.5z"/>
	</g>
	<g>
		<path d="M16.762,11.3c0,0.101,0.1,0.2,0.1,0.2l-0.1-0.1c0.1,0.1,0.2,0.199,0.3,0.199c0.2,0,0.3,0,0.4-0.1c0.2-0.1,0.2-0.3,0.2-0.5
			c0-0.1-0.101-0.3-0.2-0.3c-0.2,0-0.4,0.1-0.5,0.2C16.861,11,16.762,11.1,16.762,11.3L16.762,11.3z"/>
	</g>
	<g>
		<path d="M17.062,11.1c-0.1,0-0.1,0.1,0.3,0.2c0.101,0,0.101,0.3,0.301,0.3c0.1,0.101,0.199,0.101,0.3,0.101
			c-0.101-0.101-0.2-0.3-0.3-0.4c0,0.2,0.1,0.4,0.3,0.5c0.1,0,0.1,0.101,0.2,0.101c0.1,0-0.101-0.101,0,0c0.1,0.1,0.1,0.1,0,0
			c-0.2-0.301-0.2-0.601,0-0.8l-0.101,0.1c0,0.1-0.1,0.1-0.1,0.2c-0.101,0.199-0.101,0.399,0,0.6c0,0.1,0.1,0.3,0.2,0.3
			c0.8,0.2,0.899-1,0.6-1.4c-0.1-0.2-0.3-0.3-0.5-0.4c-0.3-0.1-0.5,0-0.7,0.3c0.101-0.1,0.2-0.2,0.3-0.3c-0.199,0-0.399,0.1-0.5,0.2
			c-0.1,0.1-0.199,0.2-0.199,0.3S17.162,11.1,17.062,11.1C17.162,11.1,17.062,11.1,17.062,11.1L17.062,11.1z"/>
	</g>
	<g>
		<path d="M18.062,11.3c0.101,0,0.101-0.2,0-0.2l0,0c0.101,0,0.101,0.1,0.101,0.1c0-0.2-0.101-0.5-0.301-0.4
			c-0.199,0.1-0.199,0.3-0.199,0.5c0,0.2,0.1,0.4,0.3,0.3c0.1-0.1,0.2-0.3,0.2-0.399C18.062,11.2,18.062,11.3,18.062,11.3
			L18.062,11.3L18.062,11.3z"/>
	</g>
	<g>
		<path fill="#F9F0DA" d="M11.662,4c0-0.2-0.2-0.1-0.301,0c-0.1,0.3-0.1,0.5,0,0.7c0.2,0.7,0.4,1.4,0.601,2.1
			c0.1,0.5,0.399,0,0.399-0.3c0-0.2,0-0.5-0.1-0.8c-0.1-0.4-0.4-0.2-0.4,0.1c-0.1,0.4,0,0.7,0.101,1.1c0.1,0.1,0.2,0.2,0.3,0.1
			c0.1-0.2,0.1-0.4,0.1-0.6c-0.1-1.2-0.8-2.1-1.7-2.8c-0.2-0.2-0.3,0.2-0.3,0.3c0,0.2,0,0.4,0.2,0.6c0.7,0.6,1.3,1.3,1.4,2.2
			c0.1-0.2,0.3-0.3,0.3-0.5V6.1c-0.1,0-0.2,0.1-0.4,0c0.101,0.2,0.101,0.3,0.101,0.4c0.1,0,0.3-0.1,0.399-0.2
			C12.162,5.5,11.962,4.8,11.662,4L11.662,4z"/>
	</g>
	<g>
		<path fill="#F9F0DA" d="M12.162,17.9c0.3,0.1,0.399-0.801,0.1-1c-1.5-0.9-2.9-2-4.1-3.2c-0.301-0.3-0.4,0.7-0.2,0.899
			C9.262,15.8,10.662,16.9,12.162,17.9L12.162,17.9z"/>
	</g>
	<g>
		<path fill="#F9F0DA" d="M12.361,4.6c0-0.6-0.5-0.6-0.5,0c0,1.3,0.801,2.1,1.4,3.2c0.2,0.4,0.3-0.6,0.3-0.7
			c0-0.4-0.5-0.9-0.399-1.3c-0.101,0-0.301,0.1-0.4,0.1c0,0.1,0.1,0.3,0.1,0.4c0.101,0.5,0.4,0,0.4-0.3c0-0.1,0-0.2,0-0.4
			c0-0.4-0.4-0.7-0.4-0.1c-0.1,1.1,0.101,2.2,0.801,3.1c0.199,0.3,0.3-0.6,0.199-0.8c-0.3-0.5-0.6-1-0.899-1.5
			c-0.2-0.3-0.3,0.6-0.3,0.7c0.199,0.6,0.399,1.1,0.5,1.7c0.1-0.1,0.3-0.3,0.399-0.4c-0.2-0.7-0.3-1.5-0.8-2.1
			c-0.2-0.3-0.3,0.3-0.3,0.4c0,0.8,0.2,1.5,0.3,2.3c0,0.6,0.4,0.3,0.4-0.1c0-0.9,0-1.8-0.601-2.6c-0.2-0.3-0.3,0.5-0.3,0.6
			c0.3,1.9,0,3.9-1.5,5.101c0.1,0.199,0.1,0.5,0.2,0.8c0.1-0.101,0.1-0.2,0.2-0.3c0.1-0.2,0.1-1.2-0.2-0.9
			c-1.101,1.2-2.8,1.1-4.2,1.5c0.1,0.3,0.1,0.5,0.2,0.8c0-0.1,0-0.1,0-0.2c-0.101,0-0.3-0.1-0.4-0.1c0.101,0.6,0.3,1.1,0.601,1.6
			C7.361,15.4,7.562,14.4,7.361,14.2c-0.199-0.3-0.399-0.601-0.399-1c0-0.3-0.3-0.5-0.4-0.101c0,0.101,0,0.101,0,0.2
			c0,0.101-0.1,0.9,0.2,0.8c1.5-0.399,3.2-0.3,4.4-1.6c-0.1-0.3-0.1-0.6-0.2-0.9c-0.1,0.2-0.2,0.301-0.3,0.5
			c-0.1,0.101-0.1,1,0.2,0.801c1.8-1.5,2.2-4.101,1.8-6.4c-0.101,0.2-0.2,0.4-0.301,0.5c0.4,0.5,0.4,1.1,0.4,1.7
			c0.1,0,0.3-0.1,0.4-0.1c-0.101-0.7-0.301-1.3-0.301-2c-0.1,0.2-0.199,0.3-0.3,0.4c0.4,0.6,0.5,1.2,0.7,1.8
			c0.2,0.6,0.5-0.1,0.4-0.4c-0.2-0.6-0.4-1.2-0.601-1.9c-0.1,0.2-0.2,0.5-0.3,0.7c0.3,0.4,0.6,0.8,0.8,1.3
			c0.101-0.2,0.2-0.5,0.3-0.7c-0.399-0.6-0.699-1.3-0.6-2c-0.2-0.1-0.3-0.1-0.4-0.2c0,0.1,0,0.3,0,0.4c0.101,0,0.2-0.1,0.301-0.2
			c0-0.1-0.101-0.3-0.101-0.4c-0.1-0.4-0.399-0.2-0.399,0.1c-0.101,0.8,0.3,1.3,0.5,2.1c0.1-0.2,0.199-0.5,0.399-0.7
			C13.162,6.2,12.361,5.5,12.361,4.6L12.361,4.6z"/>
	</g>
	<g>
		<path fill="#F9F0DA" d="M12.662,5.1c0-0.2,0.1-0.5-0.101-0.7c-0.1-0.2-0.2-0.2-0.3,0c-0.3,0.9-0.1,1.8,0.3,2.7
			c0.2,0.4,0.4,0,0.4-0.2c0.2-0.9,0.2-1.7-0.101-2.5c-0.1-0.2-0.199-0.2-0.3,0C12.462,4.6,12.562,4.8,12.662,5.1
			c0.1,0.5,0,1-0.2,1.5c0.2-0.1,0.3-0.1,0.399-0.2C12.762,6,12.462,5.5,12.662,5.1L12.662,5.1z"/>
	</g>
	<g>
		<path fill="#F9F0DA" d="M12.861,4.4c-0.3-0.5-0.5,0.4-0.399,0.7c0.1,0.1,0.2,0.3,0.2,0.4c0,0.3,0.3,0.5,0.399,0.1
			c0-0.2,0.101-0.3,0.101-0.5c-0.101-0.1-0.2-0.2-0.301-0.3c0,0.5-0.199,1-0.199,1.5c0.1,0,0.3,0,0.399,0c0-0.2-0.1-0.6,0.101-0.8
			c-0.101-0.2-0.2-0.5-0.301-0.8c-0.1,0.5-0.199,1-0.199,1.6c0.1,0,0.3-0.1,0.399-0.1c-0.1-0.5-0.1-1.1-0.1-1.6c0-0.1,0-0.5-0.2-0.5
			s-0.2,0.4-0.2,0.5c0,0.6,0,1.3,0.101,1.9c0,0.1,0.1,0.5,0.199,0.4c0.2-0.1,0.2-0.4,0.2-0.5c0-0.4,0.101-0.7,0.2-1.1
			c0-0.1,0-1-0.2-0.7c-0.5,0.4-0.399,1.2-0.399,1.8c0,0.1,0,0.5,0.199,0.5c0.2,0,0.2-0.4,0.2-0.5c0-0.5,0.2-1,0.2-1.5
			c0-0.2-0.1-0.4-0.3-0.5c-0.101-0.1-0.2,0.1-0.2,0.2c0,0.2-0.1,0.3-0.1,0.5c0.1,0,0.3,0.1,0.399,0.1
			C13.062,4.9,12.962,4.6,12.861,4.4L12.861,4.4z"/>
	</g>
	<g>
		<path fill="#F9F0DA" d="M14.762,10.2c0.6,0.3,0.9-1.2,0.4-1.4c-0.4-0.2-0.7-0.5-0.7-0.9c-0.3,0.3-0.5,0.5-0.7,0.7
			c0.1,0.2,0.2,0.3,0.3,0.4c0.2-0.3,0.3-0.7,0.5-1.1c-0.3-0.2-0.399-0.5-0.6-0.8c-0.101-0.2-0.5-0.2-0.601,0
			c-0.1,0.3-0.1,0.5,0.101,1c0.3,1.1,1.6,2.2,2.7,2.7c0.1-0.5,0.1-0.9,0.199-1.4c-1.899,0.1-1.399,2.6-1,3.8
			c0.2-0.2,0.5-0.5,0.801-0.7c-0.101-0.3-0.2-0.4-0.101-0.7c-0.3-0.2-0.5-0.3-0.8-0.399c-0.2,0.699,0.1,3.1,1.3,2.5
			c0.5-0.301,0.4-1.101,0-1.4c-0.1-0.1-0.3-0.2-0.399-0.3c-0.601-0.4-0.7,0.899-0.5,1.2c0.1,0.199,0.3,0.3,0.399,0.5
			c0.5,0.8,1-0.5,0.7-1c-0.1-0.2-0.3-0.301-0.4-0.5c-0.199,0.399-0.3,0.8-0.5,1.199c0.101,0.101,0.301,0.101,0.4,0.2
			c0-0.399-0.1-0.899-0.1-1.3c0,0-0.2-0.6-0.2-0.8c0.2-0.7-0.601-1.2-0.8-0.4c-0.2,0.5-0.101,1,0,1.601
			c0.199,0.899,1.1,0.399,0.899-0.4c-0.1-0.4-0.2-0.8-0.3-1.2c-0.1-0.4-0.2-0.6,0.3-0.6c0.7,0,0.601-1.2,0.2-1.4
			c-0.8-0.5-1.9-1-2.2-2c-0.2,0.2-0.5,0.5-0.7,0.7c0.2,0.4,0.4,0.7,0.7,1c0.4,0.5,0.8-0.6,0.5-1c-0.1-0.1-0.2-0.2-0.3-0.4
			c-0.4-0.6-0.8,0.3-0.7,0.7C13.562,9,14.162,9.8,14.762,10.2L14.762,10.2z"/>
	</g>
	<g>
		<path fill="#F9F0DA" d="M17.062,14.3c0.3,0.2,0.4-0.8,0.2-0.899c-0.2-0.101-0.3-0.2-0.4-0.301c-0.199-0.199-0.3,0.2-0.3,0.301
			c-0.1,0.199-0.2,0.399-0.2,0.1c0-0.2-0.1-0.3-0.1-0.4c0-0.1-0.2-0.3-0.5-0.3c-0.2,0-0.3,0.2-0.3,0.3c-0.101,0.301,0,0.101,0-0.1
			c0-0.4-0.3-0.7-0.4-0.1l-0.1,0.1c0.1,0,0.2,0.1,0.1,0.2c0,0,0-0.101,0-0.2c-0.1,0-0.3,0-0.399,0h0.1c0.1-0.6-0.4-0.6-0.4,0
			c0,0.3-0.1,1,0.301,1.1c0.1-0.3,0.1-0.699,0.1-1c-1-0.1-1.9-0.3-2.8-0.5c0.1,0.301,0.1,0.7,0.1,1c0.3-0.3,0.5-0.6,0.7-1
			c0.1-0.3,0.2-0.6,0.4-0.8c0.199-0.2,0.3-0.2,0.3-0.5c0-0.2,0.3-1.4,0.6-0.9c0.2,0.2,0.2,0.5,0.2,0.8c0,0.1-0.2,1.2-0.5,0.7
			c-0.2-0.301-0.3-0.7-0.3-1c-0.101-0.3-0.101-0.5,0-0.8c0.1-0.5,0.7-0.2,0.8,0.1c0.2,0.3,0.3,0.8,0.2,1.1c-0.3,0.9-0.9-0.5-0.4-1
			c0.7-0.7,1,0.6,0.601,1c-0.301,0.3-0.7,0.2-0.9-0.2c-0.1-0.2-0.1-0.4-0.1-0.6c0.1-0.2,0.199,0.3,0.199,0.3c0,0.2,0,1-0.3,1.101
			c-0.399,0.199-0.3-0.9-0.399-1.2c0-0.2-0.101-0.3-0.301-0.2c-0.399,0.4-0.6,0.8-0.899,1.2c0.1,0.3,0.1,0.6,0.2,0.899
			c0.1-0.199,0.199-0.399,0.399-0.6c-0.1-0.3-0.1-0.6-0.2-0.9c-0.199,0.4-0.399,0.8-0.699,1.1c-0.301,0.3-0.7,0.399-1,0.7
			c-0.3,0.3-0.6,0.5-1,0.699c-0.2,0.2-0.4,0.301-0.5,0.601c0,0.2,0,1.1,0.3,0.8c0.6-0.6,1.4-1,2.2-1c0.699,0,1.3,0.1,2-0.2
			c0.199-0.1,0.199-1-0.101-1c-0.5,0-1,0.2-1.5-0.1c-0.3-0.101-0.399,0.899-0.1,1c0.5,0.3,1,0.2,1.6,0.1c-0.1-0.3-0.1-0.7-0.1-1
			c-0.9,0.3-1.8,0-2.7,0.2c-0.6,0.2-1.1,0.6-1.5,1c0.1,0.3,0.2,0.5,0.3,0.8c0.101-0.3,0.6-0.5,0.9-0.7c0.2-0.199,0.4-0.399,0.7-0.6
			c0.7-0.3,1-0.9,1.4-1.5c0.2-0.3,0-1.2-0.2-0.9c-0.1,0.2-0.3,0.4-0.399,0.6c-0.101,0.2-0.2,0.5-0.101,0.7
			c0,0.1,0.2,0.399,0.301,0.199c0.3-0.399,0.5-0.8,0.899-1.199c-0.1-0.101-0.2-0.101-0.3-0.2c0.1,0.5-0.1,1.399,0.4,1.7
			c0.6,0.399,0.899-0.7,1-1.101c0.1-0.6,0.199-1.8-0.2-2.3c-0.5-0.6-0.8,0.6-0.8,1c0,0.7,0.1,1.7,0.8,2c0.8,0.4,1.2-0.7,1.3-1.2
			s0.1-1.8-0.7-2.2c-0.899-0.2-1.2,0.9-1.2,1.6c0,0.5,0,1.399,0.5,1.8c0.5,0.3,0.801-0.2,0.9-0.6c0.3-0.9,0.3-2.601-0.7-3.101
			s-1,1.7-1,2.2c0,0.4,0.5,2.7,1.3,1.6c0.5-0.699,0.4-2.2,0-3c-0.199-0.4-0.699-0.6-1-0.1c-0.3,0.5-0.399,1.1-0.399,1.7
			c0,0.2,0,1.399,0.5,1.3c0.399,0,0.5-0.6,0.5-1c0-0.3-0.4-1.3-0.9-0.9c-0.7,0.5-0.7,1.4-1.3,1.9c-0.2,0.2-0.2,0.9,0.1,1
			c1,0.3,1.9,0.5,2.801,0.5c0.3,0,0.3-0.9,0.1-1c0.2,0,0.1,0,0.1-0.2c-0.1,0-0.3,0-0.399,0c0,0.3,0,0.9,0.399,0.9
			c0.4,0.1,0.4-0.7,0.4-0.9c0-0.6-0.4-0.6-0.4,0c0,0.3,0,0.5,0.101,0.8c0,0.101,0.1,0.301,0.2,0.2c0.3-0.2,0.399-0.5,0.399-0.8
			c-0.1,0-0.3-0.1-0.399-0.1c0,0.399,0,0.899,0.199,1.199c0.301,0.4,0.5-0.199,0.601-0.399c0,0.2,0.1,1.1,0.5,1
			c0.399-0.101,0.5-0.601,0.5-1c-0.101,0.1-0.2,0.2-0.3,0.3C16.762,14.2,16.962,14.2,17.062,14.3L17.062,14.3z"/>
	</g>
	<g>
		<path fill="#F9F0DA" d="M16.962,10.4c0.2,0,0.3-0.3,0.3-0.5c0-0.1-0.1-0.5-0.3-0.5c-0.3,0.1-0.5,0-0.7,0.1c0.1,0.3,0.1,0.7,0.1,1
			C16.562,10.4,16.662,10.4,16.962,10.4c0.2,0,0.2-0.4,0.2-0.5s0-0.5-0.2-0.5s-0.5,0.1-0.8,0.1c0,0-0.101,0.1-0.101,0.2
			c0,0.1,0,0.3,0,0.4s0.101,0.4,0.2,0.4C16.562,10.4,16.762,10.4,16.962,10.4L16.962,10.4z"/>
	</g>
	<g>
		<path fill="#F9F0DA" d="M16.962,10.4c0.3-0.1,0.3-1,0-1c-1.101,0.1-1.8,0.7-1.9,1.8c0,0.2,0,0.5,0.101,0.6
			c0.1,0.101,0.3,0,0.3-0.1c0-0.2,0.1-0.4,0.2-0.5c-0.101-0.1-0.2-0.3-0.301-0.4c0,0.1,0,0.2,0,0.3c0,0.2,0.101,0.4,0.2,0.5
			c0.101,0.101,0.2,0,0.2-0.1C15.962,10.9,16.262,10.4,16.962,10.4c0.2-0.2,0.2-1.2-0.2-1.2c-0.8,0.2-1.2,0.8-1.5,1.5
			c0.1,0.2,0.3,0.3,0.4,0.4c0-0.1,0-0.2,0-0.3c0-0.1-0.101-0.7-0.301-0.4c-0.1,0.2-0.199,0.4-0.3,0.6c0.2,0.2,0.3,0.3,0.4,0.5
			C15.562,10.8,16.361,10.5,16.962,10.4L16.962,10.4z"/>
	</g>
	<g>
		<path fill="#F9F0DA" d="M17.361,10.7c0.2-0.3,0.2-0.7,0-0.9c-0.1-0.1-0.199-0.2-0.399-0.2s-0.3,0-0.4,0c-0.1,0-0.3,0-0.399,0
			c-0.2,0-0.2,0.2-0.2,0.4c-0.101,0.2-0.101,0.8,0.2,0.9c0.199,0.1,0.3,0,0.6,0C16.962,10.9,17.162,10.9,17.361,10.7L17.361,10.7z"
			/>
	</g>
	<path fill="#F9F0DA" d="M6.662,14.3c0,0.101,0.1,0.101,0.1,0.101v0.1c0.1,0,0.1,0,0.2,0c0.6,0.3,1.1,0.7,1.5,1.2
		c0.6,0.399,1.1,0.7,1.5,1.2V16.8c0.2,0.2,0.4,0.3,0.6,0.4c0.3,0.2,0.7,0.3,1.101,0.5c0,0,0.1,0,0.199,0c0-0.101,0.101-0.2,0.2-0.2
		c0.3,0,0.7-0.1,1-0.1c0,0,0.101,0,0.2,0l0,0l0,0c-0.3-0.4-0.6-0.601-0.9-0.9c-0.3-0.2-0.5-0.4-0.8-0.6
		c-0.5-0.301-1-0.601-1.3-1.101c-0.1-0.1-0.1-0.2-0.2-0.3c0-0.1,0.1-0.1,0.1-0.1c0.8-0.601,2.5,0.199,3.4-0.2c0.5,0.1,1,0.2,1.5-0.2
		c0,0.1,0.101,0.1,0.101,0.2c0.1-0.101,0.3-0.101,0.399,0c0.2,0.3,0.3,0.5,0.4,0.8c0.1,0.1,0.1,0.2,0.1,0.2
		c0.9-0.8,1.5-1.7,2.2-2.601c-0.1,0-0.2,0.101-0.3,0.2c-0.101,0.101-0.101,0.101-0.2,0.2c-0.3,0.2-0.5,0.2-0.8-0.2
		c-0.101-0.2-0.4-0.399-0.601-0.5c-0.3-0.1-0.6-0.1-0.899-0.1c-0.3-0.5-0.8-0.7-1.4-0.9c-0.3-0.1-0.899-0.3-0.8-0.8
		c0.1-0.3,0.2-0.7,0.3-1.1c0-0.2-0.1-1-0.5-1c0-0.3,0-0.7-0.1-1c0.3,0.2,0.6-0.5,0.6-0.9c-0.1-0.2-0.2-0.5-0.3-0.7
		c0.1-0.2,0.1-0.3,0.2-0.5c0.1-0.2,0.1-0.6-0.101-0.9V4.3c-0.699-0.1-1.399-0.3-2-0.4c-0.1,0.1-0.3,0.1-0.399-0.1l-0.1-0.1
		c-0.1,0-0.3,0-0.4,0c-0.7,0-1.3,0-1.9-0.2c0,0.2,0.2,0.4,0.4,0.4c0.3,0,0.6,0.1,0.899,0.2c0.101,0.1,0.101,0.2,0.2,0.3
		c0.2,0.2,0.4,0.3,0.6,0.4c0.3,0.4,0.6,0.8,0.8,1.2c0.6,1.1,0.899,2.7,0.5,3.9c-0.101,0.1-0.101,0.3-0.101,0.4
		c-0.3,0.2-0.5,0.5-0.8,0.8c-0.1,0.1-0.1,0.1-0.2,0.2c-0.4,0.3-0.7,0.601-1.1,0.8l-0.1,0.101c-0.101,0-0.101,0-0.101,0
		c-0.1,0-0.2,0.1-0.3,0.1s-0.1,0-0.1,0c-0.4,0.101-0.9,0.2-1.101,0.3c-0.1,0.101-0.2,0.101-0.3,0.2c-0.1-0.1-0.2-0.2-0.3-0.2
		c-0.4,0.101-0.9,0.101-1.2,0.5C6.062,13.5,6.062,14.2,6.662,14.3z M12.162,12c0.1-0.1,0.1-0.2,0.199-0.2c0-0.1,0-0.1,0-0.1
		l0.101-0.101c0,0.101,0,0.2,0.1,0.301C12.462,11.9,12.361,11.9,12.162,12z"/>
	<path d="M13.861,9.5c0.101,0,0.101-0.1,0-0.1C13.762,9.4,13.762,9.5,13.861,9.5z"/>
	<path d="M15.861,10c0.101,0,0.101-0.1,0-0.1C15.762,9.9,15.762,10,15.861,10z"/>
	<path d="M15.062,12.6c0,0.101,0,0.101,0,0.101C15.062,12.8,15.162,12.7,15.062,12.6L15.062,12.6
		C15.062,12.6,15.062,12.7,15.062,12.6z"/>
	<path d="M12.962,10.6c0.1,0,0.1-0.1,0-0.1C12.861,10.5,12.861,10.6,12.962,10.6z"/>
	<path d="M14.462,11.4c0.1,0,0.1-0.101,0-0.101C14.462,11.3,14.361,11.4,14.462,11.4z"/>
	<path d="M12.962,9.3c0.1,0,0.1-0.1,0-0.1C12.962,9.2,12.861,9.3,12.962,9.3z"/>
	<path d="M11.262,12.1c0.1,0,0.1-0.1,0-0.1C11.162,12,11.162,12.2,11.262,12.1z"/>
	<path d="M15.462,11.9c0.1,0,0.1-0.101,0-0.101C15.462,11.8,15.462,12,15.462,11.9z"/>
	<path d="M15.062,9.8c0.101,0,0.101-0.1,0-0.1C14.962,9.7,14.962,9.8,15.062,9.8z"/>
	<path d="M15.262,10.8c0.1,0,0.1-0.1,0-0.1S15.162,10.8,15.262,10.8z"/>
	<path d="M13.861,10.6c0.101,0,0.101-0.1,0-0.1C13.762,10.5,13.762,10.6,13.861,10.6z"/>
	<path d="M14.662,8.5c0.1,0,0.1-0.1,0-0.1C14.562,8.4,14.562,8.5,14.662,8.5z"/>
	<path d="M12.562,9.2c0.101,0,0.101-0.1,0-0.1C12.462,9.1,12.462,9.2,12.562,9.2z"/>
	<path d="M13.062,12.1c0.101,0,0.101-0.1,0-0.1C13.062,12,13.062,12.2,13.062,12.1z"/>
	<path d="M15.762,14.3c0.7-0.2,1-0.7,1.4-1.2c0.1,0,0-0.1,0-0.1c-0.2,0.2-0.4,0.4-0.601,0.6c-0.2,0.301-0.5,0.4-0.8,0.5
		C15.662,14.1,15.662,14.4,15.762,14.3z"/>
	<g>
		<path d="M9.762,3.8c0.1,0,0.1-0.1,0-0.1S9.662,3.8,9.762,3.8L9.762,3.8z"/>
	</g>
	<g>
		<path fill="#4B2200" d="M8.361,3.4c-0.1,0-0.1,0.1,0,0.1c1.7,0.3,3.601,0.3,5.101,1.3c1.399,0.9,1.8,2.6,2.399,4.1
			c0,0.1,0.101,0.1,0.101,0c-0.601-1.4-1-3.1-2.3-4.1C12.162,3.7,10.162,3.7,8.361,3.4L8.361,3.4z"/>
	</g>
	<g>
		<path fill="#4B2200" d="M18.361,12.5c0-0.1-0.199-0.1,0.101,0c-0.4,1.1-1.3,1.9-2.2,2.5h0.1c0-0.2-0.1-0.5-0.199-0.7
			c-0.101-0.2-0.301-0.1-0.5-0.1c-1,0.1-1.9,0.1-2.9,0c-0.7-0.101-1.5-0.2-2.1,0.1c-0.4,0.2-0.5,0.5-0.2,0.8
			c0.1,0.101,0.2,0,0.1-0.1c-0.5-0.6,0.6-0.7,1-0.7c0.601,0,1.2,0.101,1.8,0.101c0.601,0.1,1.301,0.1,1.9,0
			c0.3-0.101,0.6-0.2,0.7,0.199c0,0.2,0.1,0.301,0.1,0.5h0.101C17.062,14.5,17.962,13.6,18.361,12.5L18.361,12.5z"/>
	</g>
	<g>
		<path fill="#4B2200" d="M13.662,4.8c0,0-0.2-0.1-0.101,0c-0.8,3.1,3.101,4.1,4.4,6.1c0,0,0.2,0,0.1-0.1
			C16.762,8.8,12.962,7.7,13.662,4.8L13.662,4.8z"/>
	</g>
	<g>
		<path fill="#4B2200" d="M13.361,17.3c0.101,0,0-0.1-0.1-0.1c-1.3,0.8-2.7,0.1-3.8-0.7c-1.2-0.8-2.2-1.7-3.4-2.4
			c-0.1-0.1-0.2,0.101-0.1,0.101C7.361,15.1,8.562,16.1,9.861,17C10.962,17.6,12.262,18,13.361,17.3L13.361,17.3z"/>
	</g>
	<g>
		<path fill="#4B2200" d="M8.361,3.5c-0.1,0-0.1,0.2-0.1,0.2c2.2,0.5,3.7,2.7,3.7,4.9c0,1.1-0.4,2.2-1.3,2.9
			c-1.2,0.9-2.8,1.3-4.2,1.1c-0.101-0.1-0.101,0.101,0,0.101c1.5,0.1,3.2-0.2,4.3-1.2c0.9-0.7,1.4-1.8,1.4-2.9
			C12.262,6.4,10.662,4,8.361,3.5L8.361,3.5z"/>
	</g>
	<g>
		<path fill="#4B2200" d="M8.162,3.5c0,0,0-0.1-0.301-0.4C6.361,3.4,4.962,4,3.662,4.7c-1.2,0.7-2.4,1.7-3,3c0,0.1,0,0.1,0.1,0.1
			c0.3-0.2,0.7-0.2,1-0.4l-0.1-0.1c-0.5,0.7-1.101,1.3-1.601,2c0,0.1,0,0.1,0.101,0.1c0.199-0.1,0.5-0.1,0.699-0.2l-0.1-0.1
			c-0.6,1.4-1.3,3.2-0.3,4.6c0,0.1,0.1,0.1,0.1,0c0-0.2,0.101-0.3,0.2-0.5h-0.1c0,0.6,0.3,1.2,0.5,1.8c0,0,0.1,0.1,0.1,0
			c0.1-0.2,0.2-0.4,0.2-0.6H1.361c0.101,0.3,0.301,0.6,0.4,0.899c0,0.101,0.1,0.101,0.1,0c0-0.2,0.101-0.399,0.2-0.6h-0.1
			c0.1,0.3,0.2,0.5,0.3,0.8h0.1c0.101-0.1,0.2-0.2,0.301-0.3c0-0.101-0.101-0.101-0.101-0.101c0.101,0.7,0.601,1.101,1,1.601
			c0.601,0.7,0.601,1.6,1,2.3c0,0.1,0.101,0.1,0.101,0c0.1-1,0.5-2,0.699-3h-0.1c0.1,0.2,0.1,0.3,0.2,0.5c0,0.1,0.1,0.1,0.1,0
			c0-0.5-0.1-1-0.1-1.5H5.361c0.101,0.2,0.101,0.3,0.2,0.4c0,0.1,0.101,0.1,0.101,0c0.1-1.9,1.3-3.601,1.1-5.5c0-0.1-0.1-0.1-0.1,0
			s0,0.2,0,0.3c0,0.1,0.1,0.1,0.1,0c0-0.3,0-0.6,0.1-0.9h-0.1c0.1,0.1,0.1,0.1,0.2,0.2c0,0.1,0.1,0.1,0.1,0
			c0.4-1.2,0.101-2.7,1.2-3.6c0.1-0.1,0-0.2-0.1-0.1c-0.5,0.5-0.801,1-0.9,1.7s-0.1,1.3-0.3,2h0.1c-0.1-0.1-0.1-0.1-0.2-0.2
			c0-0.1-0.1-0.1-0.1,0c-0.1,0.4-0.1,0.7-0.1,1c0,0.1,0.1,0.1,0.1,0c0-0.1,0-0.2,0-0.3h-0.1c0.199,1.9-0.9,3.6-1.101,5.5h0.101
			c-0.101-0.2-0.101-0.3-0.2-0.4c0-0.1-0.101-0.1-0.101,0c0,0.5,0.101,1,0.101,1.5h0.1c0-0.199-0.1-0.3-0.1-0.5
			c0-0.1-0.101-0.1-0.101,0c-0.199,1-0.5,2-0.699,3h0.1c-0.4-0.6-0.4-1.5-0.8-2.1c-0.4-0.5-1-0.9-1.101-1.7h-0.1
			c-0.1,0.101-0.2,0.2-0.3,0.3h0.1c-0.1-0.3-0.2-0.5-0.3-0.8c0-0.1-0.1-0.1-0.1,0c-0.101,0.2-0.2,0.4-0.2,0.601h0.1
			c-0.1-0.301-0.3-0.601-0.399-0.9c0-0.1-0.101-0.1-0.101,0c0,0.2-0.1,0.3-0.2,0.5h0.101c-0.2-0.6-0.5-1.2-0.5-1.8
			c0,0-0.101-0.101-0.101,0c-0.1,0.2-0.199,0.399-0.199,0.6h0.1c-1-1.399-0.2-3.1,0.3-4.5c0-0.1-0.1-0.1-0.1-0.1
			c-0.2,0.1-0.5,0.1-0.7,0.2l0.1,0.1c0.5-0.7,1.101-1.3,1.601-2c0-0.1,0-0.1-0.101-0.1c-0.3,0.1-0.699,0.2-1,0.4l0.101,0.1
			c0.7-1.3,1.899-2.3,3.2-3C5.462,4.3,6.762,3.8,8.162,3.5L8.162,3.5z"/>
	</g>
	<g>
		<path fill="#4B2200" d="M16.861,10.7c-0.1,0.1,0,0.2,0,0.1c0.5-0.2,1.101-0.2,1.4,0.2c0.4,0.4,0.4,1,0.2,1.3
			c-0.5,0.5-1.2,0.601-1.4,1.3h0.101C17.062,13.2,16.861,13,16.562,12.7s-0.8-0.601-0.6-1.101c0.3-0.899,1.7-1,2.399-0.6
			c0.101,0.1,0.2-0.1,0.101-0.1c-0.7-0.4-2-0.3-2.5,0.4c-0.7,1.101,0.899,1.5,1,2.4c0,0.1,0.1,0.1,0.1,0c0.2-1,1.7-1,1.601-2.101
			C18.662,10.7,17.662,10.3,16.861,10.7L16.861,10.7z"/>
	</g>
	<g>
		<path d="M10.462,7.6c-0.1,0-0.1,0.1,0,0.1c0.5-0.2,1-0.2,1.1,0.4c0.101,0.4-0.1,0.9-0.5,1.1c-0.5,0.3-1.3-0.2-1.2-0.8
			c0.2-0.7,0.9-1.1,1.601-0.8c0,0.1,0.1-0.1,0-0.1c-0.7-0.3-1.601,0.2-1.7,1c-0.1,0.7,0.7,1.2,1.3,1c0.5-0.2,0.8-0.8,0.7-1.3
			C11.662,7.5,11.062,7.4,10.462,7.6L10.462,7.6z"/>
	</g>
	<g>
		<path d="M15.062,7.2c-0.1,0-0.1,0.1,0,0.1c0.2,0,0.3,0.2,0.3,0.4c0,0.2,0,0.4-0.199,0.4c-0.2,0.1-0.5-0.2-0.5-0.4
			c-0.101-0.4,0.1-0.5,0.399-0.4C15.162,7.4,15.262,7.2,15.062,7.2c-0.2-0.1-0.6,0.1-0.6,0.4c0.1,0.3,0.399,0.6,0.7,0.6
			c0.199,0,0.3-0.3,0.3-0.5C15.462,7.5,15.361,7.2,15.062,7.2L15.062,7.2z"/>
	</g>
	<g>
		<path fill="#4B2200" d="M13.262,15.1c0.1,0,0.1-0.1,0-0.1c-1.8,0.2-3.5,0.5-5.1,0.8c-0.101,0-0.101,0.101,0,0.101
			C9.861,15.6,11.562,15.3,13.262,15.1L13.262,15.1z"/>
	</g>
	<g>
		<path fill="#4B2200" d="M15.162,14.9c0.1,0,0.1-0.101,0-0.101c-0.4,0-0.801,0.101-1.2,0.101c-0.101,0-0.101,0.1,0,0.1
			C14.361,15,14.762,15,15.162,14.9L15.162,14.9z"/>
	</g>
	<g>
		<path fill="#4B2200" d="M19.762,13.9c0,0.1,0.2,0,0,0.1c-0.1-0.5-0.3-1.2,0-1.6c0.2-0.4,0.6-0.2,0.8,0.1c0.2,0.2,0.3,0.4,0.3,0.7
			c0.2,0.8,0.2,1.6,0.101,2.399c-0.101,0.601-0.101,1.2-0.3,1.801c-0.101,0.3-0.2,0.699-0.4,0.8c-0.3,0.2-0.4-0.3-0.5-0.5
			c-0.1-0.3-0.1-0.5-0.1-0.8c0-0.301,0.1-0.7,0-1c-0.2-0.601-0.801-0.801-1.301-0.9c-0.8-0.2-1.6-0.2-2.399-0.2
			c-0.101,0-0.101,0.101,0,0.101c0.3,0,0.5,0,0.7,0c0.6,0,1.199,0.1,1.699,0.199c0.4,0.101,1,0.2,1.2,0.601
			c0.2,0.399,0.101,0.899,0.101,1.3c0.1,0.3,0.1,0.5,0.199,0.8c0.101,0.3,0.5,0.601,0.801,0.2c0.3-0.5,0.399-1.1,0.5-1.6
			c0.1-0.9,0.199-1.9,0.1-2.801c-0.1-0.5-0.1-1.1-0.5-1.5c-0.3-0.3-0.8-0.199-1,0.2C19.562,12.8,19.662,13.4,19.762,13.9
			L19.762,13.9z"/>
	</g>
	<g>
		<path fill="#4B2200" d="M14.762,15.4c-0.1-0.101-0.2,0.1,0,0.1c0.7,0.4,2.4,1.5,1,2.1c-1.1,0.4-2.3-0.399-3.2-1
			c-0.1-0.1-0.2,0.101-0.1,0.101c1,0.6,2.5,1.7,3.6,0.8C17.062,16.7,15.462,15.7,14.762,15.4L14.762,15.4z"/>
	</g>
	<g>
		<path fill="#4B2200" d="M14.162,14.4c0-0.101-0.101-0.101-0.2,0c0,0.1-0.101,0.3-0.101,0.399c0,0.101-0.1,0.4-0.199,0.4
			c-0.301,0-0.4-0.7-0.5-0.9c0-0.1-0.101,0-0.101,0.101c0.101,0.199,0.2,1,0.601,0.899C14.062,15.3,14.062,14.7,14.162,14.4
			L14.162,14.4z"/>
	</g>
	<g>
		<path fill="#4B2200" d="M12.361,16.7c0.101,0.1,0.2,0,0.101-0.101c-0.7-0.6-1.6-0.899-2.2-1.6c-0.1-0.1-0.2,0-0.1,0.1
			C10.862,15.8,11.762,16.1,12.361,16.7L12.361,16.7z"/>
	</g>
	<g>
		<path d="M14.662,15.5c0.1,0,0.1-0.1,0.1-0.1c-0.3-0.101-0.6-0.2-0.9-0.2c-0.1-0.101-0.1,0.1,0,0.1
			C14.162,15.3,14.361,15.4,14.662,15.5L14.662,15.5z"/>
	</g>
	<g>
		<path d="M13.262,14.9c0,0,0.1-0.101,0-0.101c-0.5-0.1-1-0.2-1.5-0.1c-0.4,0-0.9,0.1-1.2,0.399c-0.1,0.101,0,0.2,0.1,0.101
			c0.3-0.2,0.8-0.3,1.2-0.4C12.361,14.7,12.762,14.8,13.262,14.9L13.262,14.9z"/>
	</g>
	<g>
		<path d="M12.962,14.3c-0.101-0.1-0.2,0-0.101,0.101c0.101,0.1,0.101,0.199,0,0.3c-0.1,0.1,0,0.2,0.101,0.1
			C13.162,14.7,13.162,14.4,12.962,14.3L12.962,14.3z"/>
	</g>
	<g>
		<path fill="#4B2200" d="M15.762,17.6c0,0.101,0.1,0,0.1,0C15.462,16.9,14.662,16.4,13.962,16c-0.5-0.3-0.9-0.5-1.4-0.7
			c-0.399-0.2-0.8-0.399-1.2-0.399c-0.1,0-0.1,0.1,0,0.1c0.5,0,1,0.3,1.5,0.5c0.301,0.2,0.7,0.4,1.101,0.6
			C14.562,16.5,15.262,17,15.762,17.6L15.762,17.6z"/>
	</g>
	<g>
		<path d="M11.262,14.2c0-0.101-0.1,0-0.1,0c0,0.1,0.1,0.399,0,0.5c-0.1,0.1,0,0.2,0.1,0.1C11.361,14.7,11.262,14.4,11.262,14.2
			L11.262,14.2z"/>
	</g>
	<g>
		<path fill="#4B2200" d="M19.861,14.1c0.101,0,0.2-0.1-0.1,0c-0.1,0-0.1-0.699-0.1-0.8c0-0.3,0-0.7,0.199-0.899
			c0.2-0.101,0.5-0.301,0.601,0c0.3,0.399,0.3,1,0.3,1.5c0,1.1,0.1,2.3-0.2,3.399c-0.1,0.3-0.2,0.601-0.5,0.7
			c-0.2,0.1-0.3-0.2-0.3-0.4c0-0.5,0.1-1,0-1.5s-0.6-0.699-1-0.8c-0.6-0.2-1.3-0.1-2-0.3c-0.1-0.1-0.1,0.1,0,0.1
			c0.8,0.2,1.6,0.101,2.4,0.4c0.3,0.1,0.5,0.3,0.5,0.7c0,0.3,0,0.6,0,0.899c0,0.301,0,0.9,0.3,1c0.399,0.101,0.7-0.3,0.8-0.6
			c0.4-1.1,0.3-2.3,0.3-3.4c0-0.399,0-2.199-0.7-2.1c-0.5,0-0.6,0.5-0.6,0.9c0,0.3,0,0.6,0,0.899
			C19.762,13.9,19.762,14.1,19.861,14.1L19.861,14.1z"/>
	</g>
	<g>
		<path d="M6.762,7.5c0.1,0,0.1-0.2,0.2-0.2c-0.3,0.2-0.5,0.5-0.7,0.8c-0.1,0.1-0.4,0.7-0.3,0.1c0-0.2,0.1-0.4,0.1-0.6
			c0.101,0,0-0.1,0-0.1c-0.2,0.2-0.399,0.5-0.6,0.8c-0.101,0.1-0.2,0.3-0.2,0.1c0-0.1,0-0.2,0-0.3c0-0.2,0-0.3,0-0.5
			c0-0.1,0-0.1,0-0.1c-0.4,0.1-0.6,0.4-0.8,0.7c0,0.1-0.101,0.3-0.2,0.4c0,0.1-0.1,0.3-0.1,0.2C4.062,8.6,4.062,8.5,4.062,8.3V8.2
			c-0.2,0.3-0.399,0.5-0.6,0.8c0,0.1,0,0.1,0,0.1c0-0.3,0-0.7,0-1l0,0c-0.2,0.1-0.4,0.2-0.601,0.4v0.1c0.101-0.3,0.2-0.6,0.2-0.9
			V7.6c-0.399,0.2-0.6,0.6-1,0.8c0,0.1,0,0.1,0,0.1c0-0.3,0.101-0.7,0.101-1c0,0-0.101-0.1-0.101,0c0,0.3-0.1,0.7-0.1,1
			c0,0.1,0,0.1,0,0.1c0.399-0.2,0.6-0.6,1-0.8c0-0.1,0-0.1,0-0.1c0,0.3-0.101,0.6-0.2,0.9v0.1c0-0.1,0.5-0.5,0.5-0.4
			c0,0.3,0,0.6,0,0.9c0,0.1,0,0.1,0,0.1c0.2-0.3,0.4-0.5,0.6-0.6V8.6c0,0.3,0.101,0.5,0.101,0.7l0,0c0.3-0.5,0.5-1.1,1.1-1.3
			c0-0.1,0-0.1,0-0.1c0,0.3,0,0.7,0,1l0,0c0.3-0.4,0.5-0.8,0.8-1.1V7.7c-0.1,0.4-0.199,0.7-0.1,1.1l0,0
			C6.062,8.3,6.361,7.9,6.762,7.5L6.762,7.5z"/>
	</g>
	<g>
		<path d="M6.462,10.6c0,0,0-0.2-0.101,0c-0.399,0.5-0.5,1.1-0.6,1.7c0,0.2,0,0.4-0.1,0.601c-0.101,0.3-0.2,0.1-0.301-0.101
			c-0.199-0.3-0.199-0.6-0.399-0.899l0,0c0,0.199-0.101,0.399-0.101,0.6s-0.1,0.3-0.1,0.5c0,0.1,0,0.1-0.1,0c-0.2-0.3-0.2-0.7-0.4-1
			l0,0c-0.2,0.3-0.4,0.8-0.5,1.2c0,0.1-0.1-0.4-0.1-0.3c0-0.2-0.101-0.301-0.101-0.4c-0.1-0.2-0.1-0.4-0.2-0.6l0,0
			c-0.199,0.399-0.199,0.699-0.199,1c0-0.101,0-0.101,0-0.101c-0.301-0.399-0.4-0.899-0.601-1.3l0,0c-0.1,0.2-0.1,0.3-0.2,0.4
			c0,0,0-0.2,0-0.301c0-0.3-0.1-0.5-0.199-0.7l0,0c-0.2,0.2-0.301,0.5-0.5,0.8l-0.101-0.3c-0.1-0.2-0.1-0.3-0.2-0.5l0,0
			c-0.199,0.2-0.3,0.3-0.399,0c-0.101-0.2-0.101-0.4-0.2-0.6c0-0.1,0,0.1,0,0.1c0.1,0.3,0.2,0.6,0.4,0.9l0,0
			c0.1-0.2,0.199-0.4,0.3-0.1c0.1,0.2,0.1,0.399,0.2,0.6l0,0c0.199-0.2,0.3-0.6,0.5-0.8c0.1-0.2,0.199,0.5,0.199,0.5
			c0,0.2,0,0.4,0,0.5c0.101,0,0.101,0,0.101,0c0-0.1,0.2-0.4,0.2-0.4c0.1,0.2,0.1,0.301,0.199,0.5c0.101,0.301,0.2,0.5,0.4,0.7v-0.1
			c0-0.3,0-0.5,0.1-0.7c0.101-0.3,0.2,0.3,0.2,0.4c0.101,0.3,0.2,0.5,0.3,0.8c0.101,0.1,0.101,0,0.101,0c0-0.4,0.2-0.7,0.3-1
			c0.2-0.3,0.2-0.2,0.3,0.1c0.101,0.3,0.101,0.601,0.3,0.9c0,0.1,0,0,0,0c0-0.2,0.101-0.4,0.101-0.601c0-0.1,0.1-0.8,0.2-0.5
			c0.199,0.4,0.3,0.801,0.5,1.101l0,0C5.962,12.3,5.861,11.3,6.462,10.6L6.462,10.6z"/>
	</g>
	<g>
		<path d="M5.762,15.3c0-0.1,0-0.3-0.3-0.3c-0.2,0.2-0.3,0.5-0.4,0.8h0.101C5.062,15.4,5.062,15.2,4.861,14.9c0-0.101-0.1,0-0.1,0
			c0,0.199-0.1,0.3-0.1,0.5C4.562,15.6,4.562,15.9,4.361,15.6c-0.199-0.199-0.3-0.5-0.399-0.699c0,0-0.101,0-0.101,0.1
			c0,0.2,0,0.4,0,0.6l0.101-0.1c-0.2-0.3-0.3-0.6-0.5-0.9c0,0-0.101,0-0.101,0.101c0,0.3,0,0.5,0,0.8l0.101-0.1
			c-0.5-0.4-0.8-1.2-1.4-1.5c-0.1,0-0.1,0.1-0.1,0.1c0.1,0.4,0.2,0.7,0.399,1.1c0.101,0,0.101-0.1,0.101-0.1
			c-0.5-0.3-1.101-0.6-1.5-1.1c-0.101-0.101-0.101,0-0.101,0.1c0.4,0.6,1,0.8,1.601,1.2c0.1,0.1,0.1-0.101,0.1-0.101
			c-0.2-0.3-0.3-0.6-0.3-1l-0.1,0.101c0.6,0.399,0.8,1.1,1.399,1.5c0.101,0,0.101-0.101,0.101-0.101c0-0.3,0-0.5,0-0.8
			c0,0.101-0.101,0.101-0.101,0.101c0.2,0.3,0.3,0.6,0.5,0.899c0,0.101,0.101,0,0.101-0.1c-0.101-0.101,0-0.3,0-0.5
			c0,0.1-0.101,0.1-0.101,0.1c0.2,0.3,0.2,0.7,0.5,1h0.101c0.3-0.3,0.3-0.7,0.399-1h-0.1c0.2,0.3,0.2,0.5,0.3,0.8
			c0,0,0.1,0.101,0.1,0C5.462,15.8,5.562,15.5,5.762,15.3L5.762,15.3z"/>
	</g>
	<g>
		<path d="M6.662,5.8c0,0,0-0.2,0.1-0.1c-0.2,0.3-0.4,0.5-0.6,0.7c0,0.1,0,0.1,0,0.1c0-0.2,0-0.5,0.1-0.7V5.7
			c-0.3,0.1-0.5,0.3-0.7,0.5c0,0.1,0,0.1,0,0.1c0-0.3,0.101-0.5,0.101-0.7V5.5C5.361,5.7,5.062,5.9,4.762,6v0.1
			c0.1-0.2,0.2-0.5,0.2-0.7V5.3c-0.3,0.2-0.5,0.4-0.8,0.5v0.1c0.1-0.2,0.1-0.4,0.1-0.6V5.2c-0.3,0.1-0.5,0.3-0.7,0.4v0.1
			c0.101-0.2,0.2-0.4,0.3-0.6c0.101,0,0-0.2,0-0.1c-0.1,0.2-0.199,0.4-0.3,0.6v0.1c0.3-0.2,0.5-0.3,0.7-0.4V5.2
			c0,0.2-0.1,0.4-0.2,0.5c0,0-0.1,0.1,0,0.1c0.3-0.1,0.5-0.4,0.8-0.5V5.2c-0.1,0.2-0.1,0.4-0.199,0.6v0.1c0.3-0.1,0.6-0.3,0.899-0.5
			V5.3c0,0.3-0.1,0.5-0.1,0.8v0.1c0.2-0.2,0.399-0.4,0.7-0.5V5.6c0,0.3-0.101,0.5-0.101,0.8v0.1C6.262,6.3,6.462,6,6.662,5.8
			L6.662,5.8z"/>
	</g>
	<g>
		<path d="M6.762,5.7c-0.1-0.1-0.2,0,0.1,0.2c0,0.2,0,0.5,0,0.8c0,0,0.101,0.1,0.101,0c0.1-0.2,0.3-0.3,0.399-0.5
			c0-0.1,0-0.3-0.1-0.2c-0.2,0.1-0.4,0.3-0.5,0.5h0.1C6.762,6.3,6.762,6,6.762,5.7L6.762,5.7z"/>
	</g>
</g>
</svg>
