<?xml version="1.0" encoding="utf-8"?>
<!-- Generator: Adobe Illustrator 16.0.0, SVG Export Plug-In . SVG Version: 6.00 Build 0)  -->
<!DOCTYPE svg PUBLIC "-//W3C//DTD SVG 1.1//EN" "http://www.w3.org/Graphics/SVG/1.1/DTD/svg11.dtd">
<svg version="1.1" id="Layer_1" xmlns="http://www.w3.org/2000/svg" xmlns:xlink="http://www.w3.org/1999/xlink" x="0px" y="0px"
	 width="313.3px" height="100px" viewBox="0 0 313.3 100" enable-background="new 0 0 313.3 100" xml:space="preserve">
<g>
	<g>
		<path fill="#FBB040" d="M32.7,80.3c0,0-2.3,7,0.3,7.8c1.3,0.4,11.8,2.9,22.2,3.4c10.2,0.5,20.3-1,22-1.9c3.4-1.9-0.4-9.2-0.4-9.2
			s-14,9.1-23.3,6.9C44.3,85,32.7,80.3,32.7,80.3z"/>
	</g>
	<path fill="#7A6752" d="M95.2,43.9c0-24-18.2-43.5-40.7-43.5C32,0.3,13.8,19.8,13.8,43.9c0,24,18.2,43.5,40.7,43.5
		C77,87.4,95.2,67.9,95.2,43.9z"/>
	<path fill="#EBE5D8" d="M92.7,43.9c0-22.5-17.1-40.8-38.2-40.8c-21.1,0-38.2,18.3-38.2,40.8c0,22.5,17.1,40.8,38.2,40.8
		C75.6,84.7,92.7,66.4,92.7,43.9z"/>
	<path fill="#7A6752" d="M39.1,6.5c0,0,16,24.6,9.7,37.3c-6.3,12.8-2.3,40-2.3,40s-29.7-4.6-29.7-39C16.8,10.4,39.1,6.5,39.1,6.5z"
		/>
	<path fill="#0F2E35" d="M44.1,35.5c0,4.6-2.1,8.4-4.7,8.4c-2.6,0-4.7-3.8-4.7-8.4c0-4.6,2.1-8.4,4.7-8.4C42,27,44.1,30.8,44.1,35.5
		z"/>
	<path fill="#7A6752" d="M70.9,7.3c0,0-15.1,23.7-8.7,36.4c6.3,12.8,0.8,40,0.8,40s29.4-4.6,29.4-39C92.4,10.4,70.9,7.3,70.9,7.3z"
		/>
	<path fill="#655643" d="M81.7,21.2c0,0-11.4,25.9,10.3,42.2"/>
	<path fill="#7A6752" d="M81.3,42.8c2.2,8.2,6.4,14.9,11.1,18.2c3,2.1,6.1,3,9.1,2.1c7.5-2.3,10.7-15.1,7.1-28.6
		C104.9,21,95.9,11.9,88.4,14.2c-3,0.9-5.3,3.5-6.7,7C79.4,26.7,79.1,34.6,81.3,42.8z"/>
	
		<path fill="none" stroke="#0F2E35" stroke-width="2.5721" stroke-linecap="round" stroke-linejoin="round" stroke-miterlimit="10" d="
		M91.1,71.4"/>
	<g>
		<path fill="#7A6752" d="M110,46.9c0.2,3.5-0.6,10.8-2.2,13.8c-0.5-0.5-0.6-1.4-0.8-2.2c-0.3,1.6-0.6,3.4-1.4,4.9
			c-0.5-0.5-0.5-1.5-0.8-2.2c-0.5,0.8-0.5,2-1,2.8c-0.6-0.6-0.6-1.6-1.3-2.2L110,46.9z"/>
	</g>
	<g>
		<path fill="#7A6752" d="M103.6,60.2c-0.1,0.9-0.5,1.7-0.9,2.4c-0.2,0.5-0.5,1.3-0.9,1.7c-0.2-0.3-0.2-0.7-0.3-1
			c-0.1-0.7-0.3-1.4-0.6-2.1"/>
	</g>
	<path fill="#EBE5D8" d="M71.2,79.4c0-9.8-7.5-17.8-16.7-17.8s-16.7,8-16.7,17.8c0,9.8,7.5,8.3,16.7,8.3S71.2,89.2,71.2,79.4z"/>
	<path fill="#D0CBC1" d="M37.6,79.1c0,0-0.6,3,4.4,3.3c5,0.4,10.5,0.7,10.5,0.7s6.2-0.2,6.5,0c0.3,0.2,3.9-0.4,4.4-0.3
		c0.5,0.1,2.5-0.2,3-0.2c0.4,0,1.8,0,2.7-0.3c0.9-0.3,1.1,0,1.7-0.5c0.7-0.5,0.4-2.7,0.4-2.7l-10.5-2.3L37.6,79.1z"/>
	<path fill="#FFFFFF" d="M37.8,70.1c0,0-0.8,10.3,0.7,11.1c1.5,0.8,32.3,2.3,32.6-0.8c0.2-2.5,0.2-5.7-0.6-8.4
		c-0.8-2.7-32.2-0.6-32.2-0.6L37.8,70.1z"/>
	
		<path fill="none" stroke="#0F2E35" stroke-width="3.7407" stroke-linecap="round" stroke-linejoin="round" stroke-miterlimit="10" d="
		M70.3,77.5h21.2c0,0,0,5.9,0,14.5c0,8.6,10.7,9.4,10.7,0c0-6.9,0-24.8,0-33.3c0-8.6-10.7-9.4-10.7,0c0,6.9,0,11.7,0,11.7"/>
	
		<line fill="none" stroke="#0F2E35" stroke-width="3.7407" stroke-linecap="round" stroke-linejoin="round" stroke-miterlimit="10" x1="21.3" y1="77.5" x2="37.4" y2="77.5"/>
	<path fill="#0F2E35" d="M75.1,35.5c0,4.6-2.1,8.4-4.7,8.4c-2.6,0-4.7-3.8-4.7-8.4c0-4.6,2.1-8.4,4.7-8.4C73,27,75.1,30.8,75.1,35.5
		z"/>
	<g>
		<defs>
			<path id="XMLID_2_" d="M71.2,69.6c0-9.8-7.5-17.8-16.7-17.8s-16.7,8-16.7,17.8c0,0.2,0,0.5,0,0.7c0.4,9.1,7.7,7.6,16.7,7.6
				C63.7,77.9,71.2,79.4,71.2,69.6z"/>
		</defs>
		<use xlink:href="#XMLID_2_"  overflow="visible" fill="#EBE5D8"/>
		<clipPath id="XMLID_3_">
			<use xlink:href="#XMLID_2_"  overflow="visible"/>
		</clipPath>
		<path clip-path="url(#XMLID_3_)" fill="#D0CBC1" d="M54.9,77.2c15.4-0.3,14.5-3.9,16-4.7c1.5-0.8-0.6,4.4-0.6,4.4
			s-5.9,2.2-6.2,2.3c-0.3,0.1-10.7,0.3-10.7,0.3l-8.9-0.1l-9.2-3.1l1.8-6.9c0,0,1.5,4.3,2.8,5.4C41.2,75.8,43.6,77.4,54.9,77.2z"/>
	</g>
	<path fill="#0F2E35" d="M61.7,61.2c0-1.6-0.8-3.4-2.1-4.4c-1.3-1-3.1-1.3-5.1-1.3c-2.4,0-4.2,0.4-5.5,1.9c-0.8,0.9-1.6,2.6-1.6,3.8
		c0,3.1,3.2,5.7,7.2,5.7C58.5,66.8,61.7,64.3,61.7,61.2z"/>
	<path fill="#655643" d="M16.6,57.9c0,0,5.1-31.4,11.7-36.6c0,0,10.7,24.3-10.9,40.6C15.5,60.2,16.6,57.9,16.6,57.9z"/>
	<path fill="#7A6752" d="M28.8,42.8c-2.2,8.2-6.4,14.9-11.1,18.2c-3,2.1-6.1,3-9.1,2.1C1.1,60.9-2.1,48,1.5,34.5
		s12.6-22.6,20.1-20.3c3,0.9,5.3,3.5,6.7,7C30.6,26.7,30.9,34.6,28.8,42.8z"/>
	<path fill="#655643" d="M66.6,25.7c0.8-0.7,2.7-2.2,4.3-2.2c1.9,0,3.4,1.7,4.3,2.5c0,0-1.5-4.1-4.7-3.7
		C67.2,22.7,66.6,25.7,66.6,25.7z"/>
	<path fill="#655643" d="M35.2,25.7c0.8-0.7,2.7-2.2,4.3-2.2c1.9,0,3.4,1.7,4.3,2.5c0,0-1.5-4.1-4.7-3.7
		C35.9,22.7,35.2,25.7,35.2,25.7z"/>
	<g>
		<path fill="#7A6752" d="M0,46.9c-0.2,3.5,0.6,10.8,2.2,13.8c0.5-0.5,0.6-1.4,0.8-2.2c0.3,1.6,0.6,3.4,1.4,4.9
			c0.5-0.5,0.5-1.5,0.8-2.2c0.5,0.8,0.5,2,1,2.8c0.6-0.6,0.6-1.6,1.3-2.2L0,46.9z"/>
	</g>
	<g>
		<path fill="#7A6752" d="M6.4,60.2c0.1,0.9,0.5,1.7,0.9,2.4c0.2,0.5,0.5,1.3,0.9,1.7c0.2-0.3,0.2-0.7,0.3-1
			c0.1-0.7,0.3-1.4,0.6-2.1"/>
	</g>
	<path fill="none" stroke="#EBE5D8" stroke-width="0.2338" stroke-miterlimit="10" d="M39.2,78c5.2,1.6,11.6,2.5,16.9,2.2
		c4.7-0.2,10.8-1.6,12.4-2.1"/>
</g>
<g>
	<path fill="#0F2E35" d="M149.8,39.7c-0.9,0.7-1.3,1.6-1.3,2.8s0.5,2.1,1.6,2.8c1,0.7,3.4,1.5,7.2,2.4c3.8,0.9,6.7,2.3,8.8,4.2
		c2.1,1.9,3.1,4.6,3.1,8.1c0,3.6-1.3,6.4-4,8.7c-2.7,2.2-6.2,3.3-10.5,3.3c-6.3,0-11.9-2.3-17-7l5.3-6.5c4.3,3.7,8.2,5.6,11.9,5.6
		c1.6,0,2.9-0.3,3.8-1c0.9-0.7,1.4-1.6,1.4-2.8c0-1.2-0.5-2.1-1.5-2.8c-1-0.7-2.9-1.4-5.8-2.1c-4.6-1.1-8-2.5-10.1-4.3
		c-2.1-1.8-3.2-4.5-3.2-8.3c0-3.8,1.4-6.7,4.1-8.7c2.7-2,6.1-3.1,10.1-3.1c2.6,0,5.3,0.5,7.9,1.4c2.6,0.9,5,2.2,6.9,3.9l-4.5,6.5
		c-3.4-2.6-7-3.9-10.7-3.9C151.8,38.6,150.6,39,149.8,39.7z"/>
	<path fill="#0F2E35" d="M202.3,67c-3.4,3.3-7.5,4.9-12.1,4.9c-4.6,0-8.5-1.4-11.5-4.3c-3-2.9-4.5-6.7-4.5-11.5s1.5-8.6,4.6-11.5
		c3.1-2.8,6.7-4.3,10.9-4.3c4.2,0,7.8,1.3,10.7,3.8c2.9,2.5,4.4,6,4.4,10.4v4.5h-22.2c0.3,1.7,1.1,3,2.6,4.1c1.5,1.1,3.1,1.6,5,1.6
		c3,0,5.4-1,7.4-3L202.3,67z M194.1,48.9c-1.2-1-2.6-1.5-4.3-1.5c-1.7,0-3.2,0.5-4.6,1.5c-1.4,1-2.2,2.4-2.4,4.1h13.4
		C195.9,51.3,195.3,49.9,194.1,48.9z"/>
	<path fill="#0F2E35" d="M220.7,47v13.7c0,1.2,0.3,2.1,0.9,2.8c0.6,0.7,1.3,1,2.2,1c1.6,0,2.9-0.7,4-2.2l3.2,6
		c-2.6,2.4-5.4,3.6-8.4,3.6s-5.4-1-7.4-2.9c-2-1.9-3-4.6-3-7.9V47h-3.6v-6.1h3.6v-9.1h8.6v9.1h7.4V47H220.7z"/>
	<path fill="#0F2E35" d="M245.7,47v13.7c0,1.2,0.3,2.1,0.9,2.8c0.6,0.7,1.3,1,2.2,1c1.6,0,2.9-0.7,4-2.2l3.2,6
		c-2.6,2.4-5.4,3.6-8.4,3.6s-5.4-1-7.4-2.9c-2-1.9-3-4.6-3-7.9V47h-3.6v-6.1h3.6v-9.1h8.6v9.1h7.4V47H245.7z"/>
	<path fill="#0F2E35" d="M286.9,67c-3.4,3.3-7.5,4.9-12.1,4.9c-4.6,0-8.5-1.4-11.5-4.3c-3-2.9-4.5-6.7-4.5-11.5s1.5-8.6,4.6-11.5
		c3.1-2.8,6.7-4.3,10.9-4.3s7.8,1.3,10.7,3.8c2.9,2.5,4.4,6,4.4,10.4v4.5h-22.2c0.3,1.7,1.1,3,2.6,4.1c1.5,1.1,3.1,1.6,5,1.6
		c3,0,5.4-1,7.4-3L286.9,67z M278.8,48.9c-1.2-1-2.6-1.5-4.3-1.5c-1.7,0-3.2,0.5-4.6,1.5c-1.4,1-2.2,2.4-2.4,4.1h13.4
		C280.6,51.3,279.9,49.9,278.8,48.9z"/>
	<path fill="#0F2E35" d="M311.6,48.4c-2.5,0-4.4,0.9-5.7,2.7c-1.2,1.8-1.9,4.2-1.9,7.1v13.2h-8.5V40.9h8.5v4
		c1.1-1.2,2.5-2.3,4.1-3.2c1.6-0.9,3.3-1.3,5-1.4l0.1,8H311.6z"/>
</g>
</svg>
