<?xml version="1.0" encoding="utf-8"?>
<!-- Generator: Adobe Illustrator 16.0.0, SVG Export Plug-In . SVG Version: 6.00 Build 0)  -->
<!DOCTYPE svg PUBLIC "-//W3C//DTD SVG 1.1//EN" "http://www.w3.org/Graphics/SVG/1.1/DTD/svg11.dtd">
<svg version="1.1" id="Layer_1" xmlns="http://www.w3.org/2000/svg" xmlns:xlink="http://www.w3.org/1999/xlink" x="0px" y="0px"
	 width="82.9px" height="82.9px" viewBox="0 0 82.9 82.9" enable-background="new 0 0 82.9 82.9" xml:space="preserve">
<g>
	<g>
		<g>
			<g enable-background="new    ">
				<g enable-background="new    ">
					<defs>
						<path id="SVGID_1_" enable-background="new    " d="M42.7,77.4L42,76.9c0.3,0.1,0.5,0.2,0.8,0.1c0.6-0.1,0.8-0.3,0.8-0.7
							c0-0.2,0-0.3-0.2-0.4l0.8,0.4c0.2,0.1,0.2,0.2,0.2,0.4c0,0.4-0.3,0.7-0.9,0.7C43.3,77.5,43,77.5,42.7,77.4z"/>
					</defs>
					<clipPath id="SVGID_2_">
						<use xlink:href="#SVGID_1_"  overflow="visible"/>
					</clipPath>
					<g clip-path="url(#SVGID_2_)" enable-background="new    ">
						<path fill="#A97828" d="M42.7,77.4L42,76.9c0,0,0,0,0,0L42.7,77.4C42.8,77.4,42.8,77.4,42.7,77.4"/>
						<path fill="#AD7B29" d="M42.8,77.4L42,77c0.1,0,0.2,0.1,0.2,0.1l0.8,0.4C42.9,77.4,42.9,77.4,42.8,77.4"/>
						<path fill="#B27E2B" d="M43,77.5l-0.8-0.4c0.2,0,0.4,0.1,0.6,0c0.2,0,0.3-0.1,0.5-0.1l0.8,0.4c-0.1,0.1-0.3,0.1-0.5,0.1
							C43.4,77.5,43.2,77.5,43,77.5"/>
						<path fill="#AD7B29" d="M44,77.4L43.3,77c0,0,0.1,0,0.1-0.1l0.8,0.4C44.1,77.3,44.1,77.3,44,77.4"/>
						<path fill="#A97828" d="M44.2,77.3l-0.8-0.4c0,0,0,0,0.1-0.1L44.2,77.3C44.2,77.3,44.2,77.3,44.2,77.3"/>
						<path fill="#A57526" d="M44.2,77.2l-0.8-0.4c0,0,0,0,0,0L44.2,77.2C44.3,77.2,44.2,77.2,44.2,77.2"/>
						<path fill="#A17225" d="M44.3,77.2l-0.8-0.4c0,0,0,0,0,0L44.3,77.2C44.3,77.2,44.3,77.2,44.3,77.2"/>
						<path fill="#9D6F23" d="M44.3,77.1l-0.8-0.4c0,0,0,0,0-0.1L44.3,77.1C44.3,77.1,44.3,77.1,44.3,77.1"/>
						<path fill="#996C22" d="M44.4,77.1l-0.8-0.4c0,0,0,0,0-0.1L44.4,77.1C44.4,77,44.4,77.1,44.4,77.1"/>
						<path fill="#956920" d="M44.4,77l-0.8-0.4c0-0.1,0-0.2,0-0.3c0-0.2,0-0.3-0.2-0.4l0.8,0.4c0.2,0.1,0.2,0.2,0.2,0.4
							C44.4,76.8,44.4,76.9,44.4,77"/>
					</g>
				</g>
				<g enable-background="new    ">
					<defs>
						<path id="SVGID_3_" enable-background="new    " d="M43.5,73.6l0.8,0.4c0.1,0.1,0.3,0.2,0.4,0.3l-0.8-0.4
							C43.8,73.8,43.6,73.7,43.5,73.6z"/>
					</defs>
					<clipPath id="SVGID_4_">
						<use xlink:href="#SVGID_3_"  overflow="visible"/>
					</clipPath>
					<g clip-path="url(#SVGID_4_)" enable-background="new    ">
						<path fill="#956920" d="M44.6,74.3l-0.8-0.4c-0.1-0.1-0.2-0.2-0.4-0.3l0.8,0.4C44.4,74.1,44.5,74.2,44.6,74.3"/>
					</g>
				</g>
				<g enable-background="new    ">
					<defs>
						<path id="SVGID_5_" enable-background="new    " d="M42.2,78.4L41.5,78c-0.2-0.1-0.4-0.3-0.6-0.5l0.8,0.4
							C41.8,78.1,42,78.2,42.2,78.4z"/>
					</defs>
					<clipPath id="SVGID_6_">
						<use xlink:href="#SVGID_5_"  overflow="visible"/>
					</clipPath>
					<g clip-path="url(#SVGID_6_)" enable-background="new    ">
						<path fill="#956920" d="M42.2,78.4L41.5,78c-0.2-0.1-0.4-0.3-0.6-0.5l0.8,0.4C41.8,78.1,42,78.2,42.2,78.4"/>
					</g>
				</g>
				<g>
					<polygon fill="#AD7A29" points="41.6,77.8 40.9,77.4 41.6,76.6 42.3,77 					"/>
				</g>
				<g enable-background="new    ">
					<defs>
						<path id="SVGID_7_" enable-background="new    " d="M43,74.9l-0.8-0.4c0.1,0.1,0.4,0.1,0.8,0.2c0.3,0,0.7,0.1,1,0.3l0.8,0.4
							c-0.3-0.2-0.6-0.2-1-0.3C43.4,75,43.2,74.9,43,74.9z"/>
					</defs>
					<clipPath id="SVGID_8_">
						<use xlink:href="#SVGID_7_"  overflow="visible"/>
					</clipPath>
					<g clip-path="url(#SVGID_8_)" enable-background="new    ">
						<path fill="#A97828" d="M43,74.9l-0.8-0.4c0,0,0,0,0,0L43,74.9C43,74.9,43,74.9,43,74.9"/>
						<path fill="#AD7B29" d="M43.1,74.9l-0.8-0.4c0.1,0,0.1,0,0.2,0.1l0.8,0.4C43.2,74.9,43.1,74.9,43.1,74.9"/>
						<path fill="#B27E2B" d="M43.2,74.9l-0.8-0.4c0.1,0,0.3,0.1,0.6,0.1c0.2,0,0.4,0.1,0.6,0.1l0.8,0.4c-0.2,0-0.4-0.1-0.6-0.1
							C43.6,75,43.4,75,43.2,74.9"/>
						<path fill="#AD7B29" d="M44.4,75.1l-0.8-0.4c0.1,0,0.3,0.1,0.4,0.1l0.8,0.4C44.6,75.2,44.5,75.2,44.4,75.1"/>
						<path fill="#A97828" d="M44.8,75.3L44,74.9c0,0,0,0,0.1,0L44.8,75.3C44.8,75.3,44.8,75.3,44.8,75.3"/>
					</g>
				</g>
				<g enable-background="new    ">
					<defs>
						<path id="SVGID_9_" enable-background="new    " d="M44,72.6l0.8,0.4c-0.3-0.2-0.7-0.3-1.2-0.2l-0.8-0.4
							C43.3,72.3,43.7,72.4,44,72.6z"/>
					</defs>
					<clipPath id="SVGID_10_">
						<use xlink:href="#SVGID_9_"  overflow="visible"/>
					</clipPath>
					<g clip-path="url(#SVGID_10_)" enable-background="new    ">
						<path fill="#B27E2B" d="M43.6,72.8l-0.8-0.4c0.3,0,0.6,0,0.8,0l0.8,0.4C44.1,72.8,43.9,72.8,43.6,72.8"/>
						<path fill="#AD7B29" d="M44.4,72.8l-0.8-0.4c0.1,0,0.2,0.1,0.3,0.1l0.8,0.4C44.6,72.9,44.5,72.9,44.4,72.8"/>
						<path fill="#A97828" d="M44.7,73L44,72.6c0,0,0,0,0.1,0L44.7,73C44.8,73,44.7,73,44.7,73"/>
					</g>
				</g>
				<g enable-background="new    ">
					<defs>
						<path id="SVGID_11_" enable-background="new    " d="M42.4,75.9l-0.8-0.4c-0.4-0.2-0.6-0.6-0.6-1.2c0-1,0.8-1.8,1.7-1.9
							l0.8,0.4c-1,0.1-1.7,0.9-1.7,1.9C41.8,75.3,42,75.7,42.4,75.9z"/>
					</defs>
					<clipPath id="SVGID_12_">
						<use xlink:href="#SVGID_11_"  overflow="visible"/>
					</clipPath>
					<g clip-path="url(#SVGID_12_)" enable-background="new    ">
						<path fill="#956920" d="M42.4,75.9l-0.8-0.4c-0.4-0.2-0.6-0.6-0.6-1.2c0-0.2,0-0.4,0.1-0.6l0.8,0.4c-0.1,0.2-0.1,0.4-0.1,0.6
							C41.8,75.3,42,75.7,42.4,75.9"/>
						<path fill="#996C22" d="M41.9,74.1l-0.8-0.4c0-0.1,0.1-0.2,0.1-0.2l0.8,0.4C42,73.9,42,74,41.9,74.1"/>
						<path fill="#9D6F23" d="M42,73.8l-0.8-0.4c0-0.1,0.1-0.1,0.1-0.2l0.8,0.4C42.1,73.7,42.1,73.8,42,73.8"/>
						<path fill="#A17225" d="M42.2,73.6l-0.8-0.4c0-0.1,0.1-0.1,0.1-0.2l0.8,0.4C42.2,73.5,42.2,73.6,42.2,73.6"/>
						<path fill="#A57526" d="M42.3,73.5l-0.8-0.4c0-0.1,0.1-0.1,0.2-0.2l0.8,0.4C42.4,73.4,42.3,73.4,42.3,73.5"/>
						<path fill="#A97828" d="M42.4,73.3l-0.8-0.4c0.1-0.1,0.1-0.1,0.2-0.2l0.8,0.4C42.6,73.2,42.5,73.3,42.4,73.3"/>
						<path fill="#AD7B29" d="M42.6,73.2l-0.8-0.4c0.1-0.1,0.2-0.1,0.3-0.2l0.8,0.4C42.8,73,42.7,73.1,42.6,73.2"/>
						<path fill="#B27E2B" d="M42.9,73l-0.8-0.4c0.2-0.1,0.4-0.2,0.6-0.2l0.8,0.4C43.3,72.8,43.1,72.9,42.9,73"/>
					</g>
				</g>
				<g>
					<path fill="#DE9C38" d="M43.6,72.8c0.8-0.1,1.3,0.1,1.8,0.6l-0.7,0.9c-0.3-0.3-0.7-0.5-1.1-0.4c-0.5,0.1-0.7,0.4-0.7,0.6
						c0,0.3,0.2,0.4,1,0.5c0.8,0.1,1.6,0.3,1.6,1.5c0,1.1-0.6,1.9-1.9,2.1c-0.8,0.1-1.5-0.2-1.9-0.7l0.7-0.8
						c0.3,0.4,0.8,0.5,1.2,0.5c0.6-0.1,0.8-0.3,0.9-0.7c0-0.4-0.2-0.5-1.1-0.6c-0.9-0.1-1.5-0.3-1.5-1.5
						C41.8,73.7,42.6,72.9,43.6,72.8z"/>
				</g>
			</g>
		</g>
	</g>
	<g>
		<path fill="#FBB040" d="M25.6,61.4c0,0-1.6,5,0.2,5.5c0.9,0.3,8.4,2.1,15.9,2.4c7.3,0.3,14.5-0.7,15.7-1.4
			c2.4-1.4-0.3-6.6-0.3-6.6s-10,6.5-16.6,4.9C33.8,64.8,25.6,61.4,25.6,61.4z"/>
	</g>
	<ellipse fill="#7A6752" cx="41.1" cy="35.4" rx="29.1" ry="31.1"/>
	<ellipse fill="#EBE5D8" cx="41.1" cy="35.4" rx="27.2" ry="29.1"/>
	<path fill="#7A6752" d="M30.1,8.7c0,0,11.4,17.5,6.9,26.6c-4.5,9.1-1.6,28.5-1.6,28.5s-21.2-3.3-21.2-27.8
		C14.2,11.5,30.1,8.7,30.1,8.7z"/>
	<ellipse fill="#0F2E35" cx="30.4" cy="29.4" rx="3.3" ry="6"/>
	<path fill="#7A6752" d="M52.8,9.4c0,0-10.8,16.9-6.2,26c4.5,9.1,0.6,28.5,0.6,28.5s21-3.3,21-27.8C68.2,11.5,52.8,9.4,52.8,9.4z"/>
	<path fill="#655643" d="M60.5,19.3c0,0-8.1,18.5,7.3,30.1"/>
	<path fill="#7A6752" d="M60.2,34.7c1.6,5.9,4.6,10.6,7.9,13c2.1,1.5,4.4,2.1,6.5,1.5c5.4-1.6,7.7-10.8,5.1-20.4
		c-2.6-9.6-9-16.1-14.4-14.5c-2.1,0.6-3.8,2.5-4.8,5C58.8,23.2,58.6,28.8,60.2,34.7z"/>
	
		<path fill="none" stroke="#0F2E35" stroke-width="1.8352" stroke-linecap="round" stroke-linejoin="round" stroke-miterlimit="10" d="
		M67.2,55.1"/>
	<g>
		<path fill="#7A6752" d="M80.7,37.6c0.1,2.5-0.5,7.7-1.5,9.9c-0.3-0.4-0.4-1-0.6-1.6c-0.2,1.2-0.4,2.5-1,3.5
			c-0.3-0.3-0.4-1.1-0.6-1.6c-0.3,0.6-0.4,1.4-0.7,2c-0.4-0.4-0.4-1.1-0.9-1.6L80.7,37.6z"/>
	</g>
	<g>
		<path fill="#7A6752" d="M76.1,47.1c-0.1,0.6-0.4,1.2-0.6,1.7c-0.2,0.3-0.4,0.9-0.7,1.2c-0.1-0.2-0.1-0.5-0.2-0.7
			c-0.1-0.5-0.2-1-0.4-1.5"/>
	</g>
	<path fill="#EBE5D8" d="M53,60.8c0-7-5.3-12.7-11.9-12.7c-6.6,0-11.9,5.7-11.9,12.7c0,7,5.3,5.9,11.9,5.9
		C47.6,66.7,53,67.8,53,60.8z"/>
	<path fill="#D0CBC1" d="M29,60.6c0,0-0.4,2.1,3.2,2.4c3.6,0.3,7.5,0.5,7.5,0.5s4.4-0.1,4.6,0c0.2,0.1,2.8-0.3,3.1-0.2
		c0.4,0,1.8-0.1,2.1-0.1s1.3,0,1.9-0.2c0.6-0.2,0.8,0,1.2-0.4c0.5-0.4,0.3-1.9,0.3-1.9l-7.5-1.7L29,60.6z"/>
	<path fill="#FFFFFF" d="M29.2,54.2c0,0-0.6,7.4,0.5,7.9c1.1,0.6,23.1,1.6,23.3-0.6c0.2-1.8,0.1-4-0.4-6c-0.5-2-23-0.4-23-0.4
		L29.2,54.2z"/>
	
		<path fill="none" stroke="#0F2E35" stroke-width="2.669" stroke-linecap="round" stroke-linejoin="round" stroke-miterlimit="10" d="
		M52.4,59.4h15.2c0,0,0,4.2,0,10.3c0,6.1,7.6,6.7,7.6,0c0-4.9,0-17.7,0-23.8c0-6.1-7.6-6.7-7.6,0c0,4.9,0,8.3,0,8.3"/>
	
		<line fill="none" stroke="#0F2E35" stroke-width="2.669" stroke-linecap="round" stroke-linejoin="round" stroke-miterlimit="10" x1="17.4" y1="59.4" x2="28.9" y2="59.4"/>
	<ellipse fill="#0F2E35" cx="52.5" cy="29.4" rx="3.3" ry="6"/>
	<g>
		<defs>
			<path id="XMLID_12_" d="M53,53.8c0-7-5.3-12.7-11.9-12.7c-6.6,0-11.9,5.7-11.9,12.7c0,0.2,0,0.3,0,0.5c0.3,6.5,5.5,5.4,11.9,5.4
				C47.6,59.7,53,60.8,53,53.8z"/>
		</defs>
		<use xlink:href="#XMLID_12_"  overflow="visible" fill="#EBE5D8"/>
		<clipPath id="XMLID_3_">
			<use xlink:href="#XMLID_12_"  overflow="visible"/>
		</clipPath>
		<path clip-path="url(#XMLID_3_)" fill="#D0CBC1" d="M41.4,59.2c11-0.2,10.3-2.8,11.4-3.4c1.1-0.6-0.4,3.2-0.4,3.2
			s-4.2,1.6-4.4,1.6c-0.2,0-7.6,0.2-7.6,0.2l-6.4,0l-6.5-2.2l1.2-4.9c0,0,1.1,3,2,3.8C31.6,58.2,33.3,59.3,41.4,59.2z"/>
	</g>
	<path fill="#0F2E35" d="M46.2,46.3c0-1.5-0.6-3.2-1.5-4.2c-0.9-1-2.2-1.2-3.6-1.2c-1.7,0-3,0.4-4,1.8c-0.6,0.9-1.2,2.5-1.2,3.7
		c0,3,2.3,5.5,5.1,5.5S46.2,49.4,46.2,46.3z"/>
	<path fill="#CCC7BD" d="M44.3,49.9c-0.1-0.3-0.7-0.3-1.2,0c-0.5,0.3-0.8,0.7-0.7,1c0.1,0.3,0.7,0.3,1.2,0
		C44.1,50.7,44.4,50.2,44.3,49.9z"/>
	<path fill="#655643" d="M14.1,45.4c0,0,3.6-22.4,8.4-26.1c0,0,7.6,17.3-7.8,29C13.3,47.1,14.1,45.4,14.1,45.4z"/>
	<path fill="#7A6752" d="M22.7,34.7c-1.6,5.9-4.6,10.6-7.9,13c-2.1,1.5-4.4,2.1-6.5,1.5C3,47.6,0.7,38.4,3.3,28.8
		c2.6-9.6,9-16.1,14.4-14.5c2.1,0.6,3.8,2.5,4.8,5C24,23.2,24.3,28.8,22.7,34.7z"/>
	<path fill="#655643" d="M49.7,22.5c0.6-0.5,1.9-1.6,3.1-1.6c1.3,0,2.4,1.2,3.1,1.8c0,0-1.1-2.9-3.3-2.6
		C50.2,20.3,49.7,22.5,49.7,22.5z"/>
	<path fill="#655643" d="M27.3,22.5c0.6-0.5,1.9-1.6,3.1-1.6c1.3,0,2.4,1.2,3.1,1.8c0,0-1-2.9-3.3-2.6
		C27.8,20.3,27.3,22.5,27.3,22.5z"/>
	
		<ellipse fill="none" stroke="#434B4C" stroke-width="0.3827" stroke-linecap="round" stroke-linejoin="round" stroke-miterlimit="10" cx="42.4" cy="71" rx="1.4" ry="1.4"/>
	<g>
		<path fill="#7A6752" d="M2.2,37.6c-0.1,2.5,0.5,7.7,1.5,9.9c0.3-0.4,0.4-1,0.6-1.6c0.2,1.2,0.4,2.5,1,3.5c0.3-0.3,0.4-1.1,0.6-1.6
			c0.3,0.6,0.4,1.4,0.7,2c0.4-0.4,0.4-1.1,0.9-1.6L2.2,37.6z"/>
	</g>
	<g>
		<path fill="#7A6752" d="M6.8,47.1c0.1,0.6,0.4,1.2,0.6,1.7c0.2,0.3,0.4,0.9,0.7,1.2c0.1-0.2,0.1-0.5,0.2-0.7
			c0.1-0.5,0.2-1,0.4-1.5"/>
	</g>
	<path fill="#CCC7BD" d="M37.9,49.9c0.1-0.3,0.7-0.3,1.2,0c0.5,0.3,0.8,0.7,0.7,1c-0.1,0.3-0.7,0.3-1.2,0
		C38.1,50.7,37.8,50.2,37.9,49.9z"/>
	<path fill="none" stroke="#EBE5D8" stroke-width="0.1668" stroke-miterlimit="10" d="M30.1,59.8c3.7,1.2,8.3,1.8,12.1,1.6
		c3.4-0.2,7.7-1.1,8.9-1.5"/>
</g>
</svg>
