<?xml version="1.0" encoding="utf-8"?>
<!-- Generator: Adobe Illustrator 16.0.0, SVG Export Plug-In . SVG Version: 6.00 Build 0)  -->
<!DOCTYPE svg PUBLIC "-//W3C//DTD SVG 1.1//EN" "http://www.w3.org/Graphics/SVG/1.1/DTD/svg11.dtd">
<svg version="1.1" id="Layer_1" xmlns="http://www.w3.org/2000/svg" xmlns:xlink="http://www.w3.org/1999/xlink" x="0px" y="0px"
	 width="187.2px" height="65px" viewBox="0 0 187.2 65" enable-background="new 0 0 187.2 65" xml:space="preserve">
<rect fill="#F1EAE1" width="187.2" height="65"/>
<g>
	<polygon fill="#D3D5D6" points="102,41.8 102,34.8 84,34.8 84,19.8 102,19.8 102,11.6 87.4,11.6 86.3,9.9 65.9,9.9 65.9,21.4 
		52.7,28.7 52.7,15.4 56,15.4 56,10.4 38.2,10.4 38.2,5.7 35.6,2.9 9.7,2.9 4.2,9.7 4.2,21.9 7,25.7 7,29.4 26,29.4 26,23.4 
		28.9,20.6 37.4,20.6 37.4,37.9 21.7,37.9 21.7,34.7 6.2,34.7 6.2,37.7 0.2,37.7 0.2,0.2 187,0.2 187,7.5 166.5,14.6 166.5,11.8 
		135,11.8 135,18.6 118.2,18.6 118.2,15.3 117,11.8 105.4,11.8 105.4,41.8 	"/>
	<g>
		<path fill="#333333" d="M186.7,0.5v6.8l-19.9,7V12v-0.5h-0.5h-31h-0.5V12v6.3h-16.3v-3v-0.1l0-0.1l-1.2-3.3l-0.1-0.3h-0.4h-11.2
			h-0.5V12v17.1v12.4h-2.8V35v-0.5h-0.5H84.3V20h17.5h0.5v-0.5v-7.7v-0.5h-0.5H87.5l-1-1.5l-0.1-0.2h-0.3h-20h-0.5v0.5v11L53,28.3
			V15.7h2.8h0.5v-0.5v-4.5v-0.5h-0.5H38.5V5.8V5.6l-0.1-0.1l-2.5-2.7l-0.1-0.2h-0.2H9.8H9.5L9.4,2.9L4.1,9.5L4,9.7v0.2v12V22
			l0.1,0.1l2.7,3.7v3.3v0.5h0.5h18.5h0.5v-0.5v-5.6l2.7-2.7h8.1v16.8H22V35v-0.5h-0.5h-15H6V35v2.5H0.5v-37H186.7 M187.2,0H0v38h6.5
			v-3h15v3.2h16.2V20.3h-8.8l-3,3v5.8H7.3v-3.5l-2.8-3.8v-12l5.3-6.7h25.7L38,5.8v4.8h17.8v4.5h-3.3v14l13.7-7.6V10.2h20l1.2,1.7
			h14.5v7.7h-18V35h18v7h3.8V29.1V12h11.2l1.2,3.3v3.5h17.3V12h31v3l20.9-7.3V0L187.2,0z"/>
	</g>
</g>
<circle fill="#ED6C56" cx="94.5" cy="35" r="3"/>
<circle fill="#ED6C56" cx="105.9" cy="27" r="3"/>
<circle fill="#ED6C56" cx="93.6" cy="15.7" r="3"/>
<circle fill="#ED6C56" cx="72" cy="14.7" r="3"/>
<circle fill="#ED6C56" cx="16.4" cy="41" r="3"/>
<circle fill="#ED6C56" cx="16.4" cy="29.1" r="3"/>
<circle fill="#ED6C56" cx="17.6" cy="12.6" r="3"/>
<circle fill="#ED6C56" cx="59.5" cy="26.1" r="3"/>
</svg>
