<?xml version="1.0" encoding="utf-8"?>
<!-- Generator: Adobe Illustrator 16.0.0, SVG Export Plug-In . SVG Version: 6.00 Build 0)  -->
<!DOCTYPE svg PUBLIC "-//W3C//DTD SVG 1.1//EN" "http://www.w3.org/Graphics/SVG/1.1/DTD/svg11.dtd">
<svg version="1.1" id="Layer_1" xmlns="http://www.w3.org/2000/svg" xmlns:xlink="http://www.w3.org/1999/xlink" x="0px" y="0px"
	 width="144px" height="144px" viewBox="0 0 144 144" enable-background="new 0 0 144 144" xml:space="preserve">
<g>
	<path fill-rule="evenodd" clip-rule="evenodd" fill="#333333" d="M89.3,87.1c14.5,6.4,28.2,12.6,42,18.3c4.8,2,6.8,4.4,6.7,9.9
		c-0.4,15.4-0.1,30.8-0.1,46.7c-44.7,0-88.4,0-133.4,0c0-16.9-0.2-33.5,0.3-50.2c0.1-2.1,3.5-4.9,5.9-6c13.9-6.3,28.1-12.3,43.7-19
		c-14.2-11.4-18.4-25.6-17-41.9c1.3-15.3,12-29,25.9-32.8C75.9,8.7,88.9,13.7,97.2,25c11.4,15.6,10.9,38.5-1.3,54.1
		C94.1,81.6,92,83.9,89.3,87.1z"/>
</g>
</svg>
